<svg width="40" height="40" viewBox="0 0 40 40" fill="none" xmlns="http://www.w3.org/2000/svg">
<path d="M29.9983 0.00832267L24.8113 0C18.9838 0 15.2179 3.8638 15.2179 9.84405V14.3828H10.0025C9.55184 14.3828 9.18689 14.7482 9.18689 15.1989V21.775C9.18689 22.2257 9.55225 22.5906 10.0025 22.5906H15.2179V39.1844C15.2179 39.6351 15.5828 40 16.0335 40H22.838C23.2887 40 23.6536 39.6346 23.6536 39.1844V22.5906H29.7516C30.2023 22.5906 30.5672 22.2257 30.5672 21.775L30.5697 15.1989C30.5697 14.9825 30.4836 14.7752 30.3308 14.6221C30.1781 14.469 29.97 14.3828 29.7537 14.3828H23.6536V10.5353C23.6536 8.68595 24.0943 7.74716 26.5033 7.74716L29.9975 7.74591C30.4478 7.74591 30.8127 7.38054 30.8127 6.93029V0.823944C30.8127 0.374104 30.4482 0.00915494 29.9983 0.00832267Z" fill="black"/>
</svg>
