<svg width="40" height="40" viewBox="0 0 40 40" fill="none" xmlns="http://www.w3.org/2000/svg">
<path d="M35.6522 0H4.34783C1.95058 0 0 1.95058 0 4.34783V35.6522C0 38.0494 1.95058 40 4.34783 40H35.6522C38.0494 40 40 38.0494 40 35.6522V4.34783C40 1.95058 38.0494 0 35.6522 0ZM18.2609 26.087H12.1739V20.8696H18.2609C18.7407 20.8696 19.1304 20.4798 19.1304 20V14.7826C19.1304 11.4262 21.8618 8.69565 25.2174 8.69565H31.3043V13.913H25.2174C24.7363 13.913 24.3478 14.3028 24.3478 14.7826V20C24.3478 20.4798 24.7363 20.8696 25.2174 20.8696H31.3043V26.087H25.2174C24.7363 26.087 24.3478 26.4767 24.3478 26.9565V38.2609H19.1304V26.9565C19.1304 26.4767 18.7407 26.087 18.2609 26.087ZM38.2609 35.6522C38.2609 37.0903 37.0903 38.2609 35.6522 38.2609H26.087V27.8261H32.1739C32.655 27.8261 33.0435 27.4363 33.0435 26.9565V20C33.0435 19.5202 32.655 19.1304 32.1739 19.1304H26.087V15.6522H32.1739C32.655 15.6522 33.0435 15.2624 33.0435 14.7826V7.82609C33.0435 7.3463 32.655 6.95652 32.1739 6.95652H25.2174C20.9018 6.95652 17.3913 10.4679 17.3913 14.7826V19.1304H11.3043C10.8246 19.1304 10.4348 19.5202 10.4348 20V26.9565C10.4348 27.4363 10.8246 27.8261 11.3043 27.8261H17.3913V38.2609H4.34783C2.90973 38.2609 1.73913 37.0903 1.73913 35.6522V4.34783C1.73913 2.90973 2.90973 1.73913 4.34783 1.73913H35.6522C37.0903 1.73913 38.2609 2.90973 38.2609 4.34783V35.6522Z" fill="black"/>
</svg>
