<svg width="40" height="40" viewBox="0 0 40 40" fill="none" xmlns="http://www.w3.org/2000/svg">
<path d="M29.1723 0H10.8276C4.85717 0 0 4.85717 0 10.8276V29.1726C0 35.1428 4.85717 39.9999 10.8276 39.9999H29.1726C35.1428 39.9999 39.9999 35.1428 39.9999 29.1726V10.8276C39.9999 4.85717 35.1428 0 29.1723 0V0ZM37.655 29.1726C37.655 33.8497 33.8497 37.655 29.1723 37.655H10.8276C6.1502 37.655 2.34497 33.8497 2.34497 29.1726V10.8276C2.34497 6.1502 6.1502 2.34497 10.8276 2.34497H29.1726C33.8497 2.34497 37.655 6.1502 37.655 10.8276V29.1726Z" fill="black"/>
<path d="M19.9999 9.06279C13.969 9.06279 9.06274 13.9691 9.06274 20C9.06274 26.0308 13.969 30.9371 19.9999 30.9371C26.0308 30.9371 30.9371 26.0308 30.9371 20C30.9371 13.9691 26.0308 9.06279 19.9999 9.06279ZM19.9999 28.5922C15.2624 28.5922 11.4077 24.7378 11.4077 20C11.4077 15.2624 15.2624 11.4078 19.9999 11.4078C24.7378 11.4078 28.5921 15.2624 28.5921 20C28.5921 24.7378 24.7378 28.5922 19.9999 28.5922Z" fill="black"/>
<path d="M31.1987 5.17852C29.4165 5.17852 27.9669 6.6284 27.9669 8.41032C27.9669 10.1925 29.4165 11.6424 31.1987 11.6424C32.9809 11.6424 34.4308 10.1925 34.4308 8.41032C34.4308 6.6281 32.9809 5.17852 31.1987 5.17852ZM31.1987 9.29716C30.7098 9.29716 30.3119 8.89921 30.3119 8.41032C30.3119 7.92113 30.7098 7.52348 31.1987 7.52348C31.6879 7.52348 32.0859 7.92113 32.0859 8.41032C32.0859 8.89921 31.6879 9.29716 31.1987 9.29716Z" fill="black"/>
</svg>
