<svg width="40" height="40" viewBox="0 0 40 40" fill="none" xmlns="http://www.w3.org/2000/svg">
<g clip-path="url(#clip0)">
<path d="M39.6676 7.3081C39.3997 7.12645 39.0447 7.13629 38.7859 7.33156C38.4461 7.58888 37.8936 7.79323 37.2987 7.95066C38.8479 6.21445 38.8812 5.05497 38.8646 4.78856C38.8472 4.51307 38.6814 4.26861 38.4317 4.1513C38.1812 4.03323 37.8875 4.06199 37.6642 4.22395C35.9212 5.49091 34.185 5.75808 33.1527 5.78532C31.5678 4.26861 29.51 3.43759 27.3197 3.43759C22.6303 3.43759 18.8158 7.30355 18.8158 12.055C18.8158 12.4637 18.8445 12.8717 18.9013 13.2758C10.7743 13.1842 4.17461 5.39706 4.10649 5.31608C3.94755 5.12687 3.70688 5.02545 3.46014 5.0474C3.21341 5.06859 2.99317 5.20861 2.86981 5.42355C0.531156 9.48024 2.09631 13.0435 3.52675 15.0839C3.27396 14.9492 3.06886 14.816 2.94625 14.7259C2.71919 14.5564 2.4157 14.5284 2.15989 14.654C1.90483 14.7797 1.74211 15.037 1.73681 15.3208C1.67399 19.1868 3.53432 21.4013 5.28414 22.6259C5.05103 22.6039 4.81414 22.6902 4.65218 22.8666C4.47053 23.0641 4.4062 23.3434 4.48491 23.5999C5.69359 27.556 8.66118 28.9001 10.5495 29.3565C6.6669 32.3793 0.952718 31.406 0.8899 31.3954C0.544779 31.3341 0.204199 31.5158 0.0634257 31.8359C-0.0765906 32.1553 0.0187719 32.5299 0.297291 32.7419C4.39561 35.8699 9.29769 36.5624 12.8382 36.5624C15.5167 36.5624 17.4171 36.1658 17.5988 36.1257C35.5345 31.8753 36.0393 15.4464 35.9977 12.7543C39.3649 9.62328 39.8909 8.4305 39.9718 8.13533C40.0589 7.82275 39.9363 7.48974 39.6676 7.3081ZM34.7193 11.8757C34.5506 12.0308 34.462 12.2541 34.4772 12.4834C34.5248 13.21 35.4421 30.3427 17.265 34.6499C17.1825 34.6673 9.9569 36.1749 3.69325 33.0718C6.33994 32.9984 10.1348 32.3052 12.7784 29.3368C12.9782 29.1135 13.0267 28.7926 12.9025 28.5202C12.7799 28.25 12.5097 28.0767 12.2138 28.0767C12.2115 28.0767 12.2085 28.0767 12.2062 28.0767C12.1684 28.1009 8.19421 28.0721 6.37475 24.2917C7.10738 24.3333 8.01105 24.2879 8.73081 23.9564C9.0275 23.8194 9.20233 23.5084 9.166 23.1837C9.12967 22.8597 8.88899 22.5956 8.5696 22.5282C8.36601 22.4851 3.9415 21.4959 3.3224 16.6695C3.99372 16.9632 4.85274 17.2031 5.70192 17.0737C5.99406 17.0298 6.23322 16.8201 6.31572 16.5363C6.39822 16.2525 6.30815 15.9467 6.08488 15.753C5.89567 15.588 1.74059 11.8953 3.71066 7.13251C5.8495 9.37655 12.1843 15.208 19.8595 14.7676C20.0842 14.7547 20.2924 14.6412 20.4263 14.4595C20.5595 14.2779 20.6049 14.0463 20.5505 13.8276C20.4051 13.2486 20.331 12.6522 20.331 12.0558C20.331 8.13835 23.4673 4.95204 27.3219 4.95204C29.2072 4.95204 30.976 5.70434 32.3012 7.0712C32.4405 7.215 32.632 7.2975 32.8318 7.30128C33.634 7.31264 34.9525 7.21803 36.4419 6.62088C36.012 7.15597 35.3808 7.79702 34.4522 8.52661C34.1896 8.73323 34.0934 9.08668 34.2153 9.39774C34.3371 9.70956 34.652 9.90559 34.9805 9.87607C35.1568 9.86169 36.0559 9.78298 37.0724 9.56274C36.5169 10.1591 35.7577 10.9205 34.7193 11.8757Z" fill="black"/>
</g>
<defs>
<clipPath id="clip0">
<rect width="40" height="40" fill="white"/>
</clipPath>
</defs>
</svg>
