<svg width="40" height="40" viewBox="0 0 40 40" fill="none" xmlns="http://www.w3.org/2000/svg">
<g clip-path="url(#clip0)">
<path d="M20 21.2631C19.3528 21.2631 18.8281 21.7877 18.8281 22.4349V31.2539C18.8281 31.9011 19.3528 32.4258 20 32.4258C20.6472 32.4258 21.1719 31.9011 21.1719 31.2539V22.4349C21.1719 21.7877 20.6472 21.2631 20 21.2631Z" fill="black"/>
<path d="M13.7787 22.3384C13.7254 21.6934 13.1595 21.2138 12.5143 21.267C11.8693 21.3204 11.3896 21.8865 11.4429 22.5315L12.1717 31.3505C12.2251 31.9956 12.7912 32.4752 13.4362 32.4219C14.0812 32.3685 14.5609 31.8024 14.5076 31.1574L13.7787 22.3384Z" fill="black"/>
<path d="M27.4856 21.267C26.8404 21.2136 26.2745 21.6934 26.2212 22.3384L25.4923 31.1574C25.439 31.8024 25.9187 32.3685 26.5637 32.4218C26.5965 32.4246 26.6292 32.4259 26.6615 32.4259C27.2651 32.4259 27.7776 31.9626 27.8282 31.3504L28.557 22.5315C28.6104 21.8865 28.1306 21.3204 27.4856 21.267Z" fill="black"/>
<path d="M38.8272 15.8853C36.5093 15.8853 36.8119 15.8853 35.5162 15.8853L29.7818 2.8951C29.5944 2.47041 29.1739 2.1965 28.7097 2.1965H25.9046C25.2575 2.1965 24.7328 2.72119 24.7328 3.36838C24.7328 4.01557 25.2575 4.54025 25.9046 4.54025H27.9461L32.9543 15.8854H7.04402L12.0521 4.54025H14.0936C14.7407 4.54025 15.2654 4.01557 15.2654 3.36838C15.2654 2.72119 14.7407 2.1965 14.0936 2.1965H11.2885C10.8243 2.1965 10.4039 2.47049 10.2164 2.8951L4.48199 15.8853C3.01355 15.8853 4.72738 15.8853 1.1709 15.8853C0.523711 15.8853 -0.000976562 16.41 -0.000976562 17.0572C-0.000976562 17.7044 0.523711 18.2291 1.1709 18.2291H2.39941L5.30426 36.8127C5.3934 37.3831 5.88473 37.8036 6.46207 37.8036H33.5361C34.1134 37.8036 34.6047 37.3831 34.6939 36.8127L37.5987 18.2291H38.8272C39.4744 18.2291 39.9991 17.7044 39.9991 17.0572C39.9991 16.41 39.4744 15.8853 38.8272 15.8853ZM32.5332 35.4599H7.46504L4.77168 18.2291H35.2265L32.5332 35.4599Z" fill="black"/>
</g>
<defs>
<clipPath id="clip0">
<rect width="40" height="40" fill="white"/>
</clipPath>
</defs>
</svg>
