<svg width="40" height="40" viewBox="0 0 40 40" fill="none" xmlns="http://www.w3.org/2000/svg">
<g clip-path="url(#clip0)">
<path d="M8.00073 21.3284H9.33403V22.6617H8.00073V21.3284Z" fill="black"/>
<path d="M13.3341 35.9947C14.4386 35.9947 15.334 35.0993 15.334 33.9947C15.334 32.8902 14.4386 31.9948 13.3341 31.9948C12.2295 31.9948 11.3341 32.8902 11.3341 33.9947C11.3354 35.0988 12.23 35.9934 13.3341 35.9947ZM13.3341 33.3281C13.7022 33.3281 14.0007 33.6266 14.0007 33.9947C14.0007 34.3629 13.7022 34.6614 13.3341 34.6614C12.9659 34.6614 12.6674 34.3629 12.6674 33.9947C12.6678 33.6267 12.9661 33.3285 13.3341 33.3281Z" fill="black"/>
<path d="M4.66755 35.9947C5.77211 35.9947 6.6675 35.0993 6.6675 33.9947C6.6675 32.8902 5.77211 31.9948 4.66755 31.9948C3.563 31.9948 2.6676 32.8902 2.6676 33.9947C2.66885 35.0988 3.5635 35.9934 4.66755 35.9947ZM4.66755 33.3281C5.03571 33.3281 5.3342 33.6266 5.3342 33.9947C5.3342 34.3629 5.03571 34.6614 4.66755 34.6614C4.2994 34.6614 4.0009 34.3629 4.0009 33.9947C4.00132 33.6267 4.29956 33.3285 4.66755 33.3281Z" fill="black"/>
<path d="M4.66733 38.6613C6.5762 38.659 8.29174 37.4958 9.00055 35.7234C9.95561 38.1169 12.6701 39.283 15.0637 38.328C17.4572 37.3729 18.6232 34.6584 17.6682 32.2649C17.0569 30.7331 15.6826 29.6378 14.053 29.3838L11.3339 24.4889V10.4678C11.3334 8.95078 11.1574 7.4389 10.8094 5.96227C10.4605 4.48572 9.94178 3.05459 9.26355 1.69738C9.09888 1.36805 8.69848 1.23455 8.36915 1.39922C8.24015 1.46371 8.13549 1.56838 8.07099 1.69738C6.71303 4.42181 6.00446 7.42373 6.00063 10.4678V24.489L3.1757 29.5741C0.733925 30.3977 -0.577876 33.0448 0.24577 35.4866C0.885754 37.384 2.66496 38.6615 4.66733 38.6613ZM6.90294 29.8998L8.66723 27.9151L10.6689 30.1672C9.92045 30.6896 9.34063 31.419 9.00055 32.266C8.59606 31.2584 7.85475 30.4222 6.90294 29.8998ZM16.667 33.9947C16.667 35.8356 15.1746 37.328 13.3338 37.328C11.4929 37.328 10.0005 35.8356 10.0005 33.9947C10.0005 32.1539 11.4929 30.6615 13.3338 30.6615C15.1738 30.6636 16.6649 32.1547 16.667 33.9947ZM7.33393 10.4678C7.33676 8.1198 7.78942 5.79402 8.66723 3.61624C9.01538 4.47756 9.29754 5.3642 9.51121 6.26834C9.8357 7.64464 9.99994 9.05377 10.0005 10.4678V24.6616C10.0006 24.7749 10.0294 24.8863 10.0844 24.9854L12.5356 29.3979C12.3225 29.4345 12.1122 29.4862 11.9063 29.5523L7.33393 24.4081V10.4678ZM6.79352 25.8071L7.77558 26.9116L5.55139 29.4133C5.31498 29.3679 5.07532 29.3409 4.83474 29.3324L6.79352 25.8071ZM4.66733 30.6615C6.5082 30.6615 8.00058 32.1539 8.00058 33.9947C8.00058 35.8356 6.5082 37.328 4.66733 37.328C2.82646 37.328 1.33408 35.8356 1.33408 33.9947C1.33616 32.1547 2.82729 30.6636 4.66733 30.6615Z" fill="black"/>
<path d="M24.0633 16.5727C25.1049 14.8945 25.6785 12.6771 25.6785 10.3287C25.6785 7.98022 25.1048 5.76278 24.0633 4.08465C22.9603 2.30761 21.4603 1.32889 19.8395 1.32889C18.2188 1.32889 16.7188 2.30761 15.6157 4.08465C14.5742 5.76278 14.0006 7.98022 14.0006 10.3287C14.0006 12.6771 14.5742 14.8945 15.6157 16.5727C16.0386 17.2763 16.5865 17.8969 17.2324 18.4036L17.8338 22.017L17.3755 26.6052C17.2394 27.9661 18.2323 29.1797 19.5932 29.3158C20.9541 29.4519 22.1677 28.459 22.3038 27.0981C22.3202 26.9342 22.3202 26.7691 22.3038 26.6053L21.8455 22.017L22.4471 18.4035C23.0928 17.8967 23.6405 17.2762 24.0633 16.5727ZM20.6874 27.6188C20.2639 28.0871 19.541 28.1232 19.0727 27.6997C18.8035 27.4562 18.6659 27.0992 18.7022 26.7379L19.1696 22.0614C19.1756 22.0028 19.1736 21.9436 19.1639 21.8855L18.7107 19.165C19.4476 19.3829 20.232 19.3829 20.9689 19.165L20.5157 21.8855C20.5059 21.9436 20.504 22.0028 20.5099 22.0614L20.9774 26.738C21.0112 27.0596 20.9056 27.3802 20.6874 27.6188ZM19.8395 17.9951C18.6971 17.9951 17.5994 17.2402 16.7486 15.8695C15.8363 14.3997 15.3339 12.4319 15.3339 10.3287C15.3339 8.22538 15.8363 6.2576 16.7486 4.7878C17.5994 3.41709 18.6971 2.66219 19.8395 2.66219C20.982 2.66219 22.0797 3.41709 22.9305 4.7878C23.8427 6.2576 24.3452 8.22538 24.3452 10.3287C24.3452 12.4319 23.8427 14.3997 22.9305 15.8695C22.0797 17.2402 20.9819 17.9951 19.8395 17.9951Z" fill="black"/>
<path d="M17.8396 10.662H19.1729V11.9953H17.8396V10.662Z" fill="black"/>
<path d="M17.8396 13.3286H19.1729V14.6619H17.8396V13.3286Z" fill="black"/>
<path d="M17.8396 5.32877H19.1729V6.66207H17.8396V5.32877Z" fill="black"/>
<path d="M17.8396 7.99541H19.1729V9.32871H17.8396V7.99541Z" fill="black"/>
<path d="M20.5062 5.32877H21.8395V6.66207H20.5062V5.32877Z" fill="black"/>
<path d="M20.5062 7.99541H21.8395V9.32871H20.5062V7.99541Z" fill="black"/>
<path d="M20.5062 13.3286H21.8395V14.6619H20.5062V13.3286Z" fill="black"/>
<path d="M20.5062 10.662H21.8395V11.9953H20.5062V10.662Z" fill="black"/>
<path d="M36.3847 24.5161V4.10932C36.3835 3.00535 35.4887 2.11062 34.3848 2.10938H29.0516C28.6834 2.10938 28.3849 2.40787 28.3849 2.77603C28.3849 3.14418 28.6834 3.44267 29.0516 3.44267H32.3848V4.77597H29.0516C28.6834 4.77597 28.3849 5.07447 28.3849 5.44263C28.3849 5.81078 28.6834 6.10927 29.0516 6.10927H32.3848V7.44257H29.0516C28.6834 7.44257 28.3849 7.74107 28.3849 8.10922C28.3849 8.47738 28.6834 8.77588 29.0516 8.77588H32.3848V10.1092H29.0516C28.6834 10.1092 28.3849 10.4077 28.3849 10.7758C28.3849 11.144 28.6834 11.4425 29.0516 11.4425H32.3848V12.7758H29.0516C28.6834 12.7758 28.3849 13.0743 28.3849 13.4424C28.3849 13.8106 28.6834 14.1091 29.0516 14.1091H32.3848V15.4424H29.0516C28.6834 15.4424 28.3849 15.7409 28.3849 16.109C28.3849 16.4772 28.6834 16.7757 29.0516 16.7757H32.3848V18.109H29.0516C28.6834 18.109 28.3849 18.4075 28.3849 18.7756C28.3849 19.1438 28.6834 19.4423 29.0516 19.4423H32.3848V20.7756H29.0516C28.6834 20.7756 28.3849 21.0741 28.3849 21.4422C28.3849 21.8104 28.6834 22.1089 29.0516 22.1089H32.3848V23.4422C27.9639 23.4394 24.3778 27.021 24.375 31.442C24.3723 35.8629 27.9538 39.449 32.3748 39.4518C36.7957 39.4545 40.3819 35.8729 40.3846 31.452C40.3864 28.5914 38.8616 25.9473 36.3847 24.5161ZM33.7181 3.44267H34.3848C34.7527 3.44309 35.051 3.74133 35.0514 4.10932V23.8997C34.6178 23.746 34.1718 23.6303 33.7181 23.5539V3.44267ZM32.3848 38.1085C28.703 38.1085 25.7183 35.1238 25.7183 31.442C25.7183 27.7602 28.703 24.7755 32.3848 24.7755C36.0666 24.7755 39.0513 27.7602 39.0513 31.442C39.0471 35.1221 36.0649 38.1043 32.3848 38.1085Z" fill="black"/>
<path d="M33.9143 31.4137C33.5941 30.3566 32.4775 29.7592 31.4204 30.0794C30.7806 30.2732 30.2798 30.7739 30.0861 31.4137C29.0288 31.7334 28.4309 32.8496 28.7505 33.9069C29.0059 34.7515 29.7846 35.3289 30.6669 35.328H30.6988H33.3335C34.4381 35.3285 35.3339 34.4335 35.3343 33.3289C35.3346 32.4474 34.7579 31.6696 33.9143 31.414V31.4137ZM33.3335 33.9947H30.6927H30.6794C30.5706 33.9965 30.463 33.9717 30.3659 33.9226C30.0376 33.757 29.9058 33.3565 30.0714 33.0282C30.1849 32.8033 30.4156 32.6617 30.6675 32.6623C31.0355 32.6619 31.3336 32.3636 31.3336 31.9956V31.9899C31.3349 31.6217 31.6345 31.3243 32.0026 31.3257C32.3708 31.327 32.6682 31.6266 32.6669 31.9948C32.6669 32.3629 32.9654 32.6614 33.3335 32.6614C33.7017 32.6614 34.0002 32.9599 34.0002 33.3281C34.0002 33.6962 33.7017 33.9947 33.3335 33.9947Z" fill="black"/>
<path d="M32.0001 29.3282C32.9206 29.3282 33.6668 28.582 33.6668 27.6616C33.6668 26.7411 32.9206 25.9949 32.0001 25.9949C31.0796 25.9949 30.3335 26.7411 30.3335 27.6616C30.3346 28.5815 31.0801 29.3271 32.0001 29.3282ZM32.0001 27.3282C32.1842 27.3282 32.3335 27.4775 32.3335 27.6616C32.3335 27.8456 32.1842 27.9949 32.0001 27.9949C31.816 27.9949 31.6668 27.8456 31.6668 27.6616C31.6668 27.4775 31.816 27.3282 32.0001 27.3282Z" fill="black"/>
<path d="M30.0003 29.6615C30.0003 28.741 29.2541 27.9949 28.3336 27.9949C27.4131 27.9949 26.667 28.741 26.667 29.6615C26.667 30.582 27.4131 31.3281 28.3336 31.3281C29.2536 31.3271 29.9992 30.5815 30.0003 29.6615ZM28.3336 29.9948C28.1495 29.9948 28.0003 29.8456 28.0003 29.6615C28.0003 29.4774 28.1495 29.3282 28.3336 29.3282C28.5177 29.3282 28.6669 29.4774 28.6669 29.6615C28.6669 29.8456 28.5177 29.9948 28.3336 29.9948Z" fill="black"/>
<path d="M34.0001 29.6615C34.0001 30.582 34.7463 31.3281 35.6668 31.3281C36.5872 31.3281 37.3334 30.582 37.3334 29.6615C37.3334 28.741 36.5872 27.9949 35.6668 27.9949C34.7468 27.996 34.0012 28.7415 34.0001 29.6615ZM36.0001 29.6615C36.0001 29.8456 35.8508 29.9948 35.6668 29.9948C35.4827 29.9948 35.3334 29.8456 35.3334 29.6615C35.3334 29.4774 35.4827 29.3282 35.6668 29.3282C35.8508 29.3282 36.0001 29.4774 36.0001 29.6615Z" fill="black"/>
</g>
<defs>
<clipPath id="clip0">
<rect width="40" height="40" fill="white"/>
</clipPath>
</defs>
</svg>
