<svg width="40" height="40" viewBox="0 0 40 40" fill="none" xmlns="http://www.w3.org/2000/svg">
<g clip-path="url(#clip0)">
<path d="M38.6503 6.62214C37.7388 5.61106 36.4738 4.98863 35.1165 4.88339C35.0114 3.52614 34.3889 2.26112 33.3778 1.34964C32.3944 0.477085 31.1243 -0.00292951 29.8097 0.00116273C28.495 0.00525497 27.2279 0.493168 26.25 1.37182C25.513 2.03894 24.979 2.90033 24.7093 3.85713C24.4396 4.81394 24.4452 5.8274 24.7253 6.7812C24.9242 7.42701 24.9464 8.11433 24.7896 8.77163C24.6328 9.42894 24.3027 10.0322 23.8337 10.5187L10.5175 23.8337C10.0312 24.3027 9.42817 24.6327 8.77107 24.7895C8.11397 24.9463 7.42685 24.9241 6.78123 24.7253C5.82744 24.4451 4.81396 24.4395 3.85714 24.7092C2.90032 24.9789 2.03893 25.5129 1.37186 26.2499C0.493161 27.2278 0.0052169 28.4949 0.00112458 29.8095C-0.00296773 31.1241 0.477079 32.3942 1.34967 33.3774C2.26102 34.3888 3.52611 35.0112 4.88342 35.1162C4.94185 35.8566 5.15498 36.5766 5.50905 37.2295C5.86312 37.8824 6.35025 38.4537 6.93894 38.9066C7.52764 39.3595 8.20481 39.6838 8.92668 39.8585C9.64856 40.0333 10.3991 40.0547 11.1297 39.9213C11.8604 39.7879 12.5549 39.5026 13.1684 39.084C13.7819 38.6653 14.3008 38.1226 14.6914 37.4909C15.0821 36.8592 15.3358 36.1526 15.4363 35.4167C15.5368 34.6808 15.4817 33.932 15.2747 33.2187C15.0758 32.5729 15.0535 31.8856 15.2103 31.2283C15.3671 30.571 15.6972 29.9677 16.1662 29.4812L29.4825 16.1662C29.969 15.6971 30.5723 15.367 31.2297 15.2102C31.8871 15.0534 32.5744 15.0757 33.2203 15.2746C34.1739 15.5546 35.187 15.56 36.1436 15.2904C37.1001 15.0207 37.9612 14.4868 38.6281 13.7499C39.5068 12.7721 39.9947 11.5049 39.9988 10.1903C40.0029 8.87563 39.5228 7.60548 38.6503 6.62214ZM37.82 13.0128C37.2901 13.598 36.606 14.022 35.8462 14.2362C35.0864 14.4505 34.2816 14.4462 33.524 14.224C32.6902 13.9707 31.8038 13.9456 30.9569 14.1512C30.1101 14.3568 29.3339 14.7856 28.709 15.3931L15.3931 28.7093C14.7854 29.334 14.3564 30.1102 14.1508 30.9571C13.9452 31.804 13.9705 32.6905 14.224 33.5243C14.4464 34.2819 14.4506 35.0867 14.2363 35.8466C14.022 36.6065 13.5979 37.2905 13.0125 37.8203C12.4021 38.3768 11.6416 38.7417 10.8255 38.8695C10.0094 38.9973 9.17378 38.8823 8.42251 38.5389C7.67124 38.1955 7.0375 37.6388 6.60012 36.9381C6.16273 36.2374 5.94099 35.4235 5.96248 34.5978C5.96419 34.5248 5.95131 34.4523 5.9246 34.3844C5.89789 34.3166 5.85789 34.2547 5.80694 34.2025C5.756 34.1503 5.69514 34.1088 5.62794 34.0805C5.56073 34.0521 5.48854 34.0375 5.41561 34.0374H5.40217C4.79349 34.0541 4.18847 33.9382 3.62902 33.6978C3.06957 33.4574 2.56906 33.0983 2.16217 32.6453C1.46951 31.8647 1.08845 30.8565 1.09167 29.813C1.0949 28.7695 1.4822 27.7637 2.17967 26.9874C2.7094 26.402 3.39345 25.9778 4.15331 25.7635C4.91318 25.5492 5.71806 25.5535 6.47561 25.7759C7.30938 26.0296 8.19594 26.0549 9.04285 25.8493C9.88976 25.6437 10.666 25.2146 11.2906 24.6068L24.6069 11.2906C25.2145 10.6659 25.6435 9.88964 25.8491 9.04275C26.0546 8.19586 26.0293 7.30933 25.7756 6.47557C25.5534 5.71802 25.5492 4.91318 25.7635 4.15335C25.9778 3.39353 26.4019 2.70947 26.9872 2.17964C27.5976 1.62314 28.3582 1.25835 29.1742 1.13063C29.9903 1.0029 30.826 1.11787 31.5772 1.46124C32.3285 1.80462 32.9623 2.36124 33.3998 3.06191C33.8372 3.76258 34.0591 4.57638 34.0378 5.40214C34.0359 5.47618 34.0491 5.54983 34.0766 5.6186C34.1041 5.68736 34.1454 5.74981 34.1978 5.80214C34.2503 5.85435 34.3128 5.89545 34.3815 5.923C34.4502 5.95054 34.5238 5.96396 34.5978 5.96245C35.4236 5.94096 36.2375 6.16272 36.9382 6.60015C37.6389 7.03758 38.1956 7.67137 38.539 8.42268C38.8824 9.174 38.9973 10.0097 38.8694 10.8258C38.7416 11.6419 38.3766 12.4024 37.82 13.0128Z" fill="black"/>
<path d="M35.5094 8.7187C35.456 8.76679 35.4126 8.82492 35.3818 8.88977C35.3509 8.95462 35.333 9.02492 35.3293 9.09666C35.3256 9.1684 35.3361 9.24016 35.3601 9.30786C35.3841 9.37555 35.4213 9.43785 35.4694 9.4912C35.6321 9.68309 35.7211 9.92673 35.7204 10.1784C35.7196 10.43 35.6292 10.6731 35.4653 10.864C35.3347 11.0068 35.1669 11.1104 34.9807 11.1632C34.7945 11.2159 34.5973 11.2156 34.4112 11.1624C34.2726 11.1244 34.1245 11.1424 33.9991 11.2127C33.8737 11.2829 33.7809 11.3998 33.741 11.5379C33.7011 11.676 33.7171 11.8243 33.7857 11.9507C33.8543 12.077 33.9699 12.1713 34.1075 12.2131C34.3013 12.2684 34.5019 12.2963 34.7034 12.2959C34.9993 12.2976 35.2921 12.2366 35.5627 12.1169C35.8333 11.9972 36.0754 11.8216 36.2731 11.6015C36.6183 11.2087 36.8094 10.7042 36.811 10.1813C36.8126 9.65839 36.6246 9.15265 36.2819 8.75776C36.1846 8.6502 36.0486 8.58567 35.9037 8.57834C35.7588 8.57102 35.617 8.6215 35.5094 8.7187Z" fill="black"/>
</g>
<defs>
<clipPath id="clip0">
<rect width="40" height="40" fill="white"/>
</clipPath>
</defs>
</svg>
