<svg width="40" height="40" viewBox="0 0 40 40" fill="none" xmlns="http://www.w3.org/2000/svg">
<path d="M13.6417 7.86239C13.622 7.9207 13.6139 7.98232 13.618 8.04375C13.622 8.10517 13.6382 8.16519 13.6654 8.22039C13.6927 8.27558 13.7305 8.32486 13.7769 8.36542C13.8232 8.40598 13.877 8.43702 13.9353 8.45677L15.1463 8.86677C15.7561 9.07325 16.423 9.02902 17.0003 8.74381C17.5775 8.4586 18.0179 7.95576 18.2244 7.34591C18.2643 7.22817 18.2558 7.0994 18.2007 6.98793C18.1457 6.87647 18.0486 6.79143 17.9309 6.75153L14.8645 5.71318C14.8062 5.69343 14.7445 5.68536 14.6831 5.68943C14.6217 5.6935 14.5616 5.70963 14.5064 5.7369C14.4513 5.76417 14.402 5.80204 14.3614 5.84836C14.3209 5.89468 14.2898 5.94853 14.2701 6.00685L13.6417 7.86239ZM15.0077 6.75146L17.1153 7.4652C16.9263 7.71506 16.6635 7.89911 16.364 7.99129C16.0646 8.08347 15.7438 8.0791 15.447 7.9788L14.68 7.7188L15.0077 6.75146Z" fill="black"/>
<path d="M8.98443 10.0098L9.71341 10.2566C9.71529 10.531 9.80267 10.7981 9.9634 11.0206C10.1241 11.2431 10.3502 11.41 10.6102 11.498C10.8702 11.5861 11.1511 11.5909 11.414 11.5119C11.6768 11.4328 11.9085 11.2738 12.0768 11.057L14.8473 11.9952C14.8491 12.2697 14.9365 12.5369 15.0972 12.7595C15.2579 12.9821 15.4841 13.149 15.7441 13.2371C16.0042 13.3251 16.2852 13.3299 16.5481 13.2508C16.811 13.1717 17.0427 13.0125 17.211 12.7956L17.9442 13.0438C18.0619 13.0837 18.1907 13.0752 18.3021 13.0201C18.4136 12.965 18.4986 12.868 18.5385 12.7502C18.6225 12.5022 18.6568 12.2401 18.6394 11.9788C18.6221 11.7175 18.5534 11.4622 18.4374 11.2275C18.3214 10.9927 18.1603 10.7831 17.9632 10.6106C17.7662 10.4382 17.5371 10.3062 17.2891 10.2223L17.1049 10.1598C17.2817 10.0992 17.4546 10.0274 17.6223 9.94493C18.1356 9.69306 18.5939 9.34186 18.9706 8.91168C19.3473 8.48149 19.6349 7.98086 19.8168 7.43876L20.1485 6.46024C20.1883 6.34251 20.1798 6.21376 20.1248 6.10231C20.0697 5.99087 19.9727 5.90584 19.855 5.86594L15.8886 4.52274C16.1436 4.21808 16.3212 3.85627 16.4062 3.46814C16.4912 3.08001 16.4811 2.67708 16.3768 2.2937C16.2724 1.91032 16.0769 1.55787 15.8069 1.26638C15.5368 0.974898 15.2003 0.75303 14.8261 0.619694C14.3166 0.438423 13.7617 0.429629 13.2468 0.594665C12.7318 0.759701 12.2854 1.08942 11.9762 1.53305L10.6464 1.32133C10.5371 1.30396 10.4252 1.32579 10.3305 1.38299C10.2357 1.44018 10.1643 1.52904 10.1288 1.63383C10.0377 1.9077 10.0568 2.20626 10.1819 2.46633C10.3071 2.7264 10.5285 2.92757 10.7993 3.02727L11.5625 3.30282C11.5995 3.55195 11.6744 3.79394 11.7848 4.02032L11.5726 4.64688C11.359 5.27812 11.2933 5.95002 11.3808 6.61067C11.4682 7.27132 11.7064 7.90302 12.0768 8.45696L11.219 8.16649C10.7182 7.99749 10.1707 8.03407 9.6968 8.26821C9.22288 8.50234 8.86118 8.91491 8.69107 9.4154C8.65117 9.53312 8.65966 9.66187 8.71467 9.77333C8.76968 9.88479 8.86672 9.96984 8.98443 10.0098ZM17.597 11.6426C17.6481 11.7458 17.682 11.8566 17.6975 11.9707L17.4872 11.8995C17.4717 11.669 17.3963 11.4465 17.2684 11.2541C17.4081 11.3548 17.5209 11.4883 17.5968 11.6428L17.597 11.6426ZM16.5326 12.1071C16.5083 12.1794 16.4631 12.2428 16.4027 12.2893C16.3423 12.3359 16.2694 12.3635 16.1934 12.3686C16.1173 12.3737 16.0414 12.3561 15.9753 12.3181C15.9092 12.28 15.8559 12.2232 15.8221 12.1549C15.7884 12.0865 15.7756 12.0097 15.7856 11.9341C15.7955 11.8585 15.8276 11.7875 15.8779 11.7302C15.9282 11.6729 15.9943 11.6318 16.068 11.6121C16.1417 11.5924 16.2195 11.595 16.2917 11.6195C16.3397 11.6354 16.3842 11.6607 16.4223 11.694C16.4605 11.7272 16.4917 11.7677 16.5142 11.8131C16.5366 11.8584 16.5497 11.9078 16.5529 11.9584C16.556 12.0089 16.5491 12.0595 16.5325 12.1073L16.5326 12.1071ZM12.4601 4.94758L12.738 4.12727C12.7599 4.06251 12.7674 3.99373 12.76 3.92577C12.7525 3.8578 12.7303 3.79229 12.6948 3.73383C12.5455 3.48806 12.4686 3.20508 12.4731 2.91752C12.4775 2.62996 12.5631 2.34951 12.72 2.10848C12.8769 1.86744 13.0987 1.67564 13.3598 1.55516C13.621 1.43469 13.9109 1.39044 14.1961 1.42752C14.4813 1.46459 14.7502 1.58149 14.9718 1.76473C15.1935 1.94798 15.3589 2.19011 15.4489 2.46325C15.539 2.73638 15.55 3.0294 15.4808 3.30855C15.4116 3.58769 15.2649 3.8416 15.0577 4.04102C14.9618 4.13235 14.8912 4.24685 14.8525 4.37347C14.8138 4.50009 14.8084 4.63455 14.8369 4.76385C14.8653 4.89315 14.9267 5.01293 15.0149 5.11161C15.1032 5.21029 15.2154 5.28454 15.3407 5.32719L19.1104 6.60368L18.9293 7.13844C18.632 7.98747 18.0116 8.68488 17.203 9.07915C16.3944 9.47343 15.4629 9.53273 14.6109 9.24417C13.7588 8.95562 13.055 8.34251 12.6524 7.53804C12.2498 6.73358 12.1809 5.80274 12.4606 4.94774L12.4601 4.94758ZM15.8111 10.7115C15.563 10.7808 15.3406 10.921 15.1711 11.115L12.3537 10.1609C12.3371 9.90393 12.2457 9.65738 12.0908 9.45165L15.8111 10.7115ZM10.6696 10.122C10.6858 10.0741 10.7112 10.0299 10.7445 9.99195C10.7777 9.95395 10.8182 9.92287 10.8634 9.9005C10.9087 9.87812 10.958 9.86488 11.0083 9.86153C11.0587 9.85818 11.1093 9.86479 11.1571 9.88098C11.205 9.89717 11.2491 9.92262 11.2871 9.95589C11.3251 9.98915 11.3562 10.0296 11.3786 10.0748C11.401 10.1201 11.4142 10.1694 11.4175 10.2197C11.4209 10.2701 11.4143 10.3207 11.3981 10.3685C11.3654 10.4651 11.2956 10.5448 11.2042 10.59C11.1128 10.6352 11.0071 10.6422 10.9105 10.6095C10.8139 10.5768 10.7343 10.507 10.6891 10.4156C10.6439 10.3241 10.6369 10.2185 10.6696 10.1219V10.122ZM10.1112 9.1079C10.2625 9.03293 10.4297 8.99554 10.5985 8.99891C10.3822 9.07435 10.189 9.20451 10.0379 9.37672L9.83239 9.30711C9.91387 9.22597 10.0081 9.15868 10.1112 9.1079Z" fill="black"/>
<path d="M13.6998 3.3039C13.8311 3.30384 13.9592 3.26269 14.066 3.18621C14.1728 3.10973 14.2529 3.00175 14.2953 2.87741V2.87702C14.3379 2.75106 14.3395 2.61482 14.2998 2.48791C14.26 2.361 14.1811 2.24997 14.0742 2.1708C13.9674 2.09163 13.8382 2.04841 13.7052 2.04735C13.5722 2.0463 13.4423 2.08746 13.3342 2.16492C13.2261 2.24238 13.1454 2.35214 13.1037 2.4784C13.0619 2.60466 13.0613 2.74091 13.1019 2.86753C13.1425 2.99416 13.2223 3.10463 13.3297 3.18305C13.4371 3.26146 13.5666 3.30377 13.6996 3.3039H13.6998Z" fill="black"/>
<path d="M25.456 5.26637C25.4624 5.27184 25.4689 5.27723 25.4756 5.28247C25.5296 5.32564 25.5903 5.3597 25.6553 5.38333C25.7207 5.40573 25.7892 5.41745 25.8584 5.41801H25.8667C25.8738 5.41801 25.881 5.41801 25.8881 5.41754C27.9801 5.32176 29.0849 4.14512 29.2519 3.02145C29.2519 3.02035 29.2519 3.01918 29.2524 3.01801C29.3719 2.17074 28.9529 1.42535 28.2097 1.16317C27.8748 1.05326 27.5171 1.03155 27.1713 1.10012C26.946 0.821283 26.6498 0.608124 26.3138 0.482931C25.5653 0.218712 24.7709 0.542931 24.3373 1.28879C23.7589 2.27903 23.8804 3.89309 25.456 5.26637ZM25.1476 1.76067C25.3107 1.48012 25.5397 1.32863 25.7861 1.32863C25.8598 1.32899 25.9328 1.34191 26.0021 1.36684C26.2087 1.43973 26.4128 1.61973 26.5922 1.88731C26.6479 1.97032 26.7286 2.03337 26.8227 2.06724C26.9167 2.10111 27.0191 2.10404 27.1149 2.07559C27.4171 1.9859 27.6951 1.97574 27.8981 2.04731C28.2225 2.16176 28.3819 2.47504 28.3246 2.88551C28.2162 3.6077 27.4489 4.36567 25.9757 4.47332C24.8931 3.4759 24.774 2.40004 25.1476 1.76067Z" fill="black"/>
<path d="M31.5115 15.8835C30.9328 16.8738 31.0542 18.4878 32.6298 19.8612C32.6365 19.867 32.6434 19.8727 32.6504 19.8781C32.7585 19.9656 32.8934 20.0132 33.0325 20.0128H33.0409C33.048 20.0128 33.0551 20.0128 33.0623 20.0124C35.1543 19.9166 36.2591 18.7399 36.426 17.6163C36.426 17.6152 36.426 17.614 36.4266 17.6128C36.546 16.7656 36.127 16.0202 35.3839 15.7581C35.049 15.648 34.6913 15.6263 34.3455 15.695C34.1201 15.4162 33.8239 15.203 33.488 15.0778C32.7393 14.8134 31.9454 15.1378 31.5115 15.8835ZM33.176 15.9616C33.3826 16.0345 33.5866 16.2144 33.766 16.482C33.8217 16.5651 33.9024 16.6281 33.9965 16.662C34.0905 16.6959 34.1929 16.6988 34.2887 16.6704C34.5912 16.5806 34.8693 16.5706 35.072 16.6421C35.3964 16.7566 35.5558 17.0699 35.4984 17.4803C35.3901 18.2024 34.6227 18.9604 33.1495 19.0681C32.0669 18.0706 31.9479 16.9948 32.3214 16.3554C32.4845 16.0749 32.7135 15.9234 32.96 15.9234C33.0337 15.9237 33.1067 15.9367 33.176 15.9617V15.9616Z" fill="black"/>
<path d="M6.85032 18.546C6.97194 18.546 7.09694 18.5417 7.22532 18.533C7.23407 18.5324 7.24259 18.5316 7.25118 18.5305C7.38955 18.516 7.51871 18.4543 7.61696 18.3558C7.62423 18.3489 7.63134 18.3416 7.63813 18.3342C9.0497 16.7873 8.99892 15.1738 8.3222 14.2613C8.3216 14.2603 8.32095 14.2595 8.32024 14.2586C7.80548 13.5749 6.98204 13.3441 6.27142 13.6842C5.95688 13.8434 5.68867 14.081 5.49267 14.374C5.13606 14.3361 4.77582 14.3947 4.44962 14.5437C3.7336 14.8862 3.4011 15.6772 3.62149 16.5111C3.89485 17.5524 4.9922 18.546 6.85032 18.546ZM4.85392 15.3898C4.99027 15.3293 5.13839 15.2999 5.28751 15.3038C5.40561 15.3048 5.52335 15.3171 5.63907 15.3407C5.73713 15.3601 5.83881 15.3475 5.92925 15.305C6.01969 15.2624 6.09417 15.1921 6.14181 15.1042C6.2922 14.827 6.48181 14.6231 6.67563 14.5304C6.98626 14.382 7.32017 14.4913 7.56985 14.8215C8.00392 15.4087 7.99735 16.4873 7.03173 17.6052C5.56024 17.6654 4.71595 16.9889 4.52798 16.2727C4.42118 15.8681 4.54298 15.5381 4.85392 15.3894V15.3898Z" fill="black"/>
<path d="M28.7752 10.9C28.6067 10.8167 28.4121 10.8037 28.2341 10.8639C28.0561 10.9241 27.9093 11.0526 27.826 11.221L22.791 21.4025C22.6783 21.6305 22.6607 21.894 22.7423 22.135C22.8238 22.376 22.9977 22.5747 23.2257 22.6875L25.4579 23.7914C25.686 23.9041 25.9495 23.9216 26.1904 23.8402C26.4314 23.7587 26.6302 23.5848 26.7431 23.3568L27.9967 20.8217L32.151 22.2209L22.0398 27.2702L11.9281 22.2207L15.5041 21.015C16.0768 21.8012 16.5836 22.6335 17.0192 23.5032C17.0795 23.626 17.1583 23.7388 17.253 23.8375C17.3786 23.9681 17.5299 24.0713 17.6972 24.1407C17.8646 24.2101 18.0445 24.2442 18.2256 24.2408C18.4068 24.2375 18.5853 24.1968 18.75 24.1213C18.9147 24.0457 19.062 23.937 19.1828 23.8019C19.3035 23.6668 19.3951 23.5083 19.4517 23.3362C19.5083 23.1641 19.5288 22.9821 19.5118 22.8017C19.4949 22.6213 19.4409 22.4464 19.3532 22.2878C19.2655 22.1293 19.1461 21.9905 19.0023 21.8803C18.2375 21.306 17.5134 20.6795 16.8352 20.0053L16.0778 19.2396C16.3014 18.9195 16.4584 18.5577 16.5395 18.1757C16.6206 17.7937 16.6242 17.3993 16.55 17.0159C16.4758 16.6325 16.3254 16.2679 16.1076 15.9437C15.8898 15.6195 15.6092 15.3424 15.2823 15.1288C15.2694 15.1195 15.2559 15.1107 15.2421 15.1027C14.8595 14.8621 14.4261 14.7136 13.9763 14.6691C13.5265 14.6245 13.0725 14.6851 12.6501 14.8461C12.2277 15.007 11.8485 15.2639 11.5423 15.5964C11.2362 15.929 11.0115 16.3281 10.8859 16.7624C10.7604 17.1966 10.7375 17.6541 10.819 18.0987C10.9006 18.5433 11.0843 18.9629 11.3557 19.3244C11.6271 19.6859 11.9788 19.9793 12.383 20.1816C12.7872 20.384 13.2329 20.4896 13.6849 20.4902C13.9175 20.4901 14.1492 20.4619 14.375 20.4063L10.5606 21.6925C10.4462 21.7307 10.351 21.8116 10.2949 21.9184L7.99219 26.3004C7.93453 26.4101 7.92265 26.5382 7.95915 26.6566C7.99565 26.775 8.07755 26.8742 8.18696 26.9324L10.4663 28.1444V33.7714C10.4664 33.8595 10.4912 33.9458 10.538 34.0204C10.5848 34.0951 10.6517 34.155 10.731 34.1933L21.8359 39.5625C21.8996 39.5933 21.9693 39.6093 22.04 39.6093C22.1106 39.6093 22.1804 39.5933 22.244 39.5625L33.3487 34.1933C33.428 34.155 33.4949 34.0951 33.5417 34.0205C33.5886 33.9458 33.6134 33.8595 33.6134 33.7714V28.1444L35.8928 26.9324C36.0022 26.8742 36.0841 26.775 36.1206 26.6566C36.1571 26.5382 36.1452 26.4101 36.0876 26.3004L33.7843 21.9186C33.7283 21.8117 33.6331 21.7308 33.5187 21.6925L33.5137 21.6909H33.5126L28.416 19.9743L31.778 13.1758C31.8612 13.0074 31.8742 12.8128 31.814 12.6348C31.7537 12.4568 31.6253 12.31 31.4569 12.2268L31.1394 12.0697L33.3601 7.57917C33.4152 7.46774 33.4238 7.33898 33.384 7.22121C33.3441 7.10345 33.2592 7.00632 33.1477 6.95121L31.9412 6.35457C31.8297 6.29945 31.701 6.29086 31.5832 6.33068C31.4655 6.37051 31.3683 6.45548 31.3132 6.56691L29.0924 11.0575L28.7752 10.9ZM18.4324 22.6246C18.4775 22.6591 18.5142 22.7033 18.5399 22.754C18.5656 22.8047 18.5796 22.8605 18.5809 22.9173C18.5821 22.9741 18.5706 23.0304 18.5471 23.0822C18.5237 23.1339 18.4889 23.1797 18.4453 23.2162C18.3715 23.2765 18.2779 23.3072 18.1827 23.3022C18.0875 23.2973 17.9976 23.2571 17.9304 23.1895C17.9026 23.1606 17.8793 23.1276 17.8615 23.0916C17.5573 22.4758 17.2155 21.8793 16.8381 21.3055C17.3031 21.7278 17.8242 22.1586 18.4324 22.6246ZM14.8373 20.2504C14.8677 20.2372 14.8983 20.2246 14.9284 20.2103L14.9338 20.2181L14.8373 20.2504ZM11.7132 17.4028C11.755 16.9088 11.9808 16.4486 12.3458 16.1132C12.7107 15.7778 13.1884 15.5917 13.6841 15.5918C13.9662 15.5917 14.2451 15.6516 14.5023 15.7675C14.4038 16.3121 14.1464 16.8155 13.7623 17.2141C13.6284 17.3527 13.4807 17.4773 13.3215 17.586C12.8635 17.8976 12.3235 18.0665 11.7696 18.0714C11.7129 17.8533 11.6939 17.6272 11.7132 17.4028ZM12.2864 18.9696C12.847 18.8876 13.3816 18.6792 13.8498 18.3602C14.0617 18.2157 14.2583 18.0499 14.4365 17.8655C14.8298 17.4575 15.1252 16.9654 15.3002 16.4264C15.5683 16.802 15.6962 17.2596 15.6615 17.7197C15.6269 18.1799 15.4319 18.6132 15.1106 18.9443C15.0634 18.9932 15.0139 19.0396 14.9621 19.0834C14.9361 19.1054 14.9095 19.1267 14.8823 19.1473C14.8552 19.1678 14.8276 19.1877 14.8001 19.2065C14.4196 19.4675 13.9597 19.5867 13.5003 19.5434C13.041 19.5001 12.6114 19.297 12.2864 18.9696ZM9.03907 26.3236L10.9118 22.7611L21.4109 28.0041L19.476 31.8736L9.03907 26.3236ZM21.571 38.3933L11.4039 33.4774V28.6429L19.4602 32.927C19.5155 32.9564 19.576 32.9744 19.6383 32.98C19.7006 32.9856 19.7634 32.9787 19.8229 32.9596C19.8825 32.9406 19.9377 32.9098 19.9852 32.8692C20.0327 32.8285 20.0716 32.7787 20.0995 32.7228L21.571 29.7797V38.3933ZM32.6758 33.4774L22.5085 38.3933V29.7797L23.9801 32.7228C24.0081 32.7787 24.0469 32.8285 24.0945 32.8692C24.142 32.9099 24.1971 32.9406 24.2567 32.9597C24.3163 32.9787 24.3791 32.9856 24.4414 32.98C24.5037 32.9744 24.5642 32.9564 24.6195 32.927L32.6758 28.6429V33.4774ZM35.0406 26.3236L24.6037 31.8736L22.6688 28.004L33.1679 22.7611L35.0406 26.3236ZM31.9459 7.40214L32.3121 7.58324L31.7856 8.648L31.4193 8.46691L31.9459 7.40214ZM24.0773 22.0625L25.1756 21.5533L25.4377 22.7353L24.0773 22.0625ZM26.2761 22.1861L26.0004 20.9423L30.1078 12.6049L30.8362 12.9651L26.2761 22.1861ZM31.0037 9.30707L31.37 9.48816L30.2992 11.6536L29.9329 11.4725L31.0037 9.30707ZM25.1599 20.5273L24.0048 21.0628L28.5649 11.8416L29.2676 12.1891L25.1599 20.5273Z" fill="black"/>
<path d="M24.0207 12.8058C24.1718 12.8057 24.3228 12.795 24.4725 12.7737C25.2935 12.6567 26.0369 12.2256 26.5463 11.5713C27.0557 10.917 27.2913 10.0906 27.2034 9.26601C27.1155 8.44147 26.711 7.68321 26.0752 7.15097C25.4393 6.61873 24.6217 6.35405 23.7946 6.41268C22.9674 6.47131 22.1953 6.84868 21.6409 7.4653C21.0865 8.08191 20.793 8.88964 20.8223 9.71834C20.8516 10.547 21.2014 11.332 21.798 11.9079C22.3946 12.4838 23.1914 12.8057 24.0207 12.8058ZM25.8336 10.9637C25.5597 11.3299 25.1807 11.6039 24.7471 11.7492C24.8322 11.4152 25.0077 11.111 25.2542 10.8701C25.5011 10.6294 25.8108 10.4629 26.1478 10.3898C26.0713 10.5952 25.9655 10.7885 25.8336 10.9637ZM26.2656 9.28459C26.2721 9.33029 26.2767 9.37592 26.2804 9.42154C25.6484 9.48187 25.0559 9.75574 24.6004 10.198C24.145 10.6403 23.8538 11.2246 23.775 11.8545C23.4233 11.8154 23.0858 11.6942 22.7895 11.5008L25.9228 8.36725C26.1028 8.64427 26.2198 8.95741 26.2657 9.28459H26.2656ZM23.4358 7.41529C23.3722 7.8052 23.1829 8.16364 22.8968 8.436C22.6129 8.71237 22.248 8.89057 21.8555 8.94451C21.9678 8.57662 22.1717 8.2433 22.4482 7.97581C22.7246 7.70833 23.0644 7.51546 23.4358 7.41529ZM23.5469 9.1117C24.03 8.65143 24.3285 8.03071 24.3864 7.366C24.698 7.41656 24.9954 7.53217 25.2593 7.70529L22.1254 10.8391C21.9441 10.5621 21.8261 10.2486 21.7799 9.92076C21.7786 9.91186 21.7779 9.90295 21.7768 9.89404C22.4414 9.85359 23.0695 9.57599 23.5469 9.1117Z" fill="black"/>
<path d="M23.8297 16.1286C23.7775 15.9528 23.6755 15.7959 23.5361 15.6769C23.3967 15.5578 23.2257 15.4817 23.044 15.4577C22.6406 14.7762 22.0207 14.2493 21.283 13.9613C20.5454 13.6732 19.7325 13.6405 18.974 13.8683L17.7631 14.2291C17.631 14.2684 17.5094 14.3371 17.4077 14.4301C17.3059 14.5231 17.2264 14.6379 17.1753 14.7659C17.1242 14.8939 17.1027 15.0319 17.1125 15.1694C17.1223 15.3069 17.1631 15.4404 17.2318 15.5599L18.0636 17.0052C18.3343 17.4772 18.4917 18.0056 18.5234 18.5489L18.6182 20.2139C18.6314 20.4466 18.7331 20.6654 18.9023 20.8256C19.0715 20.9858 19.2955 21.0753 19.5285 21.0759C19.6173 21.0758 19.7056 21.0629 19.7907 21.0375L21.002 20.6768C21.7615 20.4525 22.424 19.9803 22.8838 19.3356C23.3437 18.6909 23.5744 17.9108 23.5391 17.1196C23.6778 16.9999 23.7789 16.8427 23.8305 16.6669C23.882 16.4911 23.8818 16.3042 23.8297 16.1286ZM21.0341 14.8734C20.6574 14.8637 20.2808 14.8957 19.9111 14.9689L19.7758 14.6651C20.2061 14.6282 20.6387 14.6998 21.0341 14.8734ZM19.5523 20.1307L19.4593 18.496C19.4192 17.807 19.2195 17.1367 18.8761 16.5381L18.0596 15.1189L18.8471 14.8845L19.5576 16.4796C19.7981 17.0197 19.9676 17.5887 20.0618 18.1724L20.3398 19.8963L19.5523 20.1307ZM21.2371 19.5715L21.1841 19.2434C21.5338 19.1022 21.8668 18.9226 22.177 18.708C21.9409 19.07 21.6177 19.3669 21.2371 19.5715ZM21.0301 18.2881L20.9874 18.0229C20.8803 17.3592 20.6875 16.7121 20.4139 16.098L20.3046 15.8527C21.3911 15.6954 22.2312 15.9792 22.4608 16.4249C22.4723 16.4585 22.4836 16.4921 22.4938 16.5264C22.504 16.5607 22.5129 16.5949 22.5217 16.6292C22.5732 17.1271 22.0252 17.825 21.0301 18.2881Z" fill="black"/>
</svg>
