<svg width="40" height="40" viewBox="0 0 40 40" fill="none" xmlns="http://www.w3.org/2000/svg">
<g clip-path="url(#clip0)">
<path d="M27.1768 16.7747C27.2276 16.7747 27.2793 16.768 27.3308 16.7541C27.8889 16.6025 29.2666 16.5182 29.7794 16.5752C30.1013 16.6113 30.3907 16.3793 30.4267 16.0578C30.4625 15.7361 30.2308 15.4464 29.9093 15.4105C29.2582 15.3379 27.7418 15.428 27.0235 15.6232C26.7112 15.7081 26.5269 16.03 26.6117 16.3423C26.6826 16.6031 26.9189 16.7747 27.1768 16.7747Z" fill="#167387"/>
<path d="M34.0313 29.8338C33.0515 29.8338 32.2545 30.6309 32.2545 31.6106C32.2545 32.5904 33.0515 33.3874 34.0313 33.3874C35.0111 33.3874 35.8081 32.5903 35.8081 31.6106C35.8081 30.6308 35.0111 29.8338 34.0313 29.8338ZM34.0313 32.2155C33.6977 32.2155 33.4264 31.9441 33.4264 31.6106C33.4264 31.277 33.6978 31.0056 34.0313 31.0056C34.3649 31.0056 34.6362 31.277 34.6362 31.6106C34.6362 31.9442 34.3649 32.2155 34.0313 32.2155Z" fill="#167387"/>
<path d="M6.80427 32.02C5.8245 32.02 5.02747 32.8171 5.02747 33.7968C5.02747 34.7766 5.82458 35.5737 6.80427 35.5737C7.78403 35.5737 8.58114 34.7766 8.58114 33.7968C8.58114 32.8171 7.78403 32.02 6.80427 32.02ZM6.80427 34.4018C6.47067 34.4018 6.19934 34.1304 6.19934 33.7968C6.19934 33.4632 6.47075 33.1919 6.80427 33.1919C7.13786 33.1919 7.40927 33.4633 7.40927 33.7968C7.40927 34.1305 7.13786 34.4018 6.80427 34.4018Z" fill="#167387"/>
<path d="M6.35581 25.68C6.35581 24.7002 5.55869 23.9031 4.57893 23.9031C3.59916 23.9031 2.80212 24.7002 2.80212 25.68C2.80212 26.6597 3.59924 27.4568 4.57893 27.4568C5.55862 27.4568 6.35581 26.6598 6.35581 25.68ZM4.57885 26.2849C4.24525 26.2849 3.97392 26.0135 3.97392 25.68C3.97392 25.3464 4.24533 25.075 4.57885 25.075C4.91244 25.075 5.18385 25.3464 5.18385 25.68C5.18385 26.0136 4.91244 26.2849 4.57885 26.2849Z" fill="#167387"/>
<path d="M18.646 16.3079C19.0661 16.6765 19.6028 16.8762 20.1542 16.8762C20.2555 16.8762 20.3574 16.8694 20.459 16.8557C21.1136 16.7675 21.698 16.4001 22.0623 15.8477C22.2404 15.5776 22.1658 15.2141 21.8957 15.036C21.6256 14.8579 21.2622 14.9325 21.0839 15.2026C20.9062 15.4721 20.6213 15.6514 20.3025 15.6943C19.9841 15.7373 19.6614 15.6398 19.4186 15.4269C19.1753 15.2134 18.8051 15.2376 18.5917 15.4809C18.3785 15.7243 18.4028 16.0945 18.646 16.3079Z" fill="#167387"/>
<path d="M15.0323 19.3913C14.9082 19.0925 14.5655 18.9507 14.2665 19.0748C13.5788 19.3602 12.3247 20.2172 11.8544 20.673C11.622 20.8983 11.6163 21.2692 11.8415 21.5016C11.9564 21.6202 12.1092 21.6797 12.2623 21.6797C12.4091 21.6797 12.5563 21.6248 12.6701 21.5144C13.0404 21.1555 14.1816 20.3789 14.7159 20.1571C15.0146 20.0331 15.1563 19.6902 15.0323 19.3913Z" fill="#167387"/>
<path d="M26.8712 18.5199C27.4451 18.5924 28.7512 19.0393 29.2033 19.2875C29.2928 19.3365 29.3894 19.3599 29.4848 19.3599C29.6917 19.3599 29.8923 19.25 29.999 19.0558C30.1546 18.7721 30.0509 18.4158 29.7672 18.2601C29.193 17.945 27.7567 17.4504 27.018 17.3572C26.698 17.3172 26.4039 17.544 26.3633 17.865C26.3227 18.1862 26.5501 18.4793 26.8712 18.5199Z" fill="#167387"/>
<path d="M35.6597 23.823C33.7578 23.2899 32.0217 23.1417 30.3681 23.3705L30.3133 23.2666C32.5874 22.1311 34.4406 20.6938 35.7412 19.0441C37.5843 16.7062 38.3183 14.0317 37.9228 11.0951C37.3911 7.14825 35.2532 4.04332 31.74 2.11574C28.2488 0.200265 23.5759 -0.431377 18.2274 0.289093C12.8786 1.00956 8.53981 2.85503 5.6798 5.62613C2.80191 8.4145 1.56167 11.9746 2.09339 15.9214C2.48894 18.858 3.90441 21.2429 6.30051 23.0098C7.99122 24.2565 10.1587 25.1522 12.6522 25.6455L12.6391 25.7049C11.1826 25.8453 8.90903 26.2684 7.35653 27.5309C6.41824 28.2941 6.27574 29.6783 7.03887 30.6167C7.46106 31.1357 8.0795 31.4267 8.73536 31.4267C8.83458 31.4267 8.93466 31.42 9.03497 31.4065C9.43403 31.3527 9.81075 31.1895 10.1245 30.9344C10.818 30.3702 12.7364 29.9675 14.3851 30.0159C14.7458 30.901 15.2812 31.6947 15.9471 32.3677C15.5984 32.7538 15.0721 32.9421 14.0242 32.8138C12.1344 32.5823 10.4114 33.1433 9.29786 34.3524C8.24762 35.4928 7.84004 37.0888 8.17973 38.7313C8.33372 39.4756 8.99598 39.9999 9.73786 39.9998C9.80763 39.9998 9.87825 39.9951 9.94911 39.9856C9.98575 39.9806 10.0225 39.9743 10.0596 39.9667C10.9184 39.789 11.4726 38.9457 11.2951 38.0869C11.1636 37.4512 11.2854 36.8903 11.6379 36.5075C12.0547 36.055 12.7647 35.8649 13.6377 35.9713C15.7 36.2236 17.3035 35.6942 18.403 34.3974C18.4757 34.3116 18.5451 34.2218 18.6132 34.1292C18.8419 34.2209 19.0762 34.302 19.3148 34.3734C19.6064 34.8677 20.0383 35.8728 19.7644 37.1836C19.5172 38.3675 20.2792 39.5319 21.4631 39.7792C21.612 39.8103 21.7625 39.8259 21.913 39.8259C22.0102 39.8259 22.1076 39.8194 22.2044 39.8064C23.1238 39.6825 23.869 38.989 24.0586 38.0807C24.3127 36.8646 24.2936 35.6076 24.0085 34.4091C24.6573 34.2287 25.2695 33.9756 25.8357 33.6606C26.3491 34.0503 26.666 34.5334 26.6307 35.3883C26.6065 35.9737 26.8117 36.5335 27.2086 36.9645C27.6055 37.3955 28.1465 37.6461 28.7316 37.6703C28.7621 37.6716 28.7927 37.6722 28.8233 37.6722C28.9216 37.6722 29.02 37.6657 29.117 37.6526C30.0941 37.521 30.8669 36.7464 30.9966 35.7689C31.0392 35.4481 30.8135 35.1536 30.4928 35.111C30.1722 35.0686 29.8774 35.294 29.8349 35.6149C29.7746 36.0696 29.4151 36.4299 28.9608 36.4911C28.9015 36.4991 28.8409 36.502 28.7802 36.4993C28.5076 36.4881 28.2556 36.3714 28.0708 36.1706C27.886 35.9699 27.7904 35.7092 27.8016 35.4365C27.8508 34.2467 27.3882 33.4932 26.8552 32.9899C27.4021 32.5685 27.8881 32.0832 28.3011 31.5485C28.8598 32.0874 29.2715 32.7032 29.527 33.3863C29.6151 33.6218 29.8384 33.7671 30.0759 33.7671C30.1441 33.7671 30.2134 33.7552 30.2811 33.7298C30.5842 33.6164 30.738 33.2788 30.6246 32.9757C30.2823 32.0605 29.7206 31.248 28.953 30.5539C29.3865 29.7642 29.6756 28.9011 29.7915 27.9995C31.1638 27.5227 32.6627 27.5388 34.4755 28.0469C34.7657 28.1282 35.0632 28.1491 35.3596 28.1091C36.2285 27.992 36.9429 27.371 37.1795 26.527C37.3376 25.9629 37.2667 25.3709 36.9796 24.8602C36.6926 24.3495 36.2238 23.9812 35.6597 23.823ZM10.3797 22.5927C10.1499 22.3648 9.77895 22.3665 9.55114 22.5962C9.32325 22.8261 9.32489 23.197 9.55473 23.4248C9.60356 23.4732 9.65356 23.5207 9.70395 23.5679C6.0184 22.0626 3.73949 19.3623 3.25496 15.7651C2.77495 12.2019 3.8955 8.98692 6.49543 6.46785C9.17419 3.87246 13.2852 2.13746 18.384 1.45066C23.4829 0.763781 27.9063 1.3491 31.1764 3.14332C34.3503 4.88465 36.2816 7.68848 36.7615 11.2517C37.2464 14.8521 35.7602 18.0614 32.5989 20.489C33.5044 19.0111 33.8483 17.3096 33.5985 15.4556C33.4282 14.1911 33.0077 12.9948 32.3638 11.9038C33.4543 9.6495 33.4867 7.06411 32.4403 4.75637C32.0974 4.00004 31.3364 3.52043 30.5091 3.5341C28.0766 3.57457 25.819 4.63394 24.2563 6.45364C22.586 6.10496 20.8173 6.04137 19.0348 6.28145C17.2522 6.5216 15.5633 7.0509 14.0449 7.82911C12.0565 6.48778 9.59919 6.0634 7.24254 6.66817C6.43824 6.87457 5.8341 7.53778 5.70355 8.35786C5.30504 10.8602 6.02035 13.3449 7.66864 15.2303C7.33629 16.4527 7.24723 17.7176 7.41754 18.9822C7.51067 19.6739 7.67879 20.3311 7.91707 20.9354C8.03582 21.2364 8.37598 21.3841 8.67715 21.2655C8.97817 21.1468 9.12598 20.8066 9.00731 20.5055C8.80364 19.9891 8.65958 19.4239 8.57903 18.8258C8.41918 17.639 8.52176 16.4488 8.86934 15.3011C8.88215 15.269 8.89231 15.2361 8.89926 15.2026C9.31661 13.8811 10.0603 12.618 11.1065 11.4845C11.2897 11.2859 11.4804 11.0936 11.6778 10.9076C11.6849 10.9015 11.6914 10.8945 11.6983 10.8881C12.4515 10.1813 13.3033 9.56716 14.2312 9.05622C14.2661 9.04153 14.2997 9.02348 14.3315 9.002C15.7947 8.21278 17.443 7.67833 19.1914 7.44286C20.9397 7.20723 22.6705 7.28653 24.2905 7.66043C24.3269 7.67278 24.3641 7.68137 24.4017 7.68622C25.4251 7.93176 26.4028 8.29567 27.3112 8.77333C27.317 8.77661 27.3228 8.77927 27.3287 8.78231C27.577 8.91341 27.8202 9.05302 28.0576 9.20106C29.3663 10.0173 30.4177 11.0385 31.1699 12.2025C31.1855 12.233 31.204 12.2621 31.2249 12.2896C31.8638 13.3044 32.2777 14.425 32.4375 15.6118C32.7732 18.1038 31.8972 20.1942 29.8338 21.8248C29.6051 22.0055 29.3624 22.1794 29.1072 22.3468C29.1031 22.3494 29.0989 22.3522 29.0949 22.355C28.6954 22.616 28.2641 22.8605 27.8032 23.0875C27.7904 23.0934 27.7779 23.0996 27.7657 23.1062C26.0601 23.9402 23.9506 24.538 21.5382 24.8629C19.1231 25.1883 16.9555 25.171 15.1143 24.8295C15.0743 24.8164 15.0323 24.8071 14.9887 24.8029C14.9781 24.8019 14.9676 24.8006 14.9571 24.7996C14.4955 24.7084 14.0554 24.5962 13.6375 24.4635C13.6011 24.4471 13.5627 24.4341 13.5223 24.4252C13.5184 24.4243 13.5145 24.424 13.5105 24.4232C12.2415 24.0039 11.1853 23.3912 10.3797 22.5927ZM31.6898 6.07903C32.0298 7.17379 32.2873 8.87841 31.5789 10.7644C30.8041 9.78958 29.8297 8.92552 28.6774 8.20692C28.6258 8.17481 28.5736 8.14372 28.5216 8.11231C29.5434 7.06536 30.7195 6.44418 31.6898 6.07903ZM27.4558 7.53497C26.8431 7.23903 26.2045 6.98879 25.5455 6.78567C27.3738 4.9691 29.5919 4.72145 30.5284 4.7059C30.7926 4.70051 31.0433 4.81348 31.2174 5.00481C30.0595 5.44832 28.651 6.2166 27.4558 7.53497ZM6.94801 8.2738C7.06449 8.04387 7.2752 7.86958 7.53356 7.80325C8.4409 7.57043 10.6454 7.22239 12.8893 8.49044C12.3076 8.86067 11.758 9.27099 11.2454 9.71849C9.7438 8.76333 8.182 8.3952 6.94801 8.2738ZM10.3703 10.5572C10.3284 10.6013 10.2863 10.6451 10.245 10.6897C9.32395 11.6876 8.61286 12.7787 8.12364 13.924C6.94137 12.2926 6.73879 10.5807 6.77692 9.43489C7.80934 9.5302 9.10778 9.8181 10.3703 10.5572ZM9.3852 30.0252C9.23895 30.1442 9.06372 30.2202 8.87848 30.2452C8.52231 30.2929 8.17442 30.1557 7.94809 29.8774C7.5927 29.4404 7.65903 28.7957 8.09606 28.4403C9.05583 27.6598 10.635 27.1103 12.4937 26.8987C12.5969 27.513 13.0582 28.0381 13.6988 28.187C13.772 28.2041 13.8469 28.2188 13.9207 28.2349C13.9236 28.2583 13.9257 28.2825 13.9288 28.3056C13.9533 28.487 13.9865 28.665 14.0242 28.8413C12.329 28.8554 10.3304 29.2566 9.3852 30.0252ZM9.82239 38.8192C9.81223 38.8214 9.80208 38.8231 9.79231 38.8244C9.57583 38.8534 9.37169 38.7084 9.32731 38.494C9.30169 38.37 9.28309 38.2468 9.26817 38.1241C9.53364 38.0772 9.82442 38.0492 10.1033 38.0594C10.1151 38.1471 10.129 38.2353 10.1475 38.3244C10.1943 38.5506 10.0483 38.7725 9.82239 38.8192ZM17.5091 33.6397C16.6809 34.6165 15.4263 35.0095 13.78 34.8083C12.5222 34.6544 11.4553 34.976 10.7758 35.7138C10.468 36.0481 10.2583 36.4471 10.152 36.8898C9.84622 36.8785 9.55145 36.9004 9.29325 36.9356C9.40989 36.2592 9.70302 35.6424 10.1598 35.1464C11.0145 34.2184 12.3712 33.7921 13.8819 33.977C15.2358 34.1426 16.1723 33.8807 16.8312 33.1352C17.0576 33.3031 17.2947 33.4582 17.5397 33.6019C17.5295 33.6144 17.5195 33.6274 17.5091 33.6397ZM22.9116 37.8412C22.8233 38.2644 22.4762 38.5874 22.0481 38.6451C21.9337 38.6605 21.8174 38.6562 21.7028 38.6323C21.1514 38.5171 20.7965 37.9748 20.9117 37.4234C21.1438 36.3123 20.9812 35.3671 20.7343 34.6653C21.0544 34.7026 21.3794 34.7233 21.7086 34.7233C22.0863 34.7233 22.4697 34.6981 22.8553 34.6461C22.8571 34.6459 22.8589 34.6456 22.8607 34.6453C23.1141 35.6871 23.133 36.782 22.9116 37.8412ZM22.6989 33.4846C19.0793 33.9727 15.7601 31.735 15.1402 28.4568C16.1318 28.6027 17.174 28.6774 18.2648 28.6774C19.4602 28.6774 20.7126 28.5898 22.0159 28.4142C24.5081 28.0785 26.7352 27.482 28.6582 26.6374C28.9269 29.9624 26.3176 32.9972 22.6989 33.4846ZM29.4185 24.9637C27.3456 26.0863 24.8023 26.8565 21.8595 27.2529C18.9167 27.6494 16.2603 27.5795 13.9642 27.0455C13.7434 26.9941 13.6036 26.7723 13.6524 26.5512L13.6879 26.3903C13.6883 26.3892 13.6884 26.388 13.6887 26.387L13.809 25.8419C14.1484 25.8904 14.4928 25.9321 14.8422 25.9663C15.8912 26.1656 17.0314 26.2672 18.2519 26.2672C19.3389 26.2672 20.4898 26.187 21.6941 26.0248C24.2263 25.6837 26.4555 25.0487 28.2776 24.1589C28.6085 24.0324 28.9325 23.8999 29.2497 23.7621L29.5241 24.2827C29.5248 24.2841 29.5256 24.2854 29.5263 24.2868L29.5884 24.4048C29.694 24.605 29.6178 24.8559 29.4185 24.9637ZM36.0512 26.2109C35.941 26.6041 35.6081 26.8934 35.2031 26.948C35.0656 26.9664 34.9274 26.9566 34.7919 26.9187C32.9474 26.4017 31.3187 26.3493 29.8402 26.7593C29.8305 26.5636 29.8127 26.3669 29.786 26.1695C29.783 26.1465 29.7786 26.1227 29.7752 26.0996C29.8423 26.0645 29.9103 26.0301 29.9765 25.9942C30.5349 25.6918 30.8388 25.0956 30.8025 24.4972C32.2138 24.343 33.7063 24.4926 35.3433 24.9515C35.606 25.0252 35.8244 25.1967 35.9581 25.4345C36.0919 25.6723 36.1249 25.948 36.0512 26.2109Z" fill="#167387"/>
<path d="M24.5642 29.1384L24.3635 29.2438C23.9167 28.7814 23.2639 28.5294 22.5793 28.6219C22.0257 28.6965 21.5342 28.9821 21.1954 29.4263C20.8567 29.8706 20.7112 30.4201 20.7858 30.9738C20.7919 31.0189 20.7999 31.0635 20.8088 31.1077L20.6085 31.2128C20.3219 31.3631 20.2114 31.7173 20.3617 32.0038C20.4664 32.2036 20.6702 32.3178 20.881 32.3178C20.9728 32.3178 21.0658 32.2963 21.1528 32.2507L21.3524 32.146C21.4257 32.2217 21.505 32.2926 21.5903 32.3577C21.9585 32.6385 22.3989 32.7864 22.8542 32.7864C22.9482 32.7864 23.0429 32.7801 23.1377 32.7674C23.6914 32.6928 24.1828 32.4071 24.5216 31.9629C24.8603 31.5187 25.0058 30.9692 24.9312 30.4155C24.9251 30.3702 24.9171 30.3256 24.9082 30.2815L25.1086 30.1764C25.3952 30.0262 25.5057 29.672 25.3554 29.3854C25.205 29.0986 24.851 28.9881 24.5642 29.1384ZM22.1273 30.1369C22.2762 29.9416 22.4924 29.816 22.7357 29.7832C22.7772 29.7776 22.8184 29.7749 22.8591 29.7749C22.9833 29.7749 23.1028 29.801 23.2128 29.8471L21.9594 30.5044C21.9872 30.3725 22.0432 30.2472 22.1273 30.1369ZM23.5897 31.2521C23.4408 31.4474 23.2247 31.5731 22.9813 31.6059C22.8164 31.6281 22.653 31.6049 22.5038 31.5422L23.7576 30.8847C23.7297 31.0165 23.6738 31.1418 23.5897 31.2521Z" fill="#167387"/>
<path d="M14.3897 17.9885C14.3889 17.6654 14.1268 17.404 13.8039 17.404H13.8024C13.058 17.4059 11.5719 17.7203 10.9632 17.9625C10.6626 18.0822 10.5159 18.4229 10.6356 18.7236C10.727 18.9532 10.9472 19.093 11.1802 19.093C11.2523 19.093 11.3257 19.0796 11.3967 19.0513C11.876 18.8605 13.227 18.5773 13.8053 18.5759C14.1289 18.5751 14.3906 18.3121 14.3897 17.9885Z" fill="#167387"/>
<path d="M24.5359 15.0899C24.5755 15.3841 24.827 15.5977 25.1158 15.5977C25.1419 15.5977 25.1682 15.596 25.1948 15.5924C25.5155 15.5492 25.7404 15.2542 25.6973 14.9335L25.5895 14.1336C25.5463 13.8129 25.2514 13.5882 24.9306 13.6311C24.6099 13.6743 24.385 13.9693 24.4281 14.29L24.5359 15.0899Z" fill="#167387"/>
<path d="M14.8987 16.388C14.9383 16.6823 15.1898 16.8958 15.4787 16.8958C15.5047 16.8958 15.5311 16.8941 15.5576 16.8905C15.8783 16.8473 16.1033 16.5523 16.0601 16.2316L15.9524 15.4318C15.9092 15.1111 15.6139 14.8859 15.2935 14.9293C14.9728 14.9725 14.7478 15.2675 14.791 15.5882L14.8987 16.388Z" fill="#167387"/>
</g>
<defs>
<clipPath id="clip0">
<rect width="40" height="40" fill="white"/>
</clipPath>
</defs>
</svg>
