<svg width="40" height="40" viewBox="0 0 40 40" fill="none" xmlns="http://www.w3.org/2000/svg">
<path d="M40 24.5803L38.337 25.9738L19.661 3.69L1.68839 25.9581L0 24.5951L18.5086 1.66309C18.79 1.3143 19.2012 1.11256 19.6364 1.10786C20.0686 1.10657 20.487 1.29933 20.7751 1.64272L40 24.5803ZM19.3878 5.72239L5.36561 23.0965L8.13666 38.892H13.0839L11.7396 29.6003C11.3751 27.0842 13.1411 25.0441 15.6843 25.0441H24.1024C26.645 25.0441 28.3623 27.0765 27.9384 29.5829L26.3624 38.8911H30.4689L34.5471 23.096L19.9785 5.71717C19.8133 5.51988 19.5497 5.52245 19.3878 5.72239ZM18.7404 31.5684C19.4963 31.1743 19.6569 29.9876 19.099 28.9185C18.5413 27.8493 17.4765 27.302 16.7204 27.6963C15.9646 28.0905 15.8042 29.277 16.3619 30.3463C16.9197 31.4155 17.9846 31.9626 18.7404 31.5684ZM16.6918 31.7405C16.1341 30.6718 15.0693 30.1245 14.3134 30.5192C13.5576 30.9133 13.397 32.0994 13.9546 33.1687C14.5123 34.2374 15.5771 34.7842 16.3331 34.3895C17.089 33.9954 17.2496 32.8093 16.6918 31.7405ZM23.3152 30.3454C23.8733 29.2766 23.7125 28.09 22.9566 27.6958C22.2008 27.3012 21.136 27.8483 20.5783 28.9175C20.0205 29.9868 20.181 31.1732 20.9369 31.5676C21.6927 31.9617 22.7575 31.415 23.3152 30.3454ZM25.3658 30.5209C24.6099 30.1267 23.5451 30.6735 22.9874 31.7423C22.4294 32.811 22.5902 33.9976 23.346 34.3918C24.1018 34.7864 25.1666 34.2392 25.7243 33.1705C26.282 32.1017 26.1216 30.9156 25.3658 30.5209ZM22.6145 34.9194C22.6402 34.7799 22.6562 34.6361 22.6562 34.4887C22.6562 33.1996 21.3097 31.8531 20.0205 31.8531C18.7314 31.8522 17.3856 33.1988 17.3856 34.4878C17.3856 34.6318 17.4001 34.7725 17.4258 34.9104C16.5904 34.9529 16.2256 35.9387 16.2256 36.7845C16.2256 37.6581 16.9332 38.3653 17.8066 38.3653C18.5965 38.3653 19.793 37.8277 19.9744 37.7817C20.9125 38.2711 21.3602 38.3653 22.1422 38.3653C23.0158 38.3653 23.7234 37.6581 23.7234 36.7845C23.7237 35.9696 23.406 35.006 22.6145 34.9194Z" fill="black"/>
</svg>
