<svg width="40" height="40" viewBox="0 0 40 40" fill="none" xmlns="http://www.w3.org/2000/svg">
<path d="M30.7563 38.125C30.7554 37.2965 30.4258 36.5022 29.84 35.9164C29.2541 35.3305 28.4598 35.001 27.6313 35H27.5958L28.0586 34.3521C28.6941 33.4669 29.1059 32.4409 29.2586 31.3619C29.4114 30.2829 29.3006 29.1829 28.9357 28.156C29.7197 26.484 30.0769 24.6435 29.9753 22.7996C29.9749 22.7918 29.9743 22.7839 29.9736 22.7766L29.6274 19.0376C29.544 17.6189 29.0247 16.2606 28.1406 15.148C28.7642 14.3723 29.1519 13.4339 29.2578 12.4443C29.3636 11.4547 29.1831 10.4555 28.7376 9.5655L28.2561 8.60246V7.96097C28.2561 5.91018 27.6987 3.89795 26.6437 2.13933L26.2922 1.55339C26.2345 1.45736 26.1522 1.37858 26.0537 1.32528C25.9552 1.27199 25.8442 1.24613 25.7323 1.25043C25.6204 1.25473 25.5117 1.28901 25.4175 1.3497C25.3234 1.41039 25.2473 1.49526 25.1972 1.59542L22.9254 6.1391C21.7552 5.89264 20.535 6.10879 19.5207 6.74222L15.4945 3.86644C15.4011 3.79971 15.291 3.76002 15.1765 3.75171C15.062 3.74341 14.9474 3.76681 14.8453 3.81935C14.7432 3.8719 14.6575 3.95156 14.5977 4.04958C14.5379 4.1476 14.5063 4.26021 14.5063 4.37503C14.5095 6.92407 15.3702 9.39791 16.9499 11.3985L16.8026 11.9882C16.5914 12.8256 16.6197 13.7056 16.8844 14.5278C17.149 15.3499 17.6394 16.0812 18.2995 16.6382L14.6704 23.4904C14.659 23.5118 14.6489 23.5338 14.6402 23.5564C14.1694 24.7695 14.0979 26.1013 14.4361 27.3579L13.1323 28.9225C12.1334 30.1182 11.6412 31.6569 11.7608 33.2104L9.94638 33.5438C9.72807 33.5839 9.50289 33.5624 9.29612 33.4817C9.08936 33.4009 8.90919 33.2641 8.77585 33.0867C8.6425 32.9092 8.56125 32.6981 8.54123 32.4771C8.5212 32.256 8.56319 32.0337 8.66247 31.8352L8.99576 31.1685C9.37166 30.4188 9.55621 29.5876 9.53294 28.7492C9.50967 27.9108 9.27931 27.0912 8.8624 26.3634L8.41216 25.5755C8.27006 25.3281 8.08038 25.1113 7.85406 24.9376C7.62773 24.7639 7.36926 24.6367 7.09354 24.5635C6.81782 24.4902 6.53031 24.4722 6.24761 24.5106C5.96491 24.549 5.69262 24.643 5.44643 24.7872C5.20025 24.9313 4.98505 25.1228 4.81325 25.3506C4.64146 25.5784 4.51647 25.8379 4.4455 26.1142C4.37452 26.3906 4.35897 26.6782 4.39974 26.9606C4.44051 27.2429 4.53679 27.5144 4.68302 27.7594L5.37833 28.9183C5.4613 29.0562 5.50513 29.2141 5.50513 29.375C5.50513 29.536 5.4613 29.6939 5.37833 29.8318C4.86618 30.6859 4.61563 31.6715 4.65766 32.6665C4.6997 33.6616 5.03248 34.6225 5.61484 35.4304C6.19721 36.2383 7.00362 36.8578 7.93434 37.2123C8.86506 37.5667 9.87927 37.6406 10.8515 37.4248L12.287 37.1057C12.3071 37.2231 12.3359 37.3387 12.3734 37.4517L12.6637 38.3227C12.7052 38.4471 12.7848 38.5554 12.8912 38.6321C12.9977 38.7088 13.1255 38.75 13.2567 38.75H16.3817C16.495 38.7495 16.606 38.7181 16.7028 38.6591C17.0437 38.719 17.3891 38.7495 17.7352 38.75H30.1313C30.2971 38.75 30.456 38.6842 30.5732 38.567C30.6905 38.4498 30.7563 38.2908 30.7563 38.125ZM12.4421 35.7907L10.58 36.2048C9.8463 36.3678 9.08094 36.3121 8.37858 36.0446C7.67622 35.7772 7.06767 35.3097 6.62823 34.7C6.18878 34.0903 5.93772 33.3652 5.90609 32.6143C5.87446 31.8634 6.06366 31.1197 6.45029 30.4752C6.65001 30.1431 6.75553 29.7629 6.75553 29.3753C6.75553 28.9878 6.65001 28.6076 6.45029 28.2755L5.75497 27.1166C5.6385 26.9235 5.59798 26.694 5.6413 26.4727C5.68462 26.2514 5.80867 26.0542 5.98935 25.9193C6.09267 25.8417 6.21129 25.7871 6.33734 25.759C6.46339 25.7308 6.59399 25.7298 6.72046 25.756C6.84694 25.7821 6.9664 25.8349 7.07092 25.9108C7.17544 25.9867 7.26263 26.0839 7.32669 26.196L7.77701 26.984C8.0916 27.5332 8.26543 28.1516 8.28301 28.7843C8.30058 29.4169 8.16134 30.0441 7.87771 30.6099L7.54435 31.2765C7.34124 31.6829 7.25538 32.1378 7.29642 32.5902C7.33746 33.0426 7.50377 33.4746 7.77668 33.8378C8.04959 34.201 8.4183 34.4809 8.84145 34.6462C9.2646 34.8114 9.72543 34.8555 10.1722 34.7735L11.9853 34.4403C12.1098 34.8679 12.282 35.2803 12.4986 35.6695C12.4787 35.7094 12.4598 35.7498 12.4421 35.7907ZM27.0415 33.6256L26.1061 34.935L26.3588 33.3178L28.0524 29.9306C28.1685 31.2435 27.8098 32.5546 27.0415 33.6256ZM18.0156 12.2914L18.2379 11.4016C18.2613 11.3082 18.2627 11.2107 18.2421 11.1166C18.2216 11.0226 18.1795 10.9345 18.1193 10.8594L17.9619 10.6626C16.8083 9.21681 16.0736 7.48215 15.8379 5.64761L19.1429 8.00863C19.2461 8.08236 19.3693 8.12294 19.4962 8.12499C19.623 8.12705 19.7474 8.09046 19.8529 8.02011L20.0835 7.86636C20.5157 7.57632 21.0087 7.38953 21.5246 7.32045C22.0405 7.25136 22.5653 7.30182 23.0586 7.46792C23.2013 7.51552 23.3564 7.51003 23.4954 7.45247C23.6344 7.39491 23.748 7.28913 23.8153 7.15456L25.8005 3.1841C26.5918 4.65197 27.0061 6.2934 27.0063 7.96097V8.75003C27.0063 8.84706 27.0289 8.94276 27.0722 9.02956L27.6197 10.1246C28.0182 10.9215 28.1358 11.8297 27.9533 12.7018C27.7709 13.5739 27.2992 14.3588 26.6147 14.9293C25.8852 15.5346 25.0415 15.9872 24.1336 16.2601C23.2257 16.5331 22.2723 16.6208 21.3299 16.518L20.9228 16.4728C20.4057 16.4139 19.909 16.2371 19.4709 15.956C19.0329 15.675 18.6652 15.2971 18.3961 14.8516C18.1666 14.4712 18.0147 14.0491 17.9494 13.6096C17.8841 13.1701 17.9066 12.7221 18.0156 12.2914ZM16.0786 37.0565L15.9308 37.5H13.7067L13.559 37.0565C13.5045 36.893 13.4896 36.7189 13.5156 36.5486C13.5416 36.3782 13.6077 36.2165 13.7084 36.0767C13.8092 35.9369 13.9417 35.8231 14.0951 35.7445C14.2485 35.666 14.4184 35.625 14.5907 35.625H15.0469C15.2191 35.6251 15.3889 35.6661 15.5423 35.7447C15.6956 35.8232 15.8281 35.9371 15.9288 36.0769C16.0295 36.2167 16.0955 36.3784 16.1215 36.5487C16.1474 36.719 16.1326 36.8931 16.0781 37.0565H16.0786ZM17.9755 35.6448C17.7608 36.2409 17.7352 36.8888 17.9022 37.5H17.7352C17.5754 37.4998 17.4156 37.4916 17.2566 37.4754L17.2644 37.452C17.3816 37.1006 17.4136 36.7264 17.3578 36.3602C17.3019 35.994 17.1599 35.6463 16.9433 35.3458C16.7267 35.0453 16.4418 34.8006 16.1121 34.6318C15.7824 34.463 15.4173 34.375 15.0469 34.375H14.5905C14.1746 34.3741 13.7661 34.4849 13.4076 34.6957C13.0447 33.8858 12.9165 32.9903 13.0376 32.1112C13.1587 31.232 13.5241 30.4045 14.0924 29.7228L15.0276 28.6006L17.6562 33.3314L18.0051 35.5636L17.9755 35.6448ZM25.1387 33.0285L24.7481 35.5285C24.7365 35.6028 24.7384 35.6784 24.7537 35.752L24.8639 36.2832C24.9367 36.633 24.9054 36.9964 24.774 37.3285L24.7061 37.5004H22.6313V31.4063L25.5517 25.9189C25.5912 25.8464 25.6159 25.7668 25.6244 25.6847C25.6329 25.6025 25.6251 25.5195 25.6013 25.4405C25.5776 25.3614 25.5384 25.2878 25.486 25.2239C25.4337 25.1601 25.3692 25.1072 25.2963 25.0684C25.2234 25.0297 25.1436 25.0057 25.0614 24.9979C24.9792 24.9902 24.8963 24.9988 24.8174 25.0233C24.7385 25.0478 24.6653 25.0876 24.602 25.1406C24.5386 25.1935 24.4864 25.2585 24.4483 25.3318L22.0093 29.9141L19.928 25.9591C19.8902 25.8857 19.8382 25.8206 19.7751 25.7674C19.712 25.7143 19.639 25.6741 19.5603 25.6493C19.4816 25.6245 19.3987 25.6156 19.3165 25.623C19.2343 25.6304 19.1544 25.654 19.0814 25.6924C19.0084 25.7308 18.9437 25.7833 18.891 25.8469C18.8384 25.9105 18.7989 25.9839 18.7748 26.0628C18.7507 26.1417 18.7424 26.2246 18.7505 26.3067C18.7586 26.3889 18.7829 26.4686 18.8219 26.5413L21.3813 31.4046V37.5H19.2323C19.1233 37.2791 19.0599 37.0384 19.046 36.7924C19.0321 36.5464 19.068 36.3001 19.1515 36.0683L19.2349 35.8368C19.2704 35.7381 19.2806 35.6321 19.2644 35.5285L18.8738 33.0285C18.8624 32.9559 18.8383 32.8858 18.8026 32.8215L15.7089 27.2528C15.3723 26.2041 15.4018 25.0722 15.7926 24.0425L19.3564 17.3132C19.8076 17.5236 20.29 17.6594 20.7847 17.7153L21.1919 17.7606C21.492 17.7939 21.7939 17.8106 22.0959 17.8106C23.9627 17.8087 25.775 17.1807 27.2426 16.027C27.9204 16.9217 28.3164 17.9981 28.3801 19.1188C28.3804 19.1264 28.381 19.1341 28.3817 19.1418L28.7279 22.8803C28.8205 24.5967 28.4654 26.3077 27.6972 27.8455L25.1972 32.8455C25.1684 32.9031 25.1487 32.9649 25.1387 33.0285ZM26.0323 37.5C26.1541 37.0743 26.1824 36.6272 26.1151 36.1895C26.1982 36.2291 26.2892 36.2498 26.3813 36.25H27.6313C28.0189 36.2505 28.397 36.3709 28.7135 36.5947C29.03 36.8185 29.2695 37.1347 29.3992 37.5H26.0323Z" fill="black"/>
<path d="M20.2876 12.6562C20.473 12.6562 20.6543 12.6013 20.8084 12.4983C20.9626 12.3952 21.0828 12.2488 21.1537 12.0775C21.2247 11.9062 21.2432 11.7177 21.2071 11.5359C21.1709 11.354 21.0816 11.1869 20.9505 11.0558C20.8194 10.9247 20.6523 10.8354 20.4705 10.7993C20.2886 10.7631 20.1001 10.7817 19.9288 10.8526C19.7575 10.9236 19.6111 11.0437 19.5081 11.1979C19.4051 11.3521 19.3501 11.5333 19.3501 11.7188C19.3501 11.9674 19.4489 12.2058 19.6247 12.3817C19.8005 12.5575 20.039 12.6562 20.2876 12.6562Z" fill="black"/>
<path d="M24.8188 11.25C25.3366 11.25 25.7563 10.8303 25.7563 10.3125C25.7563 9.79473 25.3366 9.375 24.8188 9.375C24.3011 9.375 23.8813 9.79473 23.8813 10.3125C23.8813 10.8303 24.3011 11.25 24.8188 11.25Z" fill="black"/>
<path d="M22.5537 15.0781C22.6769 15.0781 22.7974 15.0416 22.8998 14.973L23.3973 14.6414L24.0909 14.757C24.1252 14.7627 24.1598 14.7656 24.1945 14.7656C24.3513 14.7655 24.5023 14.7064 24.6176 14.6002C24.7329 14.4939 24.804 14.3482 24.8169 14.1919C24.8298 14.0357 24.7834 13.8803 24.6871 13.7566C24.5908 13.6329 24.4515 13.5499 24.2968 13.5241L23.7928 13.4401L23.7152 13.0132C23.7006 12.9324 23.6701 12.8554 23.6257 12.7864C23.5812 12.7174 23.5236 12.6578 23.4561 12.6111C23.3886 12.5644 23.3126 12.5314 23.2324 12.5141C23.1521 12.4967 23.0693 12.4954 22.9885 12.51C22.8254 12.5397 22.6808 12.6329 22.5865 12.7692C22.4921 12.9055 22.4558 13.0737 22.4854 13.2368L22.5681 13.6921L22.2067 13.9331C22.0951 14.0075 22.0104 14.1159 21.9651 14.2422C21.9199 14.3685 21.9164 14.506 21.9553 14.6343C21.9942 14.7627 22.0734 14.8752 22.1812 14.9551C22.2889 15.035 22.4195 15.0781 22.5537 15.0781Z" fill="black"/>
</svg>
