<svg width="40" height="40" viewBox="0 0 40 40" fill="none" xmlns="http://www.w3.org/2000/svg">
<path d="M23.5156 26.9531C23.5156 27.5993 22.9899 28.125 22.3438 28.125C21.6976 28.125 21.1719 27.5993 21.1719 26.9531V26.1922L23.5156 23.2625V22.8514C23.5156 20.9129 21.9385 19.3358 20 19.3358C18.0615 19.3358 16.4844 20.9129 16.4844 22.8514V23.2625L18.8281 26.1922V26.9531C18.8281 27.5993 18.3024 28.125 17.6562 28.125C17.0101 28.125 16.4844 27.5993 16.4844 26.9531H14.1406C14.1406 28.8916 15.7177 30.4687 17.6562 30.4687C18.556 30.4687 19.3775 30.1286 20 29.5707C20.6225 30.1286 21.444 30.4687 22.3438 30.4687C24.2823 30.4687 25.8594 28.8916 25.8594 26.9531H23.5156ZM20 23.9052L18.8802 22.5054C19.0282 22.0276 19.4742 21.6796 20 21.6796C20.5258 21.6796 20.9718 22.0277 21.1198 22.5055L20 23.9052Z" fill="black"/>
<path d="M20 0C8.97195 0 0 8.93695 0 19.9219C0 20.8136 0 39.1295 0 40H40C40 39.1198 40 20.8056 40 19.9219C40 8.93695 31.028 0 20 0ZM37.6562 37.6562H2.34375V35.2344H37.6562V37.6562ZM8.84242 14.5022L13.093 16.603L13.6686 16.1744C13.697 16.1532 16.545 14.0625 20 14.0625C23.4284 14.0625 26.3048 16.1548 26.3314 16.1744L26.907 16.603L31.1576 14.5022C33.4553 20.3363 33.5611 26.9826 31.4693 32.8906H8.53063C6.43891 26.9826 6.54469 20.3363 8.84242 14.5022ZM37.6562 32.8906H33.944C34.8709 30.0202 35.3345 27.0297 35.3197 23.9769C35.3021 20.3458 34.6115 16.8086 33.2667 13.4635L32.3887 11.2793L27.1173 13.8846C25.9438 13.1559 23.2209 11.7188 20 11.7188C16.7791 11.7188 14.0562 13.1559 12.8826 13.8846L7.61117 11.2793L6.73312 13.4635C5.38844 16.8086 4.69773 20.3458 4.68023 23.9769C4.66555 27.0297 5.12898 30.0202 6.05602 32.8906H2.34375V19.9219C2.34375 10.2293 10.2643 2.34375 20 2.34375C29.7357 2.34375 37.6562 10.2293 37.6562 19.9219V32.8906Z" fill="black"/>
<path d="M20 4.6875C16.4918 4.6875 13.065 5.91367 10.3508 8.14023L11.8373 9.95227C14.1335 8.06859 17.0324 7.03125 20 7.03125C22.9676 7.03125 25.8665 8.06859 28.1625 9.95227L29.649 8.14023C26.935 5.91367 23.5082 4.6875 20 4.6875Z" fill="black"/>
<path d="M14.1406 18.75H11.7969V21.0938H14.1406V18.75Z" fill="black"/>
<path d="M28.2031 18.75H25.8594V21.0938H28.2031V18.75Z" fill="black"/>
</svg>
