<svg width="40" height="40" viewBox="0 0 40 40" fill="none" xmlns="http://www.w3.org/2000/svg">
<path d="M19.9999 25.763C21.0367 25.763 21.8801 24.9196 21.8801 23.8828C21.8801 22.8461 21.0367 22.0025 19.9999 22.0025C18.9632 22.0025 18.1198 22.846 18.1198 23.8828C18.1198 24.9196 18.9632 25.763 19.9999 25.763ZM19.9999 23.1744C20.3904 23.1744 20.7082 23.4921 20.7082 23.8828C20.7082 24.2733 20.3904 24.591 19.9999 24.591C19.6094 24.591 19.2916 24.2733 19.2916 23.8828C19.2916 23.4922 19.6094 23.1744 19.9999 23.1744Z" fill="black"/>
<path d="M25.177 28.3515C26.2138 28.3515 27.0571 27.5081 27.0571 26.4713C27.0571 25.4345 26.2137 24.5911 25.177 24.5911C24.1403 24.5911 23.2968 25.4345 23.2968 26.4713C23.2968 27.508 24.1402 28.3515 25.177 28.3515ZM25.177 25.763C25.5675 25.763 25.8853 26.0807 25.8853 26.4713C25.8853 26.8619 25.5675 27.1796 25.177 27.1796C24.7864 27.1796 24.4687 26.8619 24.4687 26.4713C24.4686 26.0807 24.7864 25.763 25.177 25.763Z" fill="black"/>
<path d="M14.8229 24.5911C13.7862 24.5911 12.9427 25.4345 12.9427 26.4713C12.9427 27.5081 13.7862 28.3515 14.8229 28.3515C15.8597 28.3515 16.7031 27.5081 16.7031 26.4713C16.7031 25.4345 15.8597 24.5911 14.8229 24.5911ZM14.8229 27.1796C14.4324 27.1796 14.1146 26.8619 14.1146 26.4713C14.1146 26.0808 14.4324 25.763 14.8229 25.763C15.2135 25.763 15.5312 26.0807 15.5312 26.4713C15.5313 26.8618 15.2135 27.1796 14.8229 27.1796Z" fill="black"/>
<path d="M17.7328 28.8471L17.6851 28.9644C17.3546 29.7759 16.916 30.5055 16.3817 31.133L15.9756 31.6098C15.6213 32.0258 15.4652 32.6157 15.5578 33.1878C15.6455 33.729 15.9409 34.1877 16.3683 34.4463C17.1986 34.9486 18.1899 34.9485 19.0199 34.4463L19.2613 34.3003C19.7185 34.0238 20.2428 34.0238 20.6999 34.3003L20.9413 34.4463C21.3565 34.6975 21.8119 34.823 22.2673 34.823C22.7225 34.823 23.1779 34.6975 23.5928 34.4465L23.6318 34.4229C24.0503 34.1698 24.3438 33.7215 24.4374 33.1933C24.5382 32.6237 24.3993 32.052 24.0562 31.6247L23.4622 30.8849C23.0067 30.3175 22.6251 29.6708 22.3281 28.9629L22.2668 28.8168C21.8412 27.8019 20.9728 27.1725 19.9949 27.1797C19.0163 27.1848 18.1496 27.8237 17.7328 28.8471ZM18.7705 29.4063L18.8182 29.289C19.0562 28.7047 19.4984 28.3542 20.001 28.3515H20.0066C20.5041 28.3515 20.9447 28.6945 21.1862 29.2701L21.2474 29.4162C21.5868 30.225 22.0244 30.9659 22.5483 31.6186L23.1424 32.3583C23.272 32.5198 23.3247 32.7556 23.2834 32.9891C23.2492 33.1819 23.1528 33.343 23.0255 33.4201L22.9865 33.4437C22.5293 33.7201 22.0051 33.7201 21.5479 33.4437L21.3065 33.2976C20.8914 33.0465 20.436 32.9209 19.9806 32.9209C19.5253 32.9209 19.0699 33.0465 18.6548 33.2976L18.4134 33.4437C17.9562 33.7201 17.432 33.7201 16.9748 33.4437C16.844 33.3645 16.7467 33.1988 16.7145 33.0004C16.6761 32.7632 16.7334 32.5273 16.8678 32.3696L17.2738 31.8929C17.8892 31.1702 18.3928 30.3337 18.7705 29.4063Z" fill="black"/>
<path d="M38.1198 3.8828H32.2344V3.82155C32.2344 3.14162 31.6812 2.5885 31.0013 2.5885H29.707C29.0271 2.5885 28.474 3.14162 28.474 3.82155V3.8828H27.0573V3.17444C27.0573 2.13772 26.2138 1.29428 25.1771 1.29428H14.8229C13.7862 1.29428 12.9427 2.13772 12.9427 3.17444V3.8828H5.96422C5.64055 3.8828 5.37828 4.14514 5.37828 4.46873C5.37828 4.79233 5.64055 5.05467 5.96422 5.05467H12.9427V11.6484H1.88016C1.48961 11.6484 1.17188 11.3307 1.17188 10.9401V5.76303C1.17188 5.37248 1.48961 5.05475 1.88016 5.05475H3.62039C3.94406 5.05475 4.20633 4.79241 4.20633 4.46881C4.20633 4.14522 3.94406 3.88287 3.62039 3.88287H1.88016C0.843437 3.8828 0 4.72631 0 5.76303V10.9401C0 11.9769 0.843437 12.8204 1.88016 12.8204H12.9427V13.5287C12.9427 14.5654 13.7862 15.4089 14.8229 15.4089H18.2588C18.1695 15.6276 18.1198 15.8667 18.1198 16.1172V17.4115C18.1198 17.7158 18.1929 18.0033 18.3219 18.2579C16.9046 18.4905 15.5512 19.0158 14.3412 19.8136C14.071 19.9917 13.9964 20.3551 14.1745 20.6253C14.3528 20.8955 14.7161 20.97 14.9862 20.7919C16.475 19.8104 18.2087 19.2916 20 19.2916C25.0294 19.2916 29.1211 23.3833 29.1211 28.4127C29.1211 33.4421 25.0294 37.5338 20 37.5338C14.9706 37.5338 10.8789 33.4421 10.8789 28.4127C10.8789 26.1123 11.7378 23.9154 13.2973 22.2265C13.517 21.9887 13.5021 21.618 13.2644 21.3985C13.0266 21.179 12.6561 21.1937 12.4364 21.4314C10.6763 23.3374 9.70703 25.8167 9.70703 28.4126C9.70703 34.0882 14.3244 38.7056 20 38.7056C25.6756 38.7056 30.293 34.0882 30.293 28.4126C30.293 23.3086 26.5584 19.061 21.6784 18.2572C21.8071 18.0028 21.8802 17.7155 21.8802 17.4114V16.1172C21.8802 15.8667 21.8305 15.6276 21.7412 15.4089H25.177C26.2138 15.4089 27.0572 14.5655 27.0572 13.5287V12.8203H28.4739V12.8815C28.4739 13.5614 29.027 14.1145 29.707 14.1145H31.0012C31.6811 14.1145 32.2342 13.5614 32.2342 12.8815V12.8203H38.1197C39.1565 12.8203 39.9998 11.9769 39.9998 10.9401V5.76303C40 4.72623 39.1566 3.8828 38.1198 3.8828ZM29.6459 6.34897H31.0625V10.3542H29.6459V6.34897ZM29.6459 3.82162C29.6459 3.78787 29.6734 3.76045 29.707 3.76045H31.0013C31.035 3.76045 31.0624 3.78795 31.0624 3.82162V5.17709H29.6458V3.82162H29.6459ZM20.7083 16.1172V17.4115C20.7083 17.802 20.3905 18.1197 20 18.1197C19.6095 18.1197 19.2917 17.802 19.2917 17.4115V16.1172C19.2917 15.7266 19.6095 15.4089 20 15.4089C20.3905 15.4089 20.7083 15.7266 20.7083 16.1172ZM25.1771 14.2369H14.8229C14.4323 14.2369 14.1146 13.9192 14.1146 13.5286V3.17444C14.1146 2.78389 14.4323 2.46616 14.8229 2.46616H25.177C25.5676 2.46616 25.8853 2.78389 25.8853 3.17444V3.8828H17.4115C16.3747 3.8828 15.5312 4.72623 15.5312 5.76295V10.9401C15.5312 11.9768 16.3748 12.8203 17.4115 12.8203H25.8854V13.5286C25.8854 13.9192 25.5677 14.2369 25.1771 14.2369ZM17.4115 11.6484C17.0209 11.6484 16.7031 11.3307 16.7031 10.9401V5.76303C16.7031 5.37248 17.0209 5.05475 17.4115 5.05475H28.474V11.6485H17.4115V11.6484ZM31.0625 12.8815C31.0625 12.9152 31.035 12.9426 31.0013 12.9426H29.707C29.6733 12.9426 29.6459 12.9151 29.6459 12.8815V11.526H31.0625V12.8815ZM38.8281 10.9401C38.8281 11.3306 38.5104 11.6484 38.1198 11.6484H32.2344V5.05467H38.1198C38.5104 5.05467 38.8281 5.37241 38.8281 5.76295V10.9401Z" fill="black"/>
<path d="M23.8827 6.47142H19.9999C18.9632 6.47142 18.1198 7.31486 18.1198 8.35158C18.1198 9.38837 18.9632 10.2318 19.9999 10.2318H23.8827C24.9195 10.2318 25.7629 9.38837 25.7629 8.35158C25.763 7.31486 24.9195 6.47142 23.8827 6.47142ZM23.8827 9.05994H19.9999C19.6094 9.05994 19.2916 8.7422 19.2916 8.35158C19.2916 7.96103 19.6094 7.6433 19.9999 7.6433H23.8827C24.2733 7.6433 24.591 7.96103 24.591 8.35158C24.5911 8.74212 24.2733 9.05994 23.8827 9.05994Z" fill="black"/>
<path d="M10.293 8.93747C10.6167 8.93747 10.8789 8.67513 10.8789 8.35153C10.8789 8.02794 10.6167 7.76559 10.293 7.76559H9.64588C9.3222 7.76559 9.05994 8.02794 9.05994 8.35153C9.05994 8.67513 9.3222 8.93747 9.64588 8.93747H10.293Z" fill="black"/>
<path d="M3.88281 8.35153C3.88281 8.67513 4.14508 8.93747 4.46875 8.93747H5.11586C5.43953 8.93747 5.70179 8.67513 5.70179 8.35153C5.70179 8.02794 5.43953 7.76559 5.11586 7.76559H4.46875C4.14516 7.76559 3.88281 8.02794 3.88281 8.35153Z" fill="black"/>
<path d="M35.5311 7.76559H34.884C34.5604 7.76559 34.2981 8.02794 34.2981 8.35153C34.2981 8.67513 34.5604 8.93747 34.884 8.93747H35.5311C35.8548 8.93747 36.1171 8.67513 36.1171 8.35153C36.1171 8.02794 35.8547 7.76559 35.5311 7.76559Z" fill="black"/>
</svg>
