<svg width="40" height="40" viewBox="0 0 40 40" fill="none" xmlns="http://www.w3.org/2000/svg">
<path d="M34.7266 1.25H5.27344C2.36562 1.25 0 3.61562 0 6.52344V14.7266C0 17.6344 2.36562 20 5.27344 20H18.2422V20.5859C18.2422 21.5552 19.0308 22.3438 20 22.3438C20.9692 22.3438 21.7578 21.5552 21.7578 20.5859V20H22.9887C23.2609 21.3356 24.4445 22.3438 25.8594 22.3438H30.5469C31.9617 22.3438 33.1454 21.3356 33.4176 20H34.7266C37.6344 20 40 17.6344 40 14.7266V6.52344C40 3.61562 37.6344 1.25 34.7266 1.25ZM5.27344 2.42188H34.7266C36.9881 2.42188 38.8281 4.2618 38.8281 6.52344C38.8281 8.78508 36.9881 10.625 34.7266 10.625H33.4766V9.45312H34.7266C36.342 9.45312 37.6562 8.13891 37.6562 6.52344C37.6562 4.90797 36.342 3.59375 34.7266 3.59375H7.61719C7.29352 3.59375 7.03125 3.85609 7.03125 4.17969C7.03125 4.50328 7.29352 4.76562 7.61719 4.76562H34.7266C35.6958 4.76562 36.4844 5.55414 36.4844 6.52344C36.4844 7.49273 35.6958 8.28125 34.7266 8.28125H33.4176C33.1454 6.94562 31.9617 5.9375 30.5469 5.9375H25.8594C24.4445 5.9375 23.2609 6.94562 22.9887 8.28125H21.7578V7.69531C21.7578 6.72602 20.9692 5.9375 20 5.9375C19.0308 5.9375 18.2422 6.72602 18.2422 7.69531V8.28125H5.27344C4.30422 8.28125 3.51562 7.49273 3.51562 6.52344C3.51562 5.55414 4.30422 4.76562 5.27344 4.76562C5.59711 4.76562 5.85938 4.50328 5.85938 4.17969C5.85938 3.85609 5.59711 3.59375 5.27344 3.59375C3.65797 3.59375 2.34375 4.90797 2.34375 6.52344C2.34375 8.13891 3.65797 9.45312 5.27344 9.45312H18.2422V10.625H5.27344C3.01187 10.625 1.17188 8.78508 1.17188 6.52344C1.17188 4.2618 3.01187 2.42188 5.27344 2.42188ZM21.7578 9.45312H22.9297V10.625H21.7578V9.45312ZM32.3047 8.86875C31.8147 8.50008 31.2059 8.28125 30.5469 8.28125H25.8594C25.2003 8.28125 24.5916 8.50008 24.1016 8.86875C24.1016 7.89789 24.8902 7.10938 25.8594 7.10938H30.5469C31.5161 7.10938 32.3047 7.89789 32.3047 8.86875ZM5.27344 18.8281C3.01187 18.8281 1.17188 16.9882 1.17188 14.7266V9.83289C2.13937 11.0297 3.6182 11.7969 5.27344 11.7969H18.2422V18.8281H5.27344ZM20.5859 20.5859C20.5859 20.9091 20.3231 21.1719 20 21.1719C19.6769 21.1719 19.4141 20.9091 19.4141 20.5859V7.69531C19.4141 7.37219 19.6769 7.10938 20 7.10938C20.3231 7.10938 20.5859 7.37219 20.5859 7.69531V20.5859ZM21.7578 11.7969H22.9297V18.8281H21.7578V11.7969ZM32.3047 19.4141C32.3047 20.3834 31.5161 21.1719 30.5469 21.1719H25.8594C24.8902 21.1719 24.1016 20.3834 24.1016 19.4141V11.2109C24.1016 10.2416 24.8902 9.45312 25.8594 9.45312H30.5469C31.5161 9.45312 32.3047 10.2416 32.3047 11.2109V19.4141ZM38.8281 14.7266C38.8281 16.9882 36.9881 18.8281 34.7266 18.8281H33.4766V11.7969H34.7266C36.3818 11.7969 37.8606 11.0297 38.8281 9.83289V14.7266Z" fill="black"/>
<path d="M15.3125 13.5547C14.3433 13.5547 13.5547 14.3432 13.5547 15.3125C13.5547 16.2818 14.3433 17.0703 15.3125 17.0703C16.2817 17.0703 17.0703 16.2818 17.0703 15.3125C17.0703 14.3432 16.2817 13.5547 15.3125 13.5547ZM15.3125 15.8984C14.9894 15.8984 14.7266 15.6356 14.7266 15.3125C14.7266 14.9894 14.9894 14.7266 15.3125 14.7266C15.6356 14.7266 15.8984 14.9894 15.8984 15.3125C15.8984 15.6356 15.6356 15.8984 15.3125 15.8984Z" fill="black"/>
<path d="M20 27.0312C20.3236 27.0312 20.5859 26.7689 20.5859 26.4453C20.5859 26.1217 20.3236 25.8594 20 25.8594C19.6764 25.8594 19.4141 26.1217 19.4141 26.4453C19.4141 26.7689 19.6764 27.0312 20 27.0312Z" fill="black"/>
<path d="M10.625 13.5547C9.65578 13.5547 8.86719 14.3432 8.86719 15.3125C8.86719 16.2818 9.65578 17.0703 10.625 17.0703C11.5942 17.0703 12.3828 16.2818 12.3828 15.3125C12.3828 14.3432 11.5942 13.5547 10.625 13.5547ZM10.625 15.8984C10.3019 15.8984 10.0391 15.6356 10.0391 15.3125C10.0391 14.9894 10.3019 14.7266 10.625 14.7266C10.9481 14.7266 11.2109 14.9894 11.2109 15.3125C11.2109 15.6356 10.9481 15.8984 10.625 15.8984Z" fill="black"/>
<path d="M5.9375 13.5547C4.96828 13.5547 4.17969 14.3432 4.17969 15.3125C4.17969 16.2818 4.96828 17.0703 5.9375 17.0703C6.90672 17.0703 7.69531 16.2818 7.69531 15.3125C7.69531 14.3432 6.90672 13.5547 5.9375 13.5547ZM5.9375 15.8984C5.61437 15.8984 5.35156 15.6356 5.35156 15.3125C5.35156 14.9894 5.61437 14.7266 5.9375 14.7266C6.26063 14.7266 6.52344 14.9894 6.52344 15.3125C6.52344 15.6356 6.26063 15.8984 5.9375 15.8984Z" fill="black"/>
<path d="M30.5469 10.625H25.8594C25.5357 10.625 25.2734 10.8873 25.2734 11.2109V19.4141C25.2734 19.7377 25.5357 20 25.8594 20H30.5469C30.8705 20 31.1328 19.7377 31.1328 19.4141V11.2109C31.1328 10.8873 30.8705 10.625 30.5469 10.625ZM29.9609 18.8281H26.4453V11.7969H29.9609V18.8281Z" fill="black"/>
<path d="M33.4471 24.717C32.6723 23.9423 31.6423 23.5156 30.5467 23.5156C29.4512 23.5156 28.4212 23.9423 27.6465 24.717L27.0189 25.3445C26.687 25.6766 26.2456 25.8594 25.776 25.8594H23.1314L22.3203 24.7183C21.7849 23.9652 20.9137 23.5156 19.9898 23.5156C19.066 23.5156 18.1947 23.9652 17.6593 24.7184L16.8482 25.8594H14.2036C13.7341 25.8594 13.2927 25.6766 12.9607 25.3445L12.3332 24.717C11.5585 23.9423 10.5285 23.5156 9.43292 23.5156C8.33737 23.5156 7.30737 23.9423 6.53276 24.717C4.93347 26.3161 4.93347 28.9182 6.53261 30.5174L7.14808 31.1328L6.53261 31.7482C4.93347 33.3474 4.93347 35.9495 6.53261 37.5487C7.30737 38.3234 8.33737 38.75 9.43292 38.75C10.5285 38.75 11.5585 38.3234 12.3332 37.5487L12.9607 36.9211C13.2927 36.5891 13.7341 36.4062 14.2036 36.4062H25.7759C26.2455 36.4062 26.6869 36.5891 27.0189 36.9211L27.6464 37.5487C28.4212 38.3234 29.4512 38.75 30.5467 38.75C31.6423 38.75 32.6723 38.3234 33.4471 37.5487C35.0462 35.9495 35.0462 33.3474 33.447 31.7482L32.8316 31.1328L33.4471 30.5174C35.0462 28.9182 35.0462 26.3162 33.4471 24.717ZM31.5887 31.5471L32.6184 32.5768C33.7607 33.7191 33.7607 35.5777 32.6185 36.72C32.065 37.2734 31.3293 37.5781 30.5467 37.5781C29.7642 37.5781 29.0285 37.2734 28.4752 36.7201L27.8476 36.0925C27.2942 35.5391 26.5585 35.2344 25.776 35.2344H14.2037C13.4211 35.2344 12.6854 35.5391 12.1321 36.0924L11.5045 36.72C10.9512 37.2734 10.2155 37.5781 9.43292 37.5781C8.65034 37.5781 7.91464 37.2734 7.36128 36.7201C6.21901 35.5778 6.21901 33.7191 7.3612 32.5769L8.39097 31.5472C8.50089 31.4373 8.56261 31.2883 8.56261 31.1329C8.56261 30.9775 8.50089 30.8284 8.39097 30.7186L7.36128 29.6889C6.21901 28.5466 6.21901 26.688 7.36136 25.5457C7.91472 24.9922 8.65042 24.6875 9.43292 24.6875C10.2154 24.6875 10.9512 24.9922 11.5045 25.5455L12.1321 26.1731C12.6854 26.7265 13.4211 27.0312 14.2037 27.0312H17.1507C17.3404 27.0312 17.5184 26.9393 17.6283 26.7847L18.6145 25.3972C18.9305 24.9527 19.4446 24.6874 19.9898 24.6874C20.535 24.6874 21.0492 24.9527 21.3651 25.3972L22.3514 26.7847C22.4613 26.9393 22.6392 27.0312 22.8289 27.0312H25.7759C26.5585 27.0312 27.2942 26.7265 27.8476 26.1731L28.4752 25.5455C29.0285 24.9922 29.7642 24.6875 30.5467 24.6875C31.3293 24.6875 32.065 24.9922 32.6184 25.5455C33.7607 26.6878 33.7607 28.5465 32.6185 29.6887L31.5887 30.7184C31.4788 30.8283 31.4171 30.9773 31.4171 31.1327C31.4171 31.2881 31.4788 31.4373 31.5887 31.5471Z" fill="black"/>
</svg>
