<svg width="40" height="40" viewBox="0 0 40 40" fill="none" xmlns="http://www.w3.org/2000/svg">
<path d="M36 8.2625H11.3616H11.3541H11.3466H8.34094H8.33344H8.32594H4C3.85496 8.2625 3.71586 8.32011 3.6133 8.42267C3.51074 8.52523 3.45312 8.66433 3.45312 8.80937V13.8875C3.45312 14.0325 3.51074 14.1716 3.6133 14.2742C3.71586 14.3768 3.85496 14.4344 4 14.4344H17.9437V15.6378C16.5259 16.0083 15.2333 16.7523 14.2008 17.7923C13.1683 18.8322 12.4337 20.1301 12.0734 21.5506C11.5924 21.6287 11.155 21.8756 10.8396 22.2471C10.5242 22.6185 10.3516 23.0902 10.3526 23.5775C10.3536 24.0648 10.5282 24.5358 10.8452 24.9059C11.1621 25.2761 11.6006 25.5211 12.0819 25.5972C12.5371 27.3498 13.5595 28.9025 14.9897 30.0131C16.4199 31.1237 18.1774 31.7298 19.9881 31.7369H20.0016C20.0016 31.7369 20.0103 31.7369 20.015 31.7369C21.8251 31.7291 23.5817 31.1227 25.0112 30.0123C26.4407 28.9019 27.4626 27.3497 27.9178 25.5978C28.3997 25.5219 28.8387 25.2764 29.1557 24.9055C29.4727 24.5347 29.6469 24.0629 29.6469 23.575C29.6462 23.0885 29.473 22.6181 29.1579 22.2475C28.8429 21.8768 28.4065 21.63 27.9266 21.5509C27.5664 20.1304 26.8317 18.8324 25.7992 17.7924C24.7667 16.7523 23.4742 16.0083 22.0562 15.6378V14.4344H36C36.145 14.4344 36.2841 14.3768 36.3867 14.2742C36.4893 14.1716 36.5469 14.0325 36.5469 13.8875V8.80937C36.5469 8.66433 36.4893 8.52523 36.3867 8.42267C36.2841 8.32011 36.145 8.2625 36 8.2625ZM14.6319 11.3478L13.5034 13.3406H11.9009V9.35625H13.5044L14.6319 11.3478ZM10.8072 13.3406H8.88031V9.35625H10.8072V13.3406ZM4.54687 9.35625H7.78656V13.3406H4.54687V9.35625ZM14.7603 13.3406L15.7359 11.6172C15.7826 11.535 15.8072 11.4422 15.8072 11.3477C15.8072 11.2532 15.7826 11.1603 15.7359 11.0781L14.7609 9.35625H17.9437V13.3406H14.7603ZM20.5469 30.6197V27.2072C20.5469 27.0621 20.4893 26.923 20.3867 26.8205C20.2841 26.7179 20.145 26.6603 20 26.6603C19.855 26.6603 19.7159 26.7179 19.6133 26.8205C19.5107 26.923 19.4531 27.0621 19.4531 27.2072V30.6197C18.0333 30.5071 16.68 29.9708 15.5685 29.0803C14.4569 28.1898 13.6383 26.9861 13.2187 25.625H26.7812C26.3617 26.9861 25.5431 28.1898 24.4315 29.0803C23.32 29.9708 21.9667 30.5071 20.5469 30.6197ZM28.5531 23.575C28.5528 23.8285 28.4519 24.0715 28.2727 24.2508C28.0934 24.4301 27.8504 24.5309 27.5969 24.5312H12.4031C12.1491 24.5312 11.9055 24.4303 11.7258 24.2507C11.5462 24.0711 11.4453 23.8275 11.4453 23.5734C11.4453 23.3194 11.5462 23.0758 11.7258 22.8962C11.9055 22.7165 12.1491 22.6156 12.4031 22.6156H27.5969C27.8508 22.6164 28.0941 22.7178 28.2733 22.8976C28.4526 23.0775 28.5532 23.3211 28.5531 23.575ZM26.7909 21.5219H13.2091C13.6463 20.0606 14.5433 18.7793 15.7667 17.8684C16.9901 16.9575 18.4747 16.4655 20 16.4655C21.5253 16.4655 23.0099 16.9575 24.2333 17.8684C25.4567 18.7793 26.3537 20.0606 26.7909 21.5219ZM19.0375 15.3719V9.35625H20.9625V15.3719H19.0375ZM35.4531 13.3406H22.0562V9.35625H35.4531V13.3406Z" fill="black"/>
<path d="M33.3334 11.8947C33.6354 11.8947 33.8802 11.6499 33.8802 11.3479C33.8802 11.0458 33.6354 10.801 33.3334 10.801C33.0313 10.801 32.7865 11.0458 32.7865 11.3479C32.7865 11.6499 33.0313 11.8947 33.3334 11.8947Z" fill="black"/>
<path d="M28.8281 11.8947C29.1302 11.8947 29.375 11.6499 29.375 11.3479C29.375 11.0458 29.1302 10.801 28.8281 10.801C28.5261 10.801 28.2812 11.0458 28.2812 11.3479C28.2812 11.6499 28.5261 11.8947 28.8281 11.8947Z" fill="black"/>
</svg>
