<svg width="40" height="40" viewBox="0 0 40 40" fill="none" xmlns="http://www.w3.org/2000/svg">
<path d="M30.475 8.98486C31.0834 8.98486 31.5766 8.4917 31.5766 7.88335C31.5766 7.27501 31.0834 6.78185 30.475 6.78185C29.8667 6.78185 29.3735 7.27501 29.3735 7.88335C29.3735 8.4917 29.8667 8.98486 30.475 8.98486Z" fill="black"/>
<path d="M38.5291 7.51619C36.8281 7.51619 35.368 7.63588 33.9578 6.22568L32.1327 4.40066C31.3062 3.57435 30.1857 3.11015 29.017 3.11015H23.8932H23.8623C22.6916 3.11015 21.569 3.57407 20.7397 4.40057L20.7128 4.42737L17.2749 7.86518C16.5581 8.5819 16.1555 9.55407 16.1555 10.5677V11.7216C16.1555 13.8124 17.8149 15.9692 19.8832 16.2776C20.1126 16.3117 20.3389 16.3283 20.5615 16.3283V16.6216C16.9421 18.7075 9.51593 22.9138 8.04551 24.3732C6.80806 25.6111 5.87471 27.5682 5.87471 29.5464C5.87471 30.4293 5.99019 31.3273 6.50358 32.4948L2.20302 32.4837C0.986401 32.4837 0 33.4701 0 34.6867C0 35.9034 0.986401 36.8898 2.20302 36.8898H20.5396C21.6307 36.8898 22.387 35.7181 21.8595 34.7631C21.3898 33.9129 20.6476 33.2348 19.7508 32.8456C20.2553 31.8436 20.5482 31.0143 21.8136 31.0143H23.4989V35.4211C23.4989 36.2322 24.1565 36.8898 24.9675 36.8898H30.4317C31.5579 36.8898 32.2858 35.6614 31.7171 34.6888C31.0401 33.5305 29.8447 32.7124 28.4488 32.5385L28.7754 29.9256C30.5409 28.8419 31.8418 27.0413 32.1997 24.9568C32.7002 22.0401 31.4585 19.406 29.3735 17.8303V14.8595H33.7795C35.3952 14.8595 37.397 13.7259 38.2282 12.3405C38.5786 11.7569 40.0035 9.64045 39.9999 8.97963C39.996 8.21666 39.3854 7.51619 38.5291 7.51619ZM20.5551 14.8439C18.7594 14.8439 17.6241 13.3228 17.6241 11.7589V10.5681C17.6241 9.95759 17.8572 9.35975 18.3133 8.90381L21.7512 5.4661C22.2127 5.00475 22.832 4.6977 23.4989 4.61592V11.9222C23.4989 13.4932 22.2338 14.8439 20.5551 14.8439ZM2.20302 35.4211C1.79821 35.4211 1.46868 35.0916 1.46868 34.6867C1.46868 34.2818 1.79821 33.9524 2.19907 33.9524C7.5177 33.9662 6.19883 33.9627 7.3903 33.9658C7.93426 34.6801 8.02275 34.8009 8.85576 35.4211H2.20302ZM36.969 11.585C36.373 12.5782 34.9377 13.3909 33.7796 13.3909H30.0336C29.0777 13.3909 28.2702 12.7752 27.9658 11.9222H26.4362C26.6241 12.8445 27.1662 13.6321 27.9049 14.1625V18.5613C30.0204 20.1605 31.2202 21.982 30.7522 24.7084C30.3804 26.8734 29.0708 28.021 27.4057 29.0431C27.0529 31.8658 26.946 32.7194 26.8091 33.8145C28.2903 33.9989 29.6245 34.0018 30.4317 35.4212C27.3606 35.4212 28.0317 35.4212 24.9675 35.4212C24.9675 31.9002 24.9675 31.6164 24.9675 28.0778H23.4989V29.5457C23.1098 29.5457 22.8003 29.5457 21.8136 29.5457C21.3604 29.5457 20.9377 29.666 20.5368 29.8353C20.6089 27.8396 19.8867 25.8304 18.4102 24.3537L17.3717 25.3921C19.5492 27.5707 19.4159 30.7577 18.1749 32.7018L17.7346 33.5723C18.877 34.0677 19.972 34.377 20.5396 35.4212H13.2137C9.95966 35.4182 7.38984 32.7972 7.35119 29.6256C7.31998 27.8685 8.11711 26.0509 9.73064 24.849C11.3471 23.6449 20.2836 18.4768 22.0302 17.4703C22.0302 17.0709 22.0309 16.4383 22.0291 16.0588C23.737 15.452 24.9675 13.8382 24.9675 11.9222V4.57883H29.0175C29.7966 4.57883 30.5436 4.88826 31.0943 5.43911L32.919 7.26403C33.9649 8.30992 35.3401 8.89317 36.808 8.95889C36.9632 9.49285 37.3243 9.93336 37.8034 10.1943L36.969 11.585Z" fill="black"/>
</svg>
