<svg width="40" height="40" viewBox="0 0 40 40" fill="none" xmlns="http://www.w3.org/2000/svg">
<path d="M39.3333 19.3333C39.3333 8.67333 30.66 0 20 0C9.33996 0 0.666626 8.67333 0.666626 19.3333C0.666626 25.53 3.54863 31.1887 8.45129 34.8287C7.41529 35.1947 6.66663 36.1733 6.66663 37.3333C6.66663 38.804 7.86263 40 9.33329 40H30.6666C32.1373 40 33.3333 38.804 33.3333 37.3333C33.3333 36.1733 32.5846 35.1947 31.5486 34.8287C36.4513 31.1887 39.3333 25.53 39.3333 19.3333ZM32 37.3333C32 38.0687 31.402 38.6667 30.6666 38.6667H9.33329C8.59796 38.6667 7.99996 38.0687 7.99996 37.3333C7.99996 36.598 8.59796 36 9.33329 36H10.3826H29.6173H30.6666C31.402 36 32 36.598 32 37.3333ZM9.31263 10.1773L9.44129 9.36067C9.63463 8.136 10.606 7.63867 11.3786 7.58533C12.1586 7.53267 13.1813 7.89 13.542 9.07467L14.6946 12.8607C14.7813 13.1413 15.04 13.3333 15.3333 13.3333H24.6666C24.96 13.3333 25.2186 13.1413 25.3046 12.8607L26.4573 9.07467C26.818 7.89 27.8393 7.53267 28.6206 7.58533C29.3933 7.63867 30.3646 8.136 30.558 9.36067L30.6866 10.1773C31.9693 18.3027 31.1446 26.6793 28.3 34.4L28.202 34.6667H11.798L11.6993 34.4C8.85463 26.6793 8.02996 18.3027 9.31263 10.1773ZM29.676 34.504C32.494 26.6687 33.3026 18.1947 32.0033 9.96867L31.8746 9.152C31.58 7.282 30.074 6.34933 28.7133 6.25467C27.3446 6.164 25.7326 6.87533 25.1813 8.686L24.1726 12H15.8273L14.8186 8.68667C14.2673 6.87533 12.6506 6.16267 11.2866 6.25533C9.92596 6.35 8.41996 7.28267 8.12529 9.15267L7.99663 9.96933C6.69729 18.1953 7.50529 26.6693 10.324 34.5047C5.10529 31.1747 1.99996 25.5427 1.99996 19.3333C1.99996 9.408 10.0746 1.33333 20 1.33333C29.9253 1.33333 38 9.408 38 19.3333C38 25.5427 34.8946 31.1747 29.676 34.504Z" fill="black"/>
<path d="M20 24C18.5047 24 17.3334 24.878 17.3334 26C17.3334 27.122 18.5047 28 20 28C21.4954 28 22.6667 27.122 22.6667 26C22.6667 24.878 21.4954 24 20 24ZM20 26.6667C19.186 26.6667 18.6667 26.272 18.6667 26C18.6667 25.728 19.186 25.3333 20 25.3333C20.814 25.3333 21.3334 25.728 21.3334 26C21.3334 26.272 20.814 26.6667 20 26.6667Z" fill="black"/>
<path d="M24 26.6667C24 28.112 22.168 29.3333 20 29.3333C17.832 29.3333 16 28.112 16 26.6667H14.6666C14.6666 27.696 15.192 28.6327 16.0466 29.342C16.3286 31.5953 17.9913 33.3333 20 33.3333C22.0086 33.3333 23.6713 31.5953 23.9533 29.342C24.808 28.6327 25.3333 27.696 25.3333 26.6667H24ZM19.3333 31.882C18.616 31.6487 18.022 31.054 17.6726 30.26C18.1866 30.448 18.7446 30.5767 19.3333 30.632V31.882ZM20.6666 31.882V30.632C21.256 30.5767 21.814 30.448 22.3273 30.26C21.978 31.054 21.384 31.6487 20.6666 31.882Z" fill="black"/>
<path d="M15.3334 18.6667C14.2307 18.6667 13.3334 19.564 13.3334 20.6667C13.3334 21.7693 14.2307 22.6667 15.3334 22.6667C16.436 22.6667 17.3334 21.7693 17.3334 20.6667C17.3334 19.564 16.436 18.6667 15.3334 18.6667ZM15.3334 21.3333C14.9654 21.3333 14.6667 21.0347 14.6667 20.6667C14.6667 20.2987 14.9654 20 15.3334 20C15.7014 20 16 20.2987 16 20.6667C16 21.0347 15.7014 21.3333 15.3334 21.3333Z" fill="black"/>
<path d="M24.6666 18.6667C23.564 18.6667 22.6666 19.564 22.6666 20.6667C22.6666 21.7693 23.564 22.6667 24.6666 22.6667C25.7693 22.6667 26.6666 21.7693 26.6666 20.6667C26.6666 19.564 25.7693 18.6667 24.6666 18.6667ZM24.6666 21.3333C24.2986 21.3333 24 21.0347 24 20.6667C24 20.2987 24.2986 20 24.6666 20C25.0346 20 25.3333 20.2987 25.3333 20.6667C25.3333 21.0347 25.0346 21.3333 24.6666 21.3333Z" fill="black"/>
<path d="M22.778 2.8974L22.5553 4.21273C23.88 4.43606 25.1693 4.83406 26.388 5.39406L26.9453 4.1834C25.62 3.5734 24.218 3.1414 22.778 2.8974Z" fill="black"/>
<path d="M20 2.66666V3.99999C20.424 3.99999 20.854 4.01732 21.278 4.05266L21.3887 2.72466C20.928 2.68599 20.46 2.66666 20 2.66666Z" fill="black"/>
</svg>
