<svg width="40" height="40" viewBox="0 0 40 40" fill="none" xmlns="http://www.w3.org/2000/svg">
<path d="M20.7594 15.5725C21.27 17.7481 23.2225 19.375 25.5519 19.375H29.4481C31.7762 19.375 33.7281 17.75 34.2394 15.5756C35.7294 15.3381 36.875 14.055 36.875 12.5C36.875 9.39813 34.3512 6.875 31.25 6.875H31.1025C30.0994 6.08562 28.8425 5.625 27.5 5.625C26.1575 5.625 24.9006 6.08562 23.8975 6.875H23.75C20.6488 6.875 18.125 9.39813 18.125 12.5C18.125 14.045 19.2556 15.3231 20.7594 15.5725ZM25.5519 18.125C24.7281 18.125 23.9694 17.8494 23.3556 17.39C23.76 16.15 24.6813 15.1631 25.885 14.6856C26.21 15.2444 26.8081 15.625 27.5 15.625C28.1912 15.625 28.7894 15.245 29.115 14.6862C30.3187 15.1631 31.2406 16.15 31.645 17.39C31.0306 17.8494 30.2719 18.125 29.4481 18.125H25.5519ZM26.875 13.75C26.875 13.405 27.1556 13.125 27.5 13.125C27.8444 13.125 28.125 13.405 28.125 13.75C28.125 14.095 27.8444 14.375 27.5 14.375C27.1556 14.375 26.875 14.095 26.875 13.75ZM35.625 12.5C35.625 13.3194 35.0938 14.01 34.36 14.2644C34.3425 13.7969 34.27 13.335 34.1219 12.89L33.0281 9.61C32.8688 9.1325 32.65 8.68813 32.3856 8.28C34.2488 8.78188 35.625 10.4812 35.625 12.5ZM27.5 6.875C29.4738 6.875 31.2188 8.13313 31.8431 10.0056L32.9369 13.2856C33.0619 13.6613 33.1256 14.0525 33.1256 14.4481C33.1256 15.1519 32.9237 15.8075 32.5794 16.3663C31.9419 15.0006 30.7863 13.9488 29.345 13.4481C29.1994 12.5581 28.4306 11.875 27.5 11.875C26.5694 11.875 25.8012 12.5581 25.6556 13.4481C24.2137 13.9488 23.0581 15.0013 22.4213 16.3663C22.0769 15.8075 21.875 15.1519 21.875 14.4481C21.875 14.0519 21.9387 13.6606 22.0637 13.2856L23.1575 10.0056C23.7812 8.13313 25.5262 6.875 27.5 6.875ZM22.6137 8.28C22.3494 8.68813 22.13 9.1325 21.9712 9.61L20.8775 12.89C20.7294 13.335 20.6569 13.7969 20.6394 14.2644C19.9062 14.01 19.375 13.3194 19.375 12.5C19.375 10.4812 20.7512 8.78188 22.6137 8.28Z" fill="black"/>
<path d="M25.625 10.625C25.9702 10.625 26.25 10.3452 26.25 10C26.25 9.65482 25.9702 9.375 25.625 9.375C25.2798 9.375 25 9.65482 25 10C25 10.3452 25.2798 10.625 25.625 10.625Z" fill="black"/>
<path d="M29.375 10.625C29.7202 10.625 30 10.3452 30 10C30 9.65482 29.7202 9.375 29.375 9.375C29.0298 9.375 28.75 9.65482 28.75 10C28.75 10.3452 29.0298 10.625 29.375 10.625Z" fill="black"/>
<path d="M39.375 12.5C39.375 5.95187 34.0481 0.625 27.5 0.625C20.9519 0.625 15.625 5.95187 15.625 12.5C15.625 16.4412 17.5631 19.9306 20.5275 22.0919C20.1538 22.3 19.75 22.4525 19.3231 22.5269L14.9525 23.2869C10.9963 23.9744 8.125 27.3888 8.125 31.4044C8.125 32.2875 8.27812 33.1406 8.54063 33.9519C6.79875 33.1825 5.625 31.4506 5.625 29.4631C5.625 27.705 6.57375 26.0706 8.1 25.1987L9.32438 24.4994C9.74125 24.2606 10 23.815 10 23.3344C10 22.9431 9.83 22.5719 9.5325 22.3169C9.235 22.0625 8.84375 21.95 8.45563 22.0094L8.00125 22.0788C3.72687 22.7362 0.625 26.3525 0.625 30.6763C0.625 35.4731 4.52688 39.375 9.32312 39.375H13.5706H14.375H27.5V38.125C27.5 36.5 26.2488 35.1763 24.6619 35.0288C25.9088 34.2525 26.9438 33.1356 27.6325 31.7581L27.8862 31.25H28.1713L28.6419 37.3719C28.7281 38.495 29.6788 39.375 30.8056 39.375H33.455C34.6512 39.375 35.625 38.4012 35.625 37.205C35.625 36.3775 35.1656 35.6331 34.425 35.2638L33.6338 34.8681C33.32 34.7113 33.125 34.3956 33.125 34.045V26.6419C33.125 25.4706 32.9594 24.3106 32.6512 23.1831C36.6225 21.26 39.375 17.2006 39.375 12.5ZM27.5 1.875C33.3587 1.875 38.125 6.64125 38.125 12.5C38.125 13.3831 38.005 14.2362 37.8013 15.0569C35.6194 18.39 31.4937 20.625 27.5 20.625C23.5063 20.625 19.3806 18.39 17.1987 15.0569C16.995 14.2362 16.875 13.3831 16.875 12.5C16.875 6.64125 21.6413 1.875 27.5 1.875ZM1.875 30.6763C1.875 26.9738 4.53125 23.8775 8.19062 23.3144L8.645 23.245C8.67188 23.2425 8.69687 23.2475 8.71875 23.2663C8.73938 23.2838 8.75 23.3069 8.75 23.3344C8.75 23.3675 8.7325 23.3981 8.70438 23.4138L7.48 24.1131C5.56438 25.2075 4.375 27.2569 4.375 29.4631C4.375 32.3769 6.38562 34.8519 9.19687 35.4731C9.7875 36.5131 10.615 37.4144 11.625 38.1256H9.32312C5.21625 38.125 1.875 34.7831 1.875 30.6763ZM31.875 26.6419V34.045C31.875 34.8725 32.3344 35.6169 33.075 35.9862L33.8662 36.3819C34.18 36.5387 34.375 36.8544 34.375 37.205C34.375 37.7125 33.9619 38.125 33.455 38.125H30.8056C30.3275 38.125 29.925 37.7519 29.8881 37.2756L29.3287 30H27.1138L26.5144 31.1994C25.3419 33.5438 22.9856 35 20.3644 35H19.375V34.375C19.375 32.1744 17.7425 30.3487 15.625 30.0444V27.5H14.375V31.25H15C16.7231 31.25 18.125 32.6519 18.125 34.375V36.25H19.375H20.3644H24.375C25.4088 36.25 26.25 37.0913 26.25 38.125H14.375H13.9294L12.6606 37.3319C10.6031 36.0462 9.375 33.83 9.375 31.4044C9.375 27.9981 11.8106 25.1019 15.1669 24.5181L19.5375 23.7581C20.3162 23.6225 21.0419 23.3 21.6731 22.835C23.3969 23.8112 25.3825 24.375 27.5 24.375C28.9013 24.375 30.2406 24.1181 31.49 23.6706C31.7412 24.6413 31.875 25.6369 31.875 26.6419ZM27.5 23.125C23.9919 23.125 20.8844 21.4088 18.9487 18.7794C21.37 20.7063 24.4694 21.875 27.5 21.875C30.5306 21.875 33.63 20.7063 36.0513 18.7794C34.1156 21.4088 31.0081 23.125 27.5 23.125Z" fill="black"/>
<path d="M25.7075 4.57313L25.4337 3.35376C24.9981 3.45126 24.5669 3.58126 24.1519 3.74063L24.5987 4.90751C24.9575 4.77063 25.3306 4.65813 25.7075 4.57313Z" fill="black"/>
<path d="M28.015 4.39131L28.0938 3.14381C27.65 3.11568 27.1969 3.11881 26.7569 3.15381L26.8531 4.40006C27.2356 4.37068 27.6306 4.36693 28.015 4.39131Z" fill="black"/>
<path d="M30.7069 3.68691C30.2869 3.53504 29.8531 3.41191 29.4187 3.32129L29.165 4.54566C29.5412 4.62316 29.9162 4.73004 30.28 4.86254L30.7069 3.68691Z" fill="black"/>
<path d="M12.705 34.0118L11.6875 34.7381C12.0781 35.2856 12.5612 35.7574 13.1219 36.1406L13.8275 35.1093C13.3881 34.8081 13.01 34.4393 12.705 34.0118Z" fill="black"/>
<path d="M11.875 31.4044C11.875 30.3513 12.2444 29.3294 12.9163 28.5256L11.9569 27.725C11.0981 28.7525 10.625 30.0594 10.625 31.4044C10.625 32.3206 10.8444 33.2306 11.2594 34.0363L12.3706 33.4638C12.0462 32.8344 11.875 32.1225 11.875 31.4044Z" fill="black"/>
<path d="M19.375 32.5H20.625V33.75H19.375V32.5Z" fill="black"/>
<path d="M21.6969 32.345L22.0531 33.5425C24.1563 32.9169 25.625 30.9462 25.625 28.75H24.375C24.375 30.3975 23.2738 31.8756 21.6969 32.345Z" fill="black"/>
</svg>
