<svg width="40" height="40" viewBox="0 0 40 40" fill="none" xmlns="http://www.w3.org/2000/svg">
<g clip-path="url(#clip0)">
<path d="M2.62704 14.6554C2.8373 15.3763 3.12909 16.0715 3.49812 16.7237L2.44682 18.0496C2.10353 18.483 2.14215 19.1009 2.52835 19.4914L4.33916 21.3022C4.72964 21.6927 5.34755 21.727 5.78094 21.3837L7.09828 20.341C7.77626 20.7315 8.49716 21.0361 9.24809 21.2507L9.44547 22.9456C9.50984 23.4949 9.97327 23.9068 10.5225 23.9068H13.0843C13.6335 23.9068 14.0969 23.4948 14.1613 22.9456L14.3501 21.3107C15.1568 21.1005 15.9292 20.7872 16.6544 20.3796L17.9288 21.388C18.3622 21.7313 18.9801 21.6926 19.3706 21.3065L21.1814 19.4956C21.5719 19.1052 21.6062 18.4873 21.2629 18.0539L20.2717 16.7966C20.6837 16.0842 21.0055 15.3248 21.22 14.5309L22.7476 14.355C23.2969 14.2906 23.7088 13.8272 23.7088 13.278V10.7162C23.7088 10.167 23.2969 9.70354 22.7476 9.63917L21.2415 9.46324C21.0355 8.67798 20.7266 7.92705 20.3318 7.22333L21.2587 6.05188C21.602 5.61849 21.5634 5.00058 21.1772 4.6101L19.3706 2.80358C18.9802 2.41309 18.3623 2.37876 17.9289 2.72205L16.7917 3.62316C16.0537 3.18977 15.2641 2.85936 14.436 2.63623L14.2643 1.16441C14.2 0.615155 13.7365 0.203217 13.1873 0.203217H10.6255C10.0763 0.203217 9.61286 0.615155 9.5485 1.16441L9.37686 2.63623C8.52724 2.86365 7.71623 3.20693 6.96101 3.65749L5.78098 2.72205C5.34759 2.37876 4.72968 2.41738 4.3392 2.80358L2.52839 4.61439C2.13791 5.00487 2.10358 5.62278 2.44686 6.05617L3.43379 7.30486C3.03902 8.01717 2.73865 8.77668 2.54126 9.56622L0.962165 9.74645C0.412915 9.81081 0.000976562 10.2742 0.000976562 10.8235V13.3852C0.000976562 13.9345 0.412915 14.3979 0.962165 14.4623L2.62704 14.6554ZM11.9085 7.72542C14.2428 7.72542 16.1438 9.62634 16.1438 11.9607C16.1438 14.295 14.2428 16.1959 11.9085 16.1959C9.57425 16.1959 7.67328 14.295 7.67328 11.9607C7.67328 9.62634 9.5742 7.72542 11.9085 7.72542Z" fill="black"/>
<path d="M37.2331 15.2863L35.8815 14.1448C35.4653 13.793 34.8516 13.8101 34.4569 14.1835L33.7103 14.8829C33.0795 14.5782 32.4101 14.3637 31.7192 14.2392L31.5091 13.2094C31.4018 12.6773 30.9083 12.3083 30.3676 12.3512L28.6039 12.5014C28.0633 12.5486 27.6385 12.9906 27.6213 13.5355L27.587 14.5825C26.909 14.8271 26.2696 15.1618 25.686 15.5823L24.7936 14.9902C24.3386 14.6898 23.7336 14.7756 23.3818 15.1919L22.2404 16.5521C21.8885 16.9683 21.9057 17.582 22.2789 17.9767L23.0599 18.8091C22.7896 19.4185 22.5965 20.0579 22.4849 20.7144L21.3693 20.9418C20.8372 21.0491 20.4682 21.5425 20.5111 22.0832L20.6613 23.8468C20.7085 24.3875 21.1504 24.8123 21.6954 24.8295L22.9012 24.8681C23.1201 25.4431 23.4076 25.9881 23.7551 26.4987L23.0814 27.5156C22.7811 27.9705 22.8669 28.5755 23.2831 28.9274L24.6347 30.0688C25.051 30.4206 25.6646 30.4035 26.0594 30.0302L26.9434 29.202C27.5227 29.4723 28.1319 29.674 28.7584 29.7942L29.0031 31.0042C29.1103 31.5363 29.6038 31.9053 30.1445 31.8624L31.9081 31.7122C32.4487 31.665 32.8736 31.2231 32.8907 30.6781L32.9293 29.4937C33.573 29.2663 34.1823 28.9574 34.7444 28.5755L35.7185 29.2192C36.1734 29.5195 36.7783 29.4337 37.1303 29.0175L38.2717 27.6658C38.6235 27.2496 38.6063 26.636 38.233 26.2412L37.4477 25.4088C37.7353 24.7994 37.9456 24.1558 38.0656 23.4949L39.1384 23.2761C39.6705 23.1688 40.0395 22.6754 39.9966 22.1346L39.8464 20.371C39.7992 19.8304 39.3572 19.4055 38.8123 19.3884L37.7352 19.3541C37.5121 18.7276 37.2117 18.1354 36.8384 17.5862L37.4262 16.7022C37.7352 16.2474 37.6494 15.6381 37.2331 15.2863ZM30.5864 25.4817C28.6812 25.6448 26.9991 24.2244 26.8403 22.3192C26.6772 20.414 28.0976 18.7319 30.0028 18.5731C31.908 18.4101 33.5902 19.8304 33.7489 21.7356C33.912 23.6409 32.4916 25.323 30.5864 25.4817Z" fill="black"/>
<path d="M8.79658 30.2276C8.25592 30.2834 7.83969 30.7382 7.8354 31.2832L7.82252 32.3688C7.81394 32.9138 8.2173 33.3772 8.75796 33.4459L9.55609 33.5488C9.68912 34.0338 9.87792 34.4972 10.1225 34.9349L9.60759 35.57C9.2643 35.9947 9.29005 36.6041 9.67195 36.9946L10.4315 37.7713C10.8134 38.1617 11.4227 38.2047 11.8561 37.87L12.4954 37.3765C12.946 37.6425 13.4223 37.8528 13.92 37.9987L14.0058 38.8226C14.0616 39.3632 14.5165 39.7795 15.0614 39.7837L16.1471 39.7966C16.692 39.8052 17.1555 39.4018 17.2241 38.8612L17.3228 38.0802C17.8636 37.9471 18.3785 37.7455 18.8676 37.4795L19.4684 37.9644C19.8932 38.3076 20.5025 38.2819 20.893 37.9L21.6697 37.1405C22.0602 36.7586 22.1031 36.1493 21.7684 35.7159L21.3092 35.1194C21.5924 34.6474 21.8113 34.1453 21.9615 33.6175L22.6738 33.5446C23.2145 33.4888 23.6306 33.0339 23.635 32.489L23.6478 31.4033C23.6564 30.8584 23.2531 30.3949 22.7124 30.3262L22.0172 30.2361C21.8842 29.7126 21.6869 29.2063 21.4294 28.7343L21.8628 28.2022C22.2061 27.7774 22.1803 27.1681 21.7984 26.7776L21.039 26.0009C20.6571 25.6104 20.0476 25.5675 19.6143 25.9022L19.095 26.3013C18.6059 26.0052 18.0824 25.7778 17.5331 25.6233L17.4644 24.9496C17.4087 24.4089 16.9539 23.9927 16.4089 23.9884L15.3232 23.9755C14.7783 23.967 14.3148 24.3703 14.2461 24.911L14.1603 25.5804C13.5939 25.7263 13.049 25.9494 12.5426 26.2412L12.0063 25.8035C11.5815 25.4602 10.9721 25.486 10.5816 25.8679L9.80064 26.6317C9.41016 27.0136 9.36725 27.6229 9.70195 28.0563L10.1611 28.6485C9.89504 29.1205 9.68478 29.6225 9.54747 30.1504L8.79658 30.2276ZM15.8038 29.0003C17.3615 29.0175 18.6101 30.3005 18.593 31.8582C18.5758 33.4158 17.2928 34.6645 15.7351 34.6474C14.1775 34.6302 12.9288 33.3472 12.946 31.7895C12.9632 30.2319 14.2462 28.9832 15.8038 29.0003Z" fill="black"/>
</g>
<defs>
<clipPath id="clip0">
<rect width="40" height="40" fill="white"/>
</clipPath>
</defs>
</svg>
