<svg width="40" height="40" viewBox="0 0 40 40" fill="none" xmlns="http://www.w3.org/2000/svg">
<g clip-path="url(#clip0)">
<path d="M39.8945 20.4274C36.5629 14.4637 31.0861 10.8169 24.6668 10.1411C21.4484 6.07628 11.3498 5.0465 10.914 5.00408C10.63 4.97478 10.3443 5.09846 10.1701 5.32963C9.99514 5.55916 9.95201 5.86346 10.0562 6.13284C11.0463 8.70285 12.0606 11.6261 12.3291 12.822C10.4952 13.6612 8.89232 14.5535 7.85895 15.2971C5.61769 11.7115 1.04251 11.6667 0.833364 11.6667C0.372737 11.6667 0 12.0394 0 12.5001C0 17.3284 1.68298 19.7519 2.80845 20.8335C1.68298 21.915 0 24.3385 0 29.1668C0 29.6274 0.372737 30.0002 0.833364 30.0002C1.04251 30.0002 5.61777 29.9554 7.85895 26.3698C9.23185 27.3577 11.6056 28.607 14.1995 29.6456C13.6263 30.5727 13.3334 32.0474 13.3334 34.1668C13.3334 34.6275 13.7062 35.0002 14.1668 35.0002C14.4146 35.0002 20.0815 34.9511 22.9037 31.6406C30.0811 31.5019 36.2615 27.7428 39.8945 21.2395C40.0352 20.9872 40.0352 20.6796 39.8945 20.4274ZM12.1021 6.82948C14.9022 7.2348 19.4992 8.23199 22.097 10.0169C19.7017 10.1105 16.6454 11.0161 13.8748 12.1526C13.5059 10.6877 12.6874 8.39918 12.1021 6.82948ZM15.0196 33.2855C15.1306 30.9674 15.6655 30.375 15.8154 30.2538C17.4393 30.8238 19.0846 31.2767 20.5786 31.5041C18.7709 32.776 16.3066 33.1719 15.0196 33.2855ZM15.7187 30.2231L15.719 30.2209C15.7213 30.2217 15.7236 30.2223 15.7258 30.2231C15.7211 30.2225 15.7237 30.2238 15.7187 30.2231ZM22.5001 30.0002C17.6303 30.0002 9.66803 26.0019 8.19341 24.4931C8.03552 24.3311 7.81989 24.2425 7.5977 24.2425C7.54723 24.2425 7.49598 24.2474 7.44551 24.2563C7.17285 24.3068 6.94254 24.4907 6.8327 24.7454C5.708 27.3536 3.06314 28.0657 1.6886 28.2602C1.949 23.038 4.42057 21.6424 4.54753 21.5748C4.82175 21.434 4.99104 21.15 4.99511 20.8416C4.99917 20.5299 4.82417 20.2394 4.54831 20.0929C4.43682 20.0335 1.95064 18.6476 1.6886 13.4116C3.06228 13.6126 5.71691 14.3352 6.8327 16.9215C6.94254 17.1762 7.17285 17.3602 7.44551 17.4106C7.72059 17.4618 7.99973 17.3723 8.19341 17.1738C9.66803 15.6649 17.6303 11.6667 22.5001 11.6667C29.0798 11.6667 34.7789 15.0009 38.2066 20.8334C34.7789 26.666 29.0798 30.0002 22.5001 30.0002Z" fill="black"/>
<path d="M25.0001 20.8334C25.0001 16.9988 26.513 14.6501 26.5285 14.6265C26.7808 14.2424 26.675 13.7264 26.2925 13.4725C25.91 13.2203 25.3941 13.3236 25.1401 13.7045C25.0661 13.8152 23.3335 16.4649 23.3335 20.8334C23.3335 25.202 25.0661 27.8517 25.1401 27.9624C25.3005 28.2032 25.565 28.3335 25.8343 28.3335C25.993 28.3335 26.1533 28.2879 26.2957 28.1935C26.679 27.9379 26.7823 27.4212 26.5268 27.0378C26.5114 27.0152 25.0001 24.7031 25.0001 20.8334Z" fill="black"/>
<path d="M22.9591 13.4726C22.5758 13.2203 22.0615 13.3236 21.8068 13.7045C21.7327 13.8151 20.0001 16.4649 20.0001 20.8334C20.0001 23.1666 20.503 25 20.9254 26.1271C21.0508 26.4616 21.3682 26.6683 21.7059 26.6683C21.8028 26.6683 21.902 26.6512 21.9981 26.6154C22.4294 26.4543 22.6476 25.9742 22.4864 25.5428C22.1129 24.5443 21.6669 22.9167 21.6669 20.8334C21.6669 16.9987 23.1798 14.6501 23.1952 14.6265C23.4474 14.2424 23.3416 13.7265 22.9591 13.4726Z" fill="black"/>
<path d="M30 19.9999C30.9205 19.9999 31.6667 19.2537 31.6667 18.3333C31.6667 17.4128 30.9205 16.6666 30 16.6666C29.0796 16.6666 28.3334 17.4128 28.3334 18.3333C28.3334 19.2537 29.0796 19.9999 30 19.9999Z" fill="black"/>
</g>
<defs>
<clipPath id="clip0">
<rect width="40" height="40" fill="white"/>
</clipPath>
</defs>
</svg>
