<svg width="40" height="40" viewBox="0 0 40 40" fill="none" xmlns="http://www.w3.org/2000/svg">
<path d="M33.8693 5.66008C30.1356 3.57187 25.2101 2.42188 20 2.42188C14.7899 2.42188 9.86438 3.57187 6.1307 5.66008C2.17727 7.87117 0 10.883 0 14.1406V25.8594C0 29.1171 2.17727 32.1289 6.1307 34.3399C9.86438 36.4281 14.7899 37.5781 20 37.5781C25.2101 37.5781 30.1356 36.4281 33.8693 34.3399C37.8227 32.1289 40 29.1171 40 25.8594V14.1406C40 10.883 37.8227 7.87117 33.8693 5.66008ZM32.7253 32.2944C29.3354 34.1902 24.8161 35.2344 20 35.2344C15.1839 35.2344 10.6646 34.1902 7.27469 32.2944C4.09492 30.5159 2.34375 28.2307 2.34375 25.8594V19.6759C2.41633 19.7556 2.49 19.8352 2.56578 19.9139C4.09102 21.4986 6.27039 22.8743 8.86828 23.8922C9.22352 24.0313 9.45305 24.3436 9.45305 24.6875V27.0312C9.45305 28.9698 11.0302 30.5469 12.9687 30.5469H27.0312C28.9697 30.5469 30.5468 28.9698 30.5468 27.0312V24.6875C30.5468 24.3435 30.7763 24.0313 31.1315 23.8922C33.7295 22.8743 35.9088 21.4986 37.4341 19.9139C37.5099 19.8351 37.5835 19.7556 37.6562 19.6758V25.8594H37.6562C37.6562 28.2307 35.9051 30.5159 32.7253 32.2944ZM30.2766 21.7099C29.017 22.2035 28.2031 23.3723 28.2031 24.6875V27.0312C28.2031 27.6774 27.6774 28.2031 27.0312 28.2031H12.9688C12.3226 28.2031 11.7969 27.6774 11.7969 27.0312V24.6875C11.7969 23.3722 10.983 22.2034 9.72336 21.7099C5.1025 19.8995 2.34375 17.0698 2.34375 14.1406C2.34375 11.7694 4.09492 9.48406 7.27469 7.70563C10.6646 5.80977 15.1839 4.76562 20 4.76562C24.8161 4.76562 29.3354 5.80977 32.7253 7.70563C35.9051 9.48406 37.6562 11.7694 37.6562 14.1406C37.6562 17.0698 34.8975 19.8995 30.2766 21.7099Z" fill="black"/>
<path d="M30.8248 9.38711C27.8727 7.91828 24.0284 7.10938 20 7.10938C15.9717 7.10938 12.1274 7.91828 9.17531 9.38711C6.41414 10.7609 4.76562 12.538 4.76562 14.1406C4.76562 16.0302 7.04648 18.1445 10.5767 19.5269C12.7417 20.3741 14.1406 22.3998 14.1406 24.6875C14.1406 25.3347 14.6653 25.8594 15.3125 25.8594H24.6875C25.3347 25.8594 25.8594 25.3347 25.8594 24.6875C25.8594 22.3998 27.2574 20.3745 29.4213 19.5279C29.9037 19.3389 30.362 19.1359 30.7951 18.9221C30.7998 18.9199 30.8044 18.9174 30.809 18.9152C33.5383 17.5646 35.2344 15.7692 35.2344 14.1406C35.2344 12.538 33.5859 10.7609 30.8248 9.38711ZM23.6022 23.5156H16.3977C15.9929 20.8044 14.1974 18.4913 11.5858 17.4079C13.5654 15.3663 16.6592 14.1406 20 14.1406C23.3409 14.1406 26.4348 15.3663 28.4143 17.408C25.8025 18.4904 24.007 20.8037 23.6022 23.5156ZM31.9733 15.3762C31.6687 15.6488 31.2272 15.9902 30.618 16.3538C28.2295 13.5207 24.2646 11.7969 20 11.7969C15.7353 11.7969 11.7705 13.5208 9.38195 16.3539C8.77258 15.9902 8.33102 15.6488 8.02641 15.3762C7.28656 14.7139 7.11211 14.2503 7.10938 14.1406C7.10938 13.8448 7.84641 12.6662 10.2194 11.4855C12.8534 10.1749 16.327 9.45312 20 9.45312C23.6731 9.45312 27.1466 10.1749 29.7806 11.4855C32.1535 12.6661 32.8906 13.8448 32.8906 14.1402C32.8879 14.2503 32.7134 14.7139 31.9733 15.3762Z" fill="black"/>
</svg>
