<svg width="40" height="40" viewBox="0 0 40 40" fill="none" xmlns="http://www.w3.org/2000/svg">
<g clip-path="url(#clip0)">
<path d="M8.3871 16.129C8.3871 15.0619 7.51871 14.1935 6.45161 14.1935C5.38452 14.1935 4.51613 15.0619 4.51613 16.129C4.51613 17.1961 5.38452 18.0645 6.45161 18.0645C7.51871 18.0645 8.3871 17.1961 8.3871 16.129ZM5.80645 16.129C5.80645 15.7735 6.09548 15.4839 6.45161 15.4839C6.80774 15.4839 7.09677 15.7735 7.09677 16.129C7.09677 16.4845 6.80774 16.7742 6.45161 16.7742C6.09548 16.7742 5.80645 16.4845 5.80645 16.129ZM12.9032 9.03226H11.6129V7.40129C11.6129 5.37548 12.7381 3.55484 14.5503 2.64839L15.1277 3.80258C13.7555 4.48903 12.9032 5.86774 12.9032 7.40129V9.03226ZM14.1935 9.03226C14.1935 7.59613 15.1084 6.32645 16.4703 5.8729L16.5703 5.83935L16.9774 7.06387L16.8781 7.09677C16.0445 7.37484 15.4839 8.1529 15.4839 9.03226H14.1935ZM6.74387 20.32C8.95742 18.8445 11.5335 18.0645 14.1935 18.0645V19.3548C11.7884 19.3548 9.46064 20.06 7.45935 21.3935L6.80903 21.8271L6.09355 20.7535L6.74387 20.32ZM7.72581 21.8677C9.32516 21.0677 11.1155 20.6452 12.9032 20.6452V21.9355C11.3148 21.9355 9.72387 22.311 8.30258 23.0219L8.03032 23.1581L7.4529 22.0039L7.72581 21.8677ZM33.969 14.6852L35.2058 13.4484L34.551 13.0116C33.1794 12.0968 31.5813 11.6129 29.9323 11.6129H28.7865L29.4316 10.3226H28.3871C26.1652 10.3226 23.9703 10.9052 22.0406 12.0077L20.9813 12.6129C20.1381 13.0948 19.0168 12.9439 18.3316 12.2581L17.7652 11.6916C19.5032 10.4768 20.6452 8.46387 20.6452 6.18645C20.6452 2.77548 17.8697 0 14.4581 0C14.1955 0 13.9387 0.0529032 13.6961 0.156774C11.6058 1.05226 10.0645 2.79935 9.39806 4.89097C8.32194 4.23161 7.07871 3.87097 5.80645 3.87097H4.91097L5.55677 5.80839C4.25935 5.84323 3.04452 6.36452 2.12452 7.28581L1.49226 7.91871L4.10323 9.22452C2.28323 11.3374 1.29032 14.0026 1.29032 16.82V21.0039C0.522581 21.4516 0 22.2748 0 23.2258C0 23.8826 0.254193 24.4761 0.659355 24.9323C0.260645 25.2613 0 25.7535 0 26.3103C0 26.4568 0.0174194 26.6032 0.0535484 26.7458L1.64 33.089C2.27613 35.6387 4.55677 37.4194 7.18645 37.4194C8.88323 37.4194 10.4594 36.6774 11.5387 35.4058C12.0916 35.851 12.7845 36.129 13.5484 36.129C14.28 36.129 14.911 35.7161 15.2394 35.1155L16.1123 35.5523C16.4677 35.7297 16.8439 35.8645 17.229 35.9606C16.9432 36.3761 16.7742 36.8781 16.7742 37.4194C16.7742 38.8426 17.9316 40 19.3548 40H28.4484C31.6097 40 34.3884 38.3523 35.9865 35.8742C36.8194 36.8432 38.0316 37.4194 39.3548 37.4194H40V25.2774C40 20.8794 37.711 16.8974 33.969 14.6852ZM2.58065 21.9355C3.29226 21.9355 3.87097 22.5142 3.87097 23.2258C3.87097 23.9374 3.29226 24.5161 2.58065 24.5161C1.86903 24.5161 1.29032 23.9374 1.29032 23.2258C1.29032 22.5142 1.86903 21.9355 2.58065 21.9355ZM15.2006 29.329C14.8613 28.7671 14.251 28.3871 13.5484 28.3871C13.0181 28.3871 12.5245 28.5284 12.0826 28.7561C11.6716 28.0697 11.1271 27.4877 10.4845 27.0348C11.2187 27.0755 11.9535 27.0968 12.6884 27.0968C14.2284 27.0968 15.6445 26.5665 16.7742 25.6865V26.1471C16.7742 27.4187 16.1819 28.5768 15.2006 29.329ZM7.18645 36.129C5.15097 36.129 3.38452 34.7503 2.89161 32.7755L1.30581 26.4335C1.29548 26.3935 1.29032 26.3516 1.29032 26.3103C1.29032 25.9916 1.60258 25.7439 1.91677 25.8219L8.26 27.4077C9.47355 27.711 10.4742 28.4948 11.0658 29.5794C10.6084 30.1355 10.3226 30.8381 10.3226 31.6129V32.9032C10.3226 33.4394 10.4665 33.9381 10.6994 34.3839C9.86322 35.48 8.57935 36.129 7.18645 36.129ZM14.1935 34.1935C14.1935 34.549 13.9045 34.8387 13.5484 34.8387C12.4813 34.8387 11.6129 33.9703 11.6129 32.9032V31.6129C11.6129 30.5458 12.4813 29.6774 13.5484 29.6774C13.9045 29.6774 14.1935 29.9671 14.1935 30.3226V34.1935ZM23.1006 33.6903L24.249 34.8387H22.0748C22.4664 34.509 22.8116 34.1232 23.1006 33.6903ZM38.7097 36.0639C37.8594 35.8897 37.1226 35.3729 36.6626 34.6226C37.1465 33.5206 37.4194 32.3064 37.4194 31.0284C37.4194 30.0626 37.2645 29.1077 36.9587 28.1916L36.7406 27.5381L35.5174 27.9465L35.7355 28.6C35.9968 29.3852 36.129 30.2019 36.129 31.029C36.129 35.2639 32.6832 38.7097 28.4484 38.7097H24.1574C24.3794 38.3284 24.5161 37.8916 24.5161 37.4194H23.2258C23.2258 38.131 22.6471 38.7097 21.9355 38.7097C21.2239 38.7097 20.6452 38.131 20.6452 37.4194H19.3548C19.3548 37.8916 19.4916 38.3284 19.7135 38.7097H19.3548C18.6432 38.7097 18.0645 38.131 18.0645 37.4194C18.0645 36.7077 18.6432 36.129 19.3548 36.129H27.3639L23.7503 32.5155C22.58 31.3452 21.9355 29.789 21.9355 28.1329C21.9355 24.7161 24.7161 21.9355 28.1329 21.9355C29.8226 21.9355 31.4968 22.4935 32.8484 23.5077L33.1613 23.7419L33.9355 22.7097L33.6232 22.4755C32.0497 21.2948 30.1 20.6452 28.1329 20.6452C24.0045 20.6452 20.6452 24.0045 20.6452 28.1329C20.6452 29.8039 21.1948 31.3865 22.1981 32.6877C21.4665 34.0019 20.0813 34.8387 18.5574 34.8387C17.9129 34.8387 17.2671 34.6865 16.6897 34.3974L15.4839 33.7948V30.6897C17.0806 29.7316 18.0645 28.0329 18.0645 26.1471V24.3555C18.8716 23.2529 19.3548 21.8981 19.3548 20.4297C19.3548 18.3419 18.3581 16.3484 16.6884 15.0968L16.5161 14.9677L15.7413 16L15.9142 16.129C17.2606 17.1387 18.0645 18.7465 18.0645 20.4303C18.0645 23.3948 15.6529 25.8064 12.6884 25.8064C9.94194 25.8064 7.19161 25.5065 4.50839 24.9239C4.90968 24.469 5.16129 23.8787 5.16129 23.2258C5.16129 21.8026 4.00387 20.6452 2.58065 20.6452V16.82C2.58065 14.051 3.65935 11.4471 5.61742 9.48839L6.25032 8.85548L3.77871 7.62C4.3529 7.27871 5.01032 7.09677 5.69548 7.09677H7.3471L6.7271 5.23806C7.58387 5.38129 8.39419 5.73419 9.09871 6.24968C9.05742 6.57226 9.03226 6.89806 9.03226 7.22903V9.03226H10.3226V7.22903C10.3226 4.66323 11.8458 2.3529 14.2039 1.34258C14.2852 1.30774 14.3703 1.29032 14.4581 1.29032C17.1581 1.29032 19.3548 3.4871 19.3548 6.18645C19.3548 9.17871 16.9213 11.6129 13.929 11.6129H12.9032V12.9032H13.929C14.8768 12.9032 15.7781 12.7032 16.5968 12.3477L17.4194 13.171C18.0794 13.8303 18.9568 14.1935 19.889 14.1935C20.4955 14.1935 21.0948 14.0342 21.6219 13.7335L22.6813 13.1284C24.1058 12.3142 25.691 11.8155 27.3187 11.6632L26.6981 12.9032H29.9323C31.0594 12.9032 32.1568 13.1703 33.1484 13.6813L31.8142 15.0155L32.6148 15.4161C36.3742 17.2955 38.7097 21.0742 38.7097 25.2774V36.0639ZM8.55419 32.9432L9.51032 33.809C9.07613 34.289 8.51419 34.6181 7.88452 34.7613L7.59871 33.5032C7.96903 33.4181 8.29871 33.2252 8.55419 32.9432ZM6.64129 33.4671L6.26194 34.7C5.21935 34.3794 4.40774 33.5219 4.14323 32.4619L3.48645 29.8342L4.73742 29.5213L5.39484 32.1497C5.5529 32.7832 6.01871 33.2755 6.64129 33.4671Z" fill="#686262"/>
</g>
<defs>
<clipPath id="clip0">
<rect width="40" height="40" fill="white"/>
</clipPath>
</defs>
</svg>
