<svg width="40" height="40" viewBox="0 0 40 40" fill="none" xmlns="http://www.w3.org/2000/svg">
<g clip-path="url(#clip0)">
<path d="M16.0397 31.9881C15.6717 31.9881 15.3733 32.2866 15.3733 32.6548V33.3213C15.3684 34.4332 16.0571 35.43 17.0982 35.8194C18.1396 36.2087 19.3135 35.9082 20.0394 35.0663C20.7653 35.9082 21.9388 36.2087 22.9802 35.8194C24.0217 35.43 24.71 34.4332 24.7051 33.3213V32.6548C24.7051 32.2866 24.4067 31.9881 24.0387 31.9881C23.6704 31.9881 23.372 32.2866 23.372 32.6548V33.3213C23.372 34.0575 22.7752 34.6544 22.0389 34.6544C21.3026 34.6544 20.7058 34.0575 20.7058 33.3213V31.1963C20.9404 31.11 21.1525 30.9711 21.3258 30.7908L22.3236 29.7241C22.7014 29.3372 22.8088 28.7608 22.5952 28.2637C22.3096 27.6684 21.6984 27.2986 21.0384 27.3221H19.0401C18.3801 27.2986 17.7692 27.6684 17.4836 28.2637C17.2703 28.7605 17.3771 29.3369 17.7546 29.7241L18.7536 30.7908C18.9266 30.9711 19.1383 31.11 19.3727 31.1963V33.3213C19.3727 34.0575 18.7758 34.6544 18.0396 34.6544C17.3033 34.6544 16.7064 34.0575 16.7064 33.3213V32.6548C16.7064 32.2866 16.408 31.9881 16.0397 31.9881ZM18.7054 28.7971C18.7133 28.766 18.8131 28.6552 19.0401 28.6552H21.0384C21.2657 28.6552 21.3652 28.766 21.3502 28.8129L20.3524 29.8794C20.1657 30.0142 19.9137 30.0142 19.7269 29.8794L18.7054 28.7971Z" fill="black"/>
<path d="M11.6167 25.0476C12.803 24.5838 13.7471 24.5289 14.4248 24.8871C14.8974 25.1593 15.2441 25.607 15.3887 26.133C15.4726 26.4863 15.8238 26.7076 16.1787 26.6304C16.5336 26.5535 16.7615 26.2062 16.6913 25.8501C16.4637 24.9488 15.8781 24.1792 15.0698 23.7203C14.0327 23.1622 12.7081 23.1909 11.1309 23.8058C10.7879 23.94 10.6186 24.3266 10.7525 24.6696C10.8868 25.0126 11.2734 25.1819 11.6167 25.0476Z" fill="black"/>
<path d="M23.2329 26.641C23.4056 26.6776 23.5862 26.6443 23.7345 26.5482C23.8828 26.4518 23.9869 26.3005 24.0238 26.1278C24.1663 25.6075 24.5077 25.1645 24.974 24.8938C25.6517 24.5286 26.6009 24.581 27.7952 25.047C28.1382 25.1812 28.5251 25.0119 28.659 24.6689C28.7933 24.326 28.624 23.939 28.281 23.8051C26.7044 23.1899 25.3795 23.1613 24.3421 23.7193C23.5338 24.1786 22.9479 24.9481 22.7206 25.8495C22.6834 26.0222 22.7166 26.2028 22.8124 26.3514C22.9085 26.4997 23.0599 26.6041 23.2329 26.641Z" fill="black"/>
<path d="M2.70849 25.9885C3.31509 25.9892 3.92139 26.0273 4.52341 26.1024C4.21004 27.1468 4.04771 28.231 4.04161 29.3215V29.3273C3.44081 29.5046 2.86777 29.7648 2.33867 30.0999C2.1382 30.2311 2.02347 30.4596 2.03812 30.6989C2.05276 30.9381 2.19465 31.1508 2.40977 31.2563C2.62488 31.3619 2.87997 31.3439 3.07831 31.2093C3.41334 30.9951 3.77309 30.8218 4.14963 30.6931C4.26649 31.5026 4.49839 32.2913 4.83861 33.0352C3.60436 33.8445 2.81712 35.1818 2.70849 36.6538C2.70849 38.7095 4.75165 39.9864 8.04096 39.9864C9.52451 40.0777 10.9983 39.6892 12.2441 38.8788C14.7719 39.6398 17.4 40.0133 20.0393 39.9864C22.6787 40.0133 25.3068 39.6398 27.8342 38.8788C29.0801 39.6892 30.5539 40.0777 32.0374 39.9864C35.3267 39.9864 37.3699 38.7095 37.3699 36.6538C37.2616 35.1818 36.474 33.8445 35.2398 33.0352C35.58 32.2913 35.8119 31.5026 35.9287 30.6931C36.3053 30.8218 36.665 30.9951 37.0004 31.2093C37.1984 31.3439 37.4535 31.3619 37.6686 31.2563C37.8837 31.1508 38.0256 30.9381 38.0406 30.6989C38.0552 30.4596 37.9405 30.2311 37.7397 30.0999C37.2106 29.7648 36.6376 29.5046 36.0368 29.3273V29.3215C36.031 28.231 35.8686 27.1468 35.555 26.1024C36.157 26.0273 36.7633 25.9895 37.3699 25.9885C37.7382 25.9885 38.0366 25.6901 38.0366 25.3221C38.0366 24.9538 37.7382 24.6554 37.3699 24.6554C36.6092 24.6557 35.8494 24.7094 35.096 24.8159C34.8159 24.1291 34.4843 23.4642 34.1044 22.8271C34.5428 21.4036 36.2607 15.4148 34.7799 13.3726C34.4653 12.917 33.9442 12.6488 33.3907 12.6574C32.3981 12.733 31.4329 13.0192 30.5597 13.4971C28.8543 11.0865 25.8472 9.39306 22.4197 8.84901C22.4084 7.94094 22.2943 7.03714 22.0798 6.1544C21.9302 5.41476 22.2045 4.65315 22.7913 4.17837C23.6228 3.61814 24.9806 4.48502 25.5253 4.88322C26.102 5.31132 26.8636 5.39737 27.5212 5.10871C28.1787 4.82036 28.6312 4.20125 28.7063 3.48694C28.7817 2.77293 28.468 2.07326 27.8852 1.65401C24.2267 -1.02351 21.5467 0.199759 20.5599 0.85274C18.5814 2.26367 17.6489 4.72882 18.1985 7.09603C18.3309 7.63672 18.4078 8.18932 18.4273 8.74557C14.6812 9.14285 11.3486 10.9047 9.52024 13.4925C8.65245 13.0183 7.69373 12.7336 6.70785 12.6574C6.15342 12.6488 5.63104 12.9176 5.31553 13.3735C3.84053 15.4072 5.54987 21.3786 5.98713 22.7999C5.60144 23.4453 5.26519 24.119 4.98141 24.8153C4.22835 24.7091 3.46888 24.6557 2.70849 24.6554C2.3402 24.6554 2.04178 24.9538 2.04178 25.3221C2.04178 25.6901 2.3402 25.9885 2.70849 25.9885ZM4.04161 36.6538C4.04161 35.1535 5.88704 33.3208 8.04096 33.3208C10.1949 33.3208 12.0403 35.1535 12.0403 36.6538C12.0403 37.6241 11.1438 38.1813 9.98099 38.4504C10.0191 38.2988 10.0393 38.1431 10.0408 37.9869V36.6538C10.0408 36.2855 9.74238 35.9871 9.37408 35.9871C9.00609 35.9871 8.70768 36.2855 8.70768 36.6538V37.9869C8.70768 38.3549 8.40926 38.6533 8.04096 38.6533C7.67298 38.6533 7.37425 38.3549 7.37425 37.9869V36.6538C7.37425 36.2855 7.07583 35.9871 6.70785 35.9871C6.33955 35.9871 6.04113 36.2855 6.04113 36.6538V37.9869C6.04266 38.1431 6.0628 38.2988 6.10094 38.4504C4.93808 38.1813 4.04161 37.6241 4.04161 36.6538ZM36.0368 36.6538C36.0368 37.6241 35.1403 38.1813 33.9777 38.4504C34.0156 38.2988 34.0357 38.1431 34.0372 37.9869V36.6538C34.0372 36.2855 33.7388 35.9871 33.3705 35.9871C33.0025 35.9871 32.7041 36.2855 32.7041 36.6538V37.9869C32.7041 38.3549 32.4057 38.6533 32.0374 38.6533C31.6694 38.6533 31.371 38.3549 31.371 37.9869V36.6538C31.371 36.2855 31.0726 35.9871 30.7043 35.9871C30.3363 35.9871 30.0379 36.2855 30.0379 36.6538V37.9869C30.0394 38.1431 30.0592 38.2988 30.0974 38.4504C28.9345 38.1813 28.038 37.6241 28.038 36.6538C28.038 35.1535 29.8835 33.3208 32.0374 33.3208C34.1913 33.3208 36.0368 35.1541 36.0368 36.6538ZM19.4932 6.7787C19.0651 4.95523 19.7785 3.05335 21.3001 1.96159C22.2317 1.34553 24.2221 0.625112 27.0982 2.73021C27.2905 2.87088 27.3933 3.10308 27.3677 3.34017C27.3423 3.57695 27.1922 3.782 26.9744 3.87842C26.7568 3.97484 26.5038 3.94738 26.3116 3.80702C24.6563 2.59657 23.1422 2.33568 22.0492 3.07074C20.9978 3.85767 20.5031 5.18682 20.7845 6.4696C20.9636 7.19978 21.0652 7.94674 21.0884 8.69797C20.7408 8.67417 20.3918 8.65769 20.0393 8.65769C19.9447 8.65769 19.8514 8.6641 19.7571 8.66593C19.733 8.02943 19.6445 7.3972 19.4932 6.7787ZM20.0393 9.99081C23.9252 9.99081 27.4989 11.5955 29.3721 14.1269C28.4787 14.6325 27.4928 15.2586 26.401 16.0239C22.3586 14.2108 17.735 14.2086 13.6911 16.0181C12.5938 15.2525 11.6043 14.6264 10.7093 14.1214C12.5777 11.5934 16.1498 9.99081 20.0393 9.99081ZM7.34771 22.6824C6.12596 18.9412 5.69817 15.117 6.39448 14.1565C6.46008 14.0469 6.58061 13.9831 6.70785 13.9905C7.65894 14.096 8.57464 14.4119 9.38842 14.9147C9.39422 14.9184 9.39697 14.9242 9.40277 14.9278C9.42443 14.9385 9.4467 14.948 9.46928 14.9562C10.7746 15.6641 12.0324 16.4562 13.2346 17.3274C13.4308 17.4665 13.6865 17.4891 13.9038 17.3863C17.7881 15.5311 22.3034 15.5332 26.1859 17.3921C26.4041 17.4961 26.6616 17.4739 26.8584 17.3332C29.8438 15.2089 32.2251 13.9905 33.3907 13.9905C33.5164 13.9835 33.6357 14.0469 33.7004 14.1549C34.4003 15.1204 33.9707 18.9574 32.7435 22.7084C32.6818 22.8963 32.7069 23.1017 32.8118 23.2692C33.1701 23.8438 33.4849 24.444 33.7547 25.0646C32.2852 25.3716 30.8877 25.9568 29.6379 26.7886C29.3507 27.0113 29.2952 27.423 29.5127 27.7141C29.7303 28.0052 30.141 28.0683 30.4358 27.8559C31.5937 27.113 32.8811 26.5945 34.2307 26.3275C34.5001 27.1905 34.6545 28.0854 34.6899 28.9889C33.5951 28.7823 32.4847 28.6706 31.371 28.6548C31.0027 28.6548 30.7043 28.9532 30.7043 29.3215C30.7043 29.6895 31.0027 29.9879 31.371 29.9879C32.4689 30.0074 33.5631 30.1243 34.6402 30.337C34.552 31.0452 34.3607 31.7366 34.0723 32.3896C33.4264 32.1253 32.7352 31.9889 32.0374 31.9877C29.034 31.9877 26.7049 34.4959 26.7049 36.6538C26.7025 37.0355 26.7809 37.4136 26.9347 37.7633C24.688 38.375 22.3678 38.6747 20.0393 38.6533C17.7109 38.6747 15.3907 38.375 13.1437 37.7633C13.2975 37.4136 13.3759 37.0355 13.3734 36.6538C13.3734 34.4959 11.0444 31.9877 8.04096 31.9877C7.34313 31.9889 6.65201 32.1253 6.00604 32.3896C5.71769 31.7366 5.52638 31.0452 5.43819 30.337C6.51561 30.1243 7.60951 30.0074 8.70768 29.9879C9.07566 29.9879 9.37408 29.6895 9.37408 29.3215C9.37408 28.9532 9.07566 28.6548 8.70768 28.6548C7.59364 28.6706 6.48296 28.7823 5.38846 28.9889C5.42355 28.0857 5.57794 27.1908 5.84738 26.3278C7.19697 26.5945 8.48432 27.113 9.64229 27.8559C9.93705 28.068 10.3478 28.0052 10.5653 27.7141C10.7832 27.4233 10.7276 27.0113 10.4405 26.7886C9.19039 25.9565 7.79289 25.3713 6.32277 25.0643C6.59586 24.4342 6.91564 23.8252 7.27966 23.243C7.38432 23.0755 7.40934 22.8701 7.34771 22.6824Z" fill="black"/>
</g>
<defs>
<clipPath id="clip0">
<rect width="40" height="40" fill="white"/>
</clipPath>
</defs>
</svg>
