<svg width="40" height="40" viewBox="0 0 40 40" fill="none" xmlns="http://www.w3.org/2000/svg">
<g clip-path="url(#clip0)">
<path d="M39.3286 18.2087L33.2664 12.1465V5.14367C33.2664 3.87745 32.2404 2.85129 30.9723 2.85129C29.7071 2.85129 28.681 3.87745 28.681 5.14367V7.5612L24.1673 3.04725C21.9356 0.816805 18.0555 0.820761 15.8289 3.05129L0.671158 18.2087C-0.223638 19.1053 -0.223638 20.556 0.671158 21.4512C1.56636 22.3475 3.0199 22.3475 3.91477 21.4512L19.0711 6.29337C19.5648 5.80221 20.4351 5.80221 20.9262 6.29192L36.0851 21.4512C36.5346 21.8994 37.1206 22.1223 37.7065 22.1223C38.2936 22.1223 38.8806 21.8992 39.3287 21.4512C40.2238 20.5561 40.2238 19.1054 39.3286 18.2087Z" fill="black"/>
<path d="M20.7963 10.6449C20.356 10.2047 19.6429 10.2047 19.2038 10.6449L5.87103 23.9737C5.66054 24.1841 5.5412 24.4714 5.5412 24.7712V34.4928C5.5412 36.774 7.39086 38.6236 9.67202 38.6236H16.2731V28.4007H23.7256V38.6236H30.3268C32.6078 38.6236 34.4575 36.774 34.4575 34.4928V24.7712C34.4575 24.4714 34.3392 24.1841 34.1277 23.9737L20.7963 10.6449Z" fill="black"/>
</g>
<defs>
<clipPath id="clip0">
<rect width="40" height="40" fill="white"/>
</clipPath>
</defs>
</svg>
