<svg width="40" height="40" viewBox="0 0 40 40" fill="none" xmlns="http://www.w3.org/2000/svg">
<g clip-path="url(#clip0)">
<path d="M39.6904 23.7644L36.3503 19.3606C36.6487 18.7158 36.4537 17.9278 35.8525 17.5058C35.1778 17.0325 34.2442 17.1973 33.7715 17.8737L28.3754 25.595C28.3214 25.5583 28.2658 25.5235 28.2082 25.4926C27.8593 25.3052 27.5142 25.1428 27.1733 24.9985C27.166 24.9948 27.1584 24.9921 27.1504 24.9887C26.4806 24.7065 25.8302 24.4985 25.2113 24.3328C27.0876 23.4656 28.6256 22.4028 29.8112 21.1488C32.1138 18.7133 33.0055 15.5767 32.39 12.0783C32.2551 11.3118 32.0314 10.5724 31.7265 9.86577C31.736 9.85691 31.7461 9.84926 31.7549 9.84039L32.5435 9.0619C32.6277 8.97873 32.7388 8.92674 32.8566 8.91574L33.9586 8.81086C34.5128 8.75796 35.005 8.43537 35.2748 7.94735C35.5449 7.45934 35.5574 6.87012 35.3081 6.37109L34.8131 5.37947C34.76 5.27337 34.745 5.15136 34.771 5.03578L35.0117 3.95335C35.1332 3.40876 34.9788 2.84003 34.5991 2.43213C34.2192 2.02392 33.6638 1.83006 33.1132 1.91323L32.0186 2.07865C31.9017 2.09639 31.7815 2.07284 31.6795 2.01261L30.7265 1.44845C30.247 1.1647 29.6596 1.13595 29.1551 1.3717C28.6504 1.60776 28.2948 2.07712 28.2036 2.62751L28.0223 3.72126C28.0028 3.83838 27.9436 3.94601 27.8548 4.02429L27.0943 4.69668C26.7619 4.4909 26.4171 4.29489 26.0582 4.11021C22.617 2.33948 18.3665 1.78052 14.0898 2.53609C9.81308 3.29165 6.00967 5.27367 3.38027 8.11645C0.709986 11.0039 -0.436865 14.4337 0.150904 17.774C0.528711 19.9214 1.3945 21.7451 2.69882 23.181C2.72842 23.2235 2.76382 23.2626 2.80532 23.2969C3.60488 24.1487 4.56314 24.8597 5.67031 25.4137C6.79092 25.9748 8.0516 26.3775 9.44686 26.6218C9.42916 26.7918 9.41848 26.9622 9.41513 27.1325C9.09256 27.3881 8.79226 27.6376 8.50814 27.8945C8.24722 27.5401 7.83676 27.3245 7.39425 27.3135L6.54708 27.2924C6.48818 27.2909 6.43112 27.2688 6.38626 27.2303L5.74264 26.6784C5.38467 26.3711 4.89883 26.2604 4.4432 26.3827C3.98788 26.505 3.62228 26.8441 3.46542 27.2896L3.18374 28.0901C3.16421 28.1461 3.12576 28.1938 3.0754 28.2244L2.35244 28.6671C1.94992 28.9133 1.69479 29.342 1.67037 29.8138C1.64565 30.2856 1.8544 30.7388 2.22885 31.0259L2.90176 31.542C2.94876 31.5778 2.98202 31.6292 2.99575 31.6867L3.19229 32.5125C3.30184 32.9721 3.62991 33.3473 4.07028 33.5167C4.23629 33.5806 4.40963 33.6121 4.58236 33.6121C4.86801 33.6121 5.15151 33.5262 5.39321 33.3589L6.09115 32.8773C6.13967 32.8437 6.19918 32.8281 6.25747 32.8327L6.56021 32.8568C6.69845 33.0168 6.86233 33.1553 7.0494 33.266C7.32498 33.4293 7.63412 33.5213 7.94937 33.5378C7.74764 33.7653 7.64022 34.065 7.65792 34.3875C7.68417 34.8704 7.99484 35.2883 8.44985 35.4529C8.53317 35.4828 8.61587 35.511 8.69857 35.5373C8.75778 35.5562 8.81759 35.5651 8.87649 35.5651C9.1249 35.5651 9.35531 35.4058 9.43466 35.156C9.53292 34.8471 9.36264 34.5169 9.0541 34.4187C8.98513 34.3967 8.91616 34.3732 8.84689 34.3481C8.83377 34.3435 8.83224 34.3401 8.83071 34.3365C8.82705 34.3273 8.82766 34.3169 8.82736 34.316C8.82736 34.316 8.82949 34.3142 8.8356 34.3111C9.73953 33.8683 10.1753 33.1467 10.0319 32.3309C10.0221 32.2753 10.0142 32.219 10.0081 32.1609C10.2354 31.8169 10.4643 31.5276 10.7136 31.2601C11.3011 32.0713 12.2453 32.9617 13.7184 33.4549C13.8011 33.673 13.8805 33.9252 13.9494 34.1906C13.6903 34.3368 13.4099 34.4383 13.1105 34.4909C12.6027 34.5808 12.0518 34.6682 11.4671 34.6994C11.1439 34.7169 10.8961 34.9933 10.9135 35.3171C10.9303 35.6302 11.1888 35.8727 11.498 35.8727C11.5086 35.8727 11.5193 35.8724 11.53 35.8718C12.177 35.8372 12.7699 35.7433 13.3141 35.647C13.6064 35.5953 13.8921 35.5088 14.1643 35.3914C14.1811 35.588 14.1859 35.7758 14.1756 35.9458C14.1756 35.947 14.1753 35.9479 14.1753 35.9488C14.1743 35.9583 14.174 35.9678 14.1737 35.9773C14.1631 36.1219 14.1417 36.2537 14.1063 36.3662C13.9485 36.8698 13.9961 37.4049 14.2403 37.8727C14.4841 38.3409 14.8955 38.6855 15.3978 38.8433C15.5894 38.9035 15.7899 38.9341 15.9901 38.9341C16.104 38.9341 16.2178 38.924 16.3298 38.9044C17.0586 38.7754 17.6491 38.2562 17.8703 37.5492C17.9884 37.1722 18.0574 36.7808 18.0922 36.3891C18.0925 36.3867 18.0931 36.3842 18.0934 36.3815C18.0943 36.3732 18.0943 36.365 18.0949 36.3567C18.1746 35.4088 18.0492 34.4612 17.8871 33.709C18.008 33.691 18.13 33.672 18.2545 33.65C18.9033 33.5354 19.5116 33.377 20.0758 33.1779C20.4939 33.5931 20.9901 34.3114 20.9492 35.1205C20.8943 36.2087 21.7332 37.1389 22.8194 37.1939C22.8529 37.1955 22.8865 37.1964 22.9201 37.1964C23.0351 37.1964 23.1502 37.1866 23.2631 37.1664C24.1737 37.0056 24.8424 36.2463 24.8891 35.3202C24.9886 33.3494 24.1002 31.8423 23.3998 30.973C23.4758 30.8809 23.5487 30.7868 23.6189 30.6907C24.1392 29.9746 24.4853 29.1634 24.6538 28.2834C25.0539 28.4057 25.4146 28.5387 25.7555 28.6889C25.768 28.6953 25.7814 28.7008 25.7945 28.7063C25.9828 28.7904 26.165 28.88 26.3444 28.9763C26.3594 28.9842 26.375 28.991 26.3902 28.9986C26.4156 29.4407 26.6338 29.8676 27.0232 30.141C27.2771 30.3189 27.5731 30.4119 27.8767 30.4119C27.964 30.4119 28.0519 30.4042 28.1395 30.3886C28.5326 30.3192 28.875 30.1006 29.1038 29.7731L32.8123 24.4667L38.0598 26.098C38.2118 26.1451 38.3653 26.1681 38.5158 26.1681C38.9906 26.1681 39.4368 25.94 39.7249 25.5275C40.1045 24.9841 40.0908 24.2921 39.6904 23.7644ZM28.6302 4.90461C28.9201 4.64806 29.1148 4.29612 29.1783 3.9136L29.3596 2.81954C29.388 2.64861 29.4939 2.50887 29.6504 2.43579C29.807 2.36272 29.9818 2.37128 30.1305 2.45903L31.0835 3.02318C31.4168 3.22041 31.8111 3.29716 32.1934 3.23937L33.2881 3.07394C33.459 3.04856 33.6244 3.10605 33.7419 3.23264C33.8597 3.35923 33.9058 3.52863 33.8683 3.69741L33.6272 4.78016C33.5429 5.1584 33.5918 5.55774 33.7651 5.90448L34.2604 6.89641C34.3376 7.05113 34.334 7.22665 34.25 7.378C34.1664 7.52936 34.0196 7.62568 33.8478 7.64189L32.7461 7.74677C32.3607 7.78346 31.9969 7.95347 31.721 8.22561L31.1717 8.76805C30.425 7.49022 29.388 6.34571 28.0946 5.37794L28.6302 4.90461ZM17.7629 6.68665L17.9863 8.76591C16.8745 9.63125 15.7622 10.1572 14.6669 10.3354L15.4643 7.57584C16.23 7.41928 16.9994 7.12177 17.7629 6.68665ZM18.1309 10.1119L18.2634 11.3454C18.2893 11.5864 18.1694 11.8175 17.9576 11.9343V11.9346C16.9005 12.519 15.6102 12.4058 14.6703 11.6463C14.6294 11.6133 14.5949 11.575 14.5647 11.5344C15.7573 11.3952 16.9514 10.9185 18.1309 10.1119ZM16.3759 4.42118C16.4491 4.16708 16.6829 3.99401 16.9432 3.99401C16.96 3.99401 16.9774 3.99463 16.9945 3.99615C17.2746 4.02062 17.5001 4.242 17.5304 4.52208L17.6244 5.39721C17.0287 5.78462 16.4329 6.07511 15.843 6.26468L16.3759 4.42118ZM3.04214 21.7713C2.17513 20.6122 1.59347 19.2093 1.30508 17.57C0.782312 14.6001 1.82479 11.5261 4.23995 8.91451C6.69662 6.25826 10.2669 4.40344 14.2934 3.69222C14.7121 3.61822 15.1302 3.55829 15.547 3.51089C15.4155 3.68151 15.3126 3.87782 15.2501 4.09461L14.3864 7.08385C13.1261 6.56954 11.6454 6.45702 9.97146 6.7527C7.97347 7.10556 6.2886 8.10544 5.2275 9.56795C4.19357 10.9925 3.79806 12.7666 4.11422 14.5631C4.15847 14.8138 4.2189 15.0648 4.29367 15.3098C4.36355 15.5366 4.31167 15.7947 4.15481 15.9996C3.24142 17.193 2.87063 18.602 3.1108 19.9667C3.22524 20.6177 3.19808 21.2414 3.04214 21.7713ZM6.19399 24.3637C5.32119 23.9267 4.55947 23.3901 3.90823 22.7572C4.32662 21.9218 4.45785 20.8592 4.26467 19.7627C4.08248 18.7259 4.37362 17.6431 5.08468 16.7142C5.47164 16.2084 5.59493 15.5544 5.41397 14.9645C5.35293 14.7661 5.3041 14.5624 5.26809 14.3591C5.00778 12.8795 5.33004 11.4231 6.17507 10.2584C7.06985 9.02551 8.45291 8.21307 10.175 7.90883C11.6783 7.64311 12.9817 7.74799 14.0584 8.21857L13.5075 10.1257C13.1352 10.2125 12.769 10.3039 12.4159 10.3987C11.5462 10.6323 10.7393 11.0094 10.0111 11.5212C9.56497 11.2222 9.07211 10.9733 8.5881 10.8103C7.55142 10.4611 6.70089 10.5492 6.19308 11.058C5.68527 11.5671 5.59738 12.4193 5.94589 13.4577C6.18576 14.1735 6.61117 14.9083 7.11105 15.4831C6.67007 16.8741 6.63589 18.3482 7.01583 19.7701C7.50747 21.6078 8.63693 23.1638 10.2156 24.1946C9.98947 24.6065 9.81033 25.033 9.6788 25.4712C8.38546 25.2471 7.22183 24.878 6.19399 24.3637ZM6.35574 30.559C6.15524 30.8987 6.06246 31.2815 6.08322 31.6668C5.84854 31.6925 5.62179 31.775 5.42587 31.9105L4.72824 32.3921C4.63119 32.4593 4.5375 32.4389 4.4902 32.4205C4.4429 32.4025 4.35958 32.3548 4.33212 32.2398L4.13558 31.4142C4.0596 31.0947 3.87435 30.8088 3.61404 30.6094L2.94113 30.0936C2.84744 30.0217 2.83798 29.926 2.84042 29.8753C2.84316 29.8245 2.8627 29.7303 2.9634 29.6689L3.68637 29.2261C3.96591 29.0552 4.17983 28.7904 4.28878 28.4806L4.57077 27.6801C4.60983 27.5685 4.69772 27.53 4.74655 27.5168C4.79568 27.5037 4.89089 27.493 4.98062 27.57L5.62423 28.1223C5.87326 28.3357 6.19064 28.4577 6.51809 28.4659L7.36495 28.487C7.48306 28.4901 7.54684 28.562 7.57431 28.6045C7.59841 28.6415 7.63137 28.7127 7.60971 28.8026C7.17666 29.2967 6.76925 29.8587 6.35574 30.559ZM8.90975 31.6992C8.90975 31.6995 8.90945 31.6998 8.90914 31.7001C8.8536 31.7882 8.79837 31.879 8.74252 31.9735C8.6235 32.1753 8.42269 32.3144 8.19168 32.3551C8.0043 32.3884 7.81021 32.3529 7.64602 32.2554C7.53219 32.1881 7.43881 32.0955 7.37167 31.9857C7.37045 31.9839 7.36953 31.9823 7.36831 31.9805C7.32833 31.9141 7.29782 31.8417 7.27798 31.7646C7.22488 31.557 7.2557 31.3411 7.36434 31.1567C7.46017 30.9944 7.55569 30.8406 7.65121 30.6935L8.99398 31.568C8.96591 31.6108 8.93783 31.6545 8.90975 31.6992ZM16.7522 37.1976C16.6621 37.4847 16.4223 37.6957 16.1262 37.748C15.9996 37.7703 15.8726 37.7621 15.7484 37.7229C15.5446 37.6587 15.3777 37.519 15.2785 37.3291C15.1796 37.1392 15.1604 36.9218 15.2241 36.7175C15.2306 36.6977 15.2357 36.6772 15.2415 36.657L16.8449 36.834C16.8193 36.9573 16.7894 37.079 16.7522 37.1976ZM15.345 35.4874C15.3148 34.8985 15.1912 34.2836 15.0453 33.7595C15.4152 33.8096 15.8095 33.8378 16.2312 33.8378C16.3878 33.8378 16.5483 33.8338 16.7122 33.8261C16.8327 34.3527 16.9398 35.0003 16.949 35.6645L15.345 35.4874ZM23.7187 35.2605C23.6998 35.6305 23.4227 35.9458 23.0595 36.01C23.0003 36.0204 22.9396 36.0243 22.8786 36.0213C22.6649 36.0103 22.4684 35.917 22.325 35.758C22.2035 35.6235 22.1333 35.4553 22.1211 35.2773L23.7239 35.0979C23.7233 35.1517 23.7215 35.2058 23.7187 35.2605ZM23.5985 33.9304L21.9859 34.1108C21.8251 33.5702 21.5392 33.0846 21.2157 32.6896C21.7131 32.434 22.1638 32.1389 22.5642 31.8068C22.9524 32.3086 23.3885 33.0317 23.5985 33.9304ZM22.6717 29.9991C22.0564 30.8452 21.165 31.4977 20.0136 31.9524C19.9956 31.9588 19.9779 31.9658 19.9605 31.9738C19.3871 32.1958 18.7508 32.3697 18.051 32.4936C15.1079 33.0137 12.8322 32.2912 11.5822 30.4571C11.8629 30.2263 12.1764 29.9847 12.5395 29.7086C12.7971 29.5126 12.8474 29.1441 12.6515 28.8861C12.4559 28.6277 12.0885 28.5776 11.8306 28.7736C11.2978 29.1793 10.8473 29.5279 10.4457 29.8863C10.4369 29.8936 10.4286 29.9012 10.4207 29.9089C10.1649 30.1385 9.92843 30.3731 9.70321 30.6293L8.34671 29.7462C8.40591 29.6753 8.46542 29.6059 8.52554 29.538C8.54293 29.5212 8.55911 29.5028 8.57437 29.4836C9.09835 28.9017 9.66537 28.4219 10.3429 27.8948C10.3462 27.8923 10.3493 27.8899 10.3523 27.8874C10.5156 27.7605 10.6853 27.6306 10.8623 27.496C11.0722 27.3364 11.1443 27.0628 11.0585 26.8273C11.6539 26.8775 12.2691 26.9041 12.906 26.9041C14.334 26.9041 15.8668 26.7769 17.4989 26.5234C17.1959 27.0276 17.0656 27.6388 17.1751 28.2629C17.1876 28.3335 17.2035 28.4033 17.2218 28.4721C16.9505 28.6308 16.851 28.9769 17.0012 29.2564C17.1068 29.4533 17.3088 29.5655 17.5175 29.5655C17.6042 29.5655 17.6921 29.545 17.7748 29.5043C17.9039 29.6487 18.0498 29.7799 18.2124 29.8936C18.6409 30.1945 19.1408 30.3513 19.6535 30.3513C19.8006 30.3513 19.9486 30.3385 20.0966 30.3122C20.76 30.1951 21.338 29.826 21.7244 29.2732C22.1107 28.7203 22.2591 28.0498 22.1422 27.385C22.1297 27.3144 22.1138 27.2447 22.0958 27.1759C22.3668 27.0172 22.4663 26.6711 22.3164 26.3916C22.1666 26.1124 21.8239 26.0048 21.5422 26.1436C21.4201 26.0066 21.2825 25.8825 21.1305 25.773C21.8928 25.5718 22.6186 25.3486 23.3086 25.1043C23.3897 25.3419 23.4529 25.584 23.4959 25.8287C23.7773 27.4285 23.4923 28.8702 22.6717 29.9991ZM18.3113 27.8838C18.2817 27.2159 18.7498 26.6111 19.4243 26.4919C19.5036 26.4781 19.5827 26.4711 19.6617 26.4711C19.9361 26.4711 20.2037 26.5552 20.4332 26.716C20.4396 26.7206 20.4451 26.7258 20.4515 26.7304L18.3113 27.8838ZM21.006 27.7645C21.0197 28.0611 20.9373 28.3525 20.7646 28.5999C20.5577 28.8959 20.2483 29.0934 19.893 29.1561C19.5381 29.2188 19.1798 29.1393 18.8844 28.9319C18.878 28.9277 18.8722 28.9222 18.8661 28.9179L21.006 27.7645ZM23.4975 23.7855C23.4608 23.7946 23.4245 23.8072 23.3888 23.824C23.3839 23.8261 23.3791 23.8292 23.3742 23.832C21.8217 24.4187 20.0572 24.8881 18.0849 25.2367C15.3819 25.7143 12.9674 25.8449 10.858 25.6317C10.959 25.3348 11.0866 25.0437 11.2419 24.7606C12.2362 25.214 13.3025 25.4449 14.38 25.4446C15.0435 25.4446 15.7112 25.3571 16.3692 25.1807C17.0158 25.007 17.7162 24.8383 18.4578 24.6594C22.4876 23.6873 27.5029 22.4774 29.4615 19.0784C30.8308 16.7019 30.4198 13.7057 28.4618 11.7915C28.2301 11.565 27.859 11.5695 27.6332 11.8016C27.4071 12.0337 27.4116 12.4055 27.6433 12.6318C29.2177 14.1708 29.5479 16.5802 28.4465 18.4913C26.7397 21.4537 21.9954 22.5982 18.1834 23.5176C17.4345 23.6983 16.7268 23.8693 16.0658 24.0466C14.3977 24.4946 12.6558 24.2646 11.1601 23.3996C9.66445 22.5343 8.59481 21.1375 8.14804 19.4661C7.86941 18.425 7.85385 17.3508 8.09585 16.3179C8.4288 16.5035 8.76632 16.5971 9.10568 16.5971C9.12887 16.5971 9.15206 16.5968 9.17495 16.5958C9.49844 16.5836 9.75082 16.3112 9.73861 15.9873C9.72671 15.6632 9.45449 15.4091 9.13131 15.4226C8.85025 15.433 8.53225 15.2614 8.18283 14.9135C8.1813 14.9119 8.18008 14.9107 8.17855 14.9095C8.17733 14.9083 8.17642 14.9074 8.1752 14.9064C7.704 14.4343 7.27554 13.7356 7.05673 13.0834C6.8431 12.4474 6.88522 12.0248 7.02163 11.8882C7.35122 11.5582 8.66226 11.9371 9.64462 12.7018C9.65042 12.7064 9.65621 12.711 9.66232 12.7156C9.79324 12.8186 9.91836 12.9281 10.034 13.044C10.3044 13.3152 10.4704 13.569 10.5272 13.7983C10.6053 14.113 10.923 14.3047 11.237 14.227C11.5511 14.1487 11.7424 13.8304 11.6646 13.5158C11.562 13.1018 11.3267 12.7049 10.9499 12.3058C11.4949 11.9622 12.0872 11.7026 12.7193 11.5328C12.9054 11.4827 13.0959 11.4341 13.2881 11.3861C13.3406 11.8383 13.5655 12.2621 13.9345 12.5599C14.6883 13.1693 15.6032 13.4806 16.5254 13.4806C17.2087 13.4806 17.896 13.3097 18.5237 12.9623C19.1499 12.6162 19.5052 11.9322 19.4286 11.2197L19.3517 10.5024C21.7592 10.4232 23.8918 10.7177 25.5479 11.3638C25.6178 11.391 25.6898 11.4041 25.7603 11.4041C25.995 11.4041 26.2163 11.2619 26.3066 11.0299C26.4241 10.7277 26.2746 10.3874 25.9731 10.2697C24.9632 9.87586 23.799 9.6022 22.5194 9.45176C22.3759 8.41519 21.935 7.69998 21.2733 7.45873C20.7362 7.26273 19.9446 7.38076 19.0959 8.1244L18.8267 5.62011C18.8267 5.6195 18.8267 5.61859 18.8267 5.61797L18.6955 4.39641C18.6537 4.00808 18.485 3.65858 18.2341 3.38736C20.8635 3.44699 23.3675 4.04508 25.5232 5.15412C25.9944 5.39659 26.4403 5.65987 26.8599 5.94118C26.8715 5.94913 26.8828 5.95738 26.8953 5.96472C26.8962 5.96533 26.8974 5.96564 26.8983 5.96625C28.4785 7.03309 29.6809 8.36443 30.439 9.87709C30.4393 9.8777 30.4393 9.87862 30.4396 9.87923C30.4472 9.89849 30.457 9.91592 30.4665 9.93365C30.8324 10.6767 31.0918 11.4625 31.2358 12.282C31.7924 15.4443 31.0271 18.1556 28.9607 20.3412C27.632 21.7466 25.8037 22.8978 23.4975 23.7855ZM19.5564 9.32241C20.0935 8.739 20.6197 8.46992 20.8726 8.56226C21.0326 8.62067 21.2096 8.88547 21.3121 9.3484C20.7445 9.31722 20.1582 9.30865 19.5564 9.32241ZM25.6627 27.385C25.3828 27.2811 25.088 27.1848 24.7722 27.0939C24.778 26.6182 24.7383 26.1277 24.6498 25.625C24.6358 25.5455 24.6196 25.4663 24.6025 25.3871C25.1167 25.5152 25.6447 25.6681 26.1858 25.8678L25.6627 27.385ZM26.7796 27.8789C26.7662 27.8718 26.7528 27.8648 26.7393 27.8581L27.2664 26.3295C27.3952 26.3922 27.5243 26.4573 27.6546 26.5273C27.6714 26.5362 27.6869 26.5472 27.7028 26.5573L26.7796 27.8789ZM32.0961 23.4445C32.0952 23.4455 32.0946 23.4464 32.0937 23.4476L28.1441 29.0995C28.0946 29.1701 28.0208 29.2172 27.9359 29.2322C27.8511 29.2475 27.7657 29.2282 27.6952 29.1787C27.5496 29.0766 27.5139 28.8748 27.6158 28.7289L28.9305 26.8478C28.9317 26.846 28.933 26.8438 28.9345 26.842L34.7313 18.547C34.8332 18.4008 35.0346 18.3653 35.1805 18.4675C35.3261 18.5696 35.3615 18.7714 35.2596 18.9173L35.1649 19.0527C35.1637 19.0546 35.1625 19.0561 35.1613 19.0579L32.0961 23.4445ZM38.7651 24.8538C38.7245 24.9116 38.6089 25.0391 38.4071 24.9765L33.5179 23.4568L35.6602 20.3911L38.7578 24.4747C38.8857 24.6435 38.8054 24.7961 38.7651 24.8538ZM36.6963 30.2465L35.9987 29.785C35.9514 29.7539 35.916 29.7068 35.8992 29.653L35.649 28.8537C35.5089 28.4063 35.1579 28.0574 34.7105 27.9204C34.2628 27.7832 33.7776 27.8758 33.4117 28.1684L32.758 28.6907C32.7138 28.7259 32.6561 28.7451 32.6021 28.7445L31.7659 28.7362C31.761 28.7359 31.7561 28.7359 31.7516 28.7359C31.2889 28.7359 30.8556 28.9619 30.5901 29.342C30.3215 29.726 30.2596 30.2174 30.424 30.6562L30.7179 31.4405C30.7378 31.4934 30.7387 31.5521 30.7207 31.6059L30.4543 32.4C30.3053 32.8443 30.3844 33.3332 30.666 33.7078C30.9477 34.0821 31.3954 34.294 31.8623 34.272L32.6976 34.2344C32.7537 34.2316 32.8099 34.249 32.8554 34.283L33.5268 34.782C33.7746 34.9664 34.0715 35.0621 34.3718 35.0621C34.5268 35.0621 34.6831 35.0364 34.8335 34.9844C35.276 34.8318 35.6145 34.471 35.739 34.0191L35.9615 33.2112C35.9764 33.1568 36.01 33.1088 36.0561 33.0761L36.7375 32.5905C37.1187 32.3187 37.3415 31.8765 37.3332 31.4078C37.325 30.9387 37.0869 30.5048 36.6963 30.2465ZM36.0582 31.6334L35.3767 32.119C35.1118 32.3077 34.9181 32.5847 34.8317 32.8987V32.899L34.6092 33.7066C34.5793 33.8154 34.4978 33.8582 34.4521 33.8741C34.4063 33.89 34.3159 33.9066 34.225 33.839L33.5536 33.34C33.3095 33.1583 33.0113 33.0599 32.708 33.0599C32.6869 33.0599 32.6659 33.0605 32.6448 33.0614L31.8095 33.099C31.6957 33.1042 31.631 33.04 31.6017 33.0012C31.5727 32.9623 31.5291 32.8813 31.5651 32.774L31.8315 31.9799C31.935 31.6711 31.9292 31.3329 31.8147 31.0277L31.5208 30.2434C31.4812 30.1376 31.5221 30.055 31.5498 30.0153C31.5776 29.9755 31.6423 29.9113 31.754 29.9101L32.5902 29.9184C32.914 29.9196 33.2344 29.8117 33.4886 29.6083L34.1423 29.0861C34.2305 29.0154 34.3214 29.0289 34.3678 29.0429C34.4142 29.0573 34.4969 29.0971 34.5308 29.205L34.7813 30.0043C34.8787 30.3153 35.0816 30.5853 35.3529 30.7647L36.0509 31.2265C36.1452 31.2885 36.1607 31.3793 36.1613 31.428C36.1623 31.4766 36.1501 31.5677 36.0582 31.6334ZM26.1559 18.5124C25.8653 18.3699 25.5144 18.4904 25.3722 18.7815C25.2541 19.0231 25.0383 19.2013 24.7801 19.2704C24.5222 19.3398 24.2464 19.2937 24.0236 19.1435C23.7553 18.9625 23.3913 19.0341 23.2106 19.3032C23.0299 19.5722 23.1013 19.9367 23.3696 20.1177C23.7199 20.3538 24.1283 20.4761 24.5415 20.4761C24.7227 20.4761 24.9049 20.4526 25.0835 20.4045C25.6691 20.2474 26.1577 19.8441 26.4244 19.2976C26.5669 19.0065 26.4467 18.6549 26.1559 18.5124ZM13.7627 14.6441C13.679 14.331 13.3577 14.1454 13.0452 14.2292C12.7327 14.3129 12.5471 14.6349 12.6308 14.948L12.8166 15.6427C12.8868 15.9048 13.1233 16.0779 13.3821 16.0779C13.4322 16.0779 13.4834 16.0714 13.5341 16.0577C13.8466 15.9739 14.0321 15.6519 13.9485 15.3388L13.7627 14.6441ZM22.1132 12.4025C22.0293 12.0894 21.7079 11.9037 21.3957 11.9872C21.0829 12.0713 20.8974 12.393 20.9813 12.7064L21.1668 13.4008C21.237 13.6632 21.4738 13.8359 21.7326 13.8359C21.7827 13.8359 21.8336 13.8295 21.8846 13.8157C22.1971 13.732 22.3827 13.41 22.2987 13.0969L22.1132 12.4025Z" fill="black"/>
</g>
<defs>
<clipPath id="clip0">
<rect width="40" height="40" fill="white"/>
</clipPath>
</defs>
</svg>
