<svg width="40" height="40" viewBox="0 0 40 40" fill="none" xmlns="http://www.w3.org/2000/svg">
<g clip-path="url(#clip0)">
<path d="M39.5113 37.1548L28.1364 25.7799C30.3397 23.0583 31.6663 19.6 31.6663 15.8334C31.6663 7.10347 24.563 0.000183105 15.8331 0.000183105C7.10321 0.000183105 0 7.10339 0 15.8333C0 24.5632 7.10329 31.6665 15.8332 31.6665C19.5998 31.6665 23.0581 30.3399 25.7797 28.1365L37.1546 39.5114C37.4796 39.8364 37.9063 39.9998 38.333 39.9998C38.7597 39.9998 39.1863 39.8364 39.5113 39.5114C40.163 38.8598 40.163 37.8065 39.5113 37.1548ZM15.8332 28.3332C8.93991 28.3332 3.33333 22.7266 3.33333 15.8333C3.33333 8.94002 8.93991 3.33343 15.8332 3.33343C22.7265 3.33343 28.3331 8.94002 28.3331 15.8333C28.3331 22.7266 22.7264 28.3332 15.8332 28.3332Z" fill="black"/>
</g>
<defs>
<clipPath id="clip0">
<rect width="40" height="40" fill="white"/>
</clipPath>
</defs>
</svg>
