<svg width="40" height="40" viewBox="0 0 40 40" fill="none" xmlns="http://www.w3.org/2000/svg">
<g clip-path="url(#clip0)">
<path d="M17.2857 1.46442C19.2383 3.41703 19.2383 6.58281 17.2857 8.53542C15.3331 10.488 12.1673 10.488 10.2147 8.53542C8.26209 6.58281 8.26209 3.41703 10.2147 1.46442C12.1673 -0.488182 15.3331 -0.488182 17.2857 1.46442Z" fill="black"/>
<path d="M8.5357 10.2143C10.4883 12.1669 10.4883 15.3327 8.5357 17.2853C6.58309 19.2379 3.41731 19.2379 1.4647 17.2853C-0.487908 15.3327 -0.487908 12.1669 1.4647 10.2143C3.41731 8.26173 6.58317 8.26173 8.5357 10.2143Z" fill="black"/>
<path d="M29.7855 1.46442C31.7381 3.41703 31.7381 6.58281 29.7855 8.53542C27.8328 10.488 24.6671 10.488 22.7145 8.53542C20.7618 6.58281 20.7618 3.41703 22.7145 1.46442C24.6671 -0.488182 27.8329 -0.488182 29.7855 1.46442Z" fill="black"/>
<path d="M38.5352 10.2143C40.4878 12.1669 40.4878 15.3327 38.5352 17.2853C36.5826 19.2379 33.4168 19.2379 31.4642 17.2853C29.5116 15.3327 29.5116 12.1669 31.4642 10.2143C33.4168 8.26173 36.5826 8.26173 38.5352 10.2143Z" fill="black"/>
<path d="M30.6517 21.7831C30.1745 21.4559 29.8815 21.0312 29.7801 20.5197C29.1942 17.54 27.3595 15.0864 24.613 13.6119C21.7688 12.086 18.2324 12.0848 15.3858 13.6131C12.6405 15.0864 10.8058 17.54 10.2199 20.5197C10.1186 21.0312 9.82565 21.456 9.34831 21.7831C6.0342 24.0499 4.43631 27.9256 5.17727 31.899C5.89869 35.7661 8.9736 38.9277 12.8297 39.7651C13.5548 39.9213 14.2811 39.9995 15.0001 39.9995C16.4222 39.9995 17.8187 39.6955 19.12 39.0949C19.6717 38.841 20.3296 38.841 20.879 39.0949C22.8406 40.0007 25.0159 40.2327 27.1716 39.7639C31.0266 38.9277 34.1015 35.7661 34.8229 31.8977C35.5638 27.9256 33.9659 24.0499 30.6517 21.7831Z" fill="black"/>
</g>
<defs>
<clipPath id="clip0">
<rect width="40" height="40" fill="white"/>
</clipPath>
</defs>
</svg>
