<svg width="44" height="41" viewBox="0 0 44 41" fill="none" xmlns="http://www.w3.org/2000/svg">
<g clip-path="url(#clip0)">
<path d="M7.97279 25.6725C9.75612 25.6725 11.2064 23.8584 11.2064 21.6282C11.2064 19.3981 9.75612 17.584 7.97279 17.584C6.18908 17.584 4.73883 19.3981 4.73883 21.6282C4.73883 23.8584 6.18908 25.6725 7.97279 25.6725Z" fill="black"/>
<path d="M15.6811 25.6725C17.4626 25.6725 18.9147 23.8584 18.9147 21.6282C18.9147 19.3981 17.4627 17.584 15.6811 17.584C13.8974 17.584 12.4471 19.3981 12.4471 21.6282C12.4471 23.8584 13.8974 25.6725 15.6811 25.6725Z" fill="black"/>
<path d="M21.7177 23.6553C20.3152 23.3979 18.9314 24.5507 18.5655 26.282C18.2002 28.0113 19.0115 29.5672 20.4142 29.8244C21.8153 30.0814 23.2008 28.9286 23.5661 27.1992C23.9319 25.4682 23.1186 23.9123 21.7177 23.6553Z" fill="black"/>
<path d="M5.08752 26.282C4.72166 24.5507 3.3381 23.3979 1.93532 23.6553C0.534432 23.9123 -0.278862 25.468 0.0869977 27.1994C0.452292 28.9287 1.83774 30.0816 3.23882 29.8246C4.64159 29.5672 5.45281 28.0113 5.08752 26.282Z" fill="black"/>
<path d="M16.708 30.7325C16.3274 28.5413 14.2839 26.8625 11.8267 26.8625C9.36949 26.8625 7.3258 28.5413 6.94544 30.7325C5.1964 31.4435 3.97052 33.0696 3.97052 34.9581C3.97052 37.4992 6.18904 39.5665 8.91603 39.5665C10.0034 39.5665 11.0095 39.237 11.8269 38.6805C12.6441 39.237 13.6502 39.5665 14.7378 39.5665C17.4648 39.5665 19.6833 37.4992 19.6833 34.9581C19.6831 33.0696 18.4568 31.4435 16.708 30.7325Z" fill="black"/>
<path d="M28.3192 9.52206C30.1026 9.52206 31.5528 7.70795 31.5528 5.47778C31.5528 3.24762 30.1026 1.4335 28.3192 1.4335C26.5355 1.4335 25.0853 3.24762 25.0853 5.47778C25.0853 7.70795 26.5355 9.52206 28.3192 9.52206Z" fill="black"/>
<path d="M36.0275 9.52206C37.809 9.52206 39.2611 7.70795 39.2611 5.47778C39.2611 3.24762 37.8092 1.4335 36.0275 1.4335C34.2438 1.4335 32.7936 3.24762 32.7936 5.47778C32.7936 7.70795 34.2438 9.52206 36.0275 9.52206Z" fill="black"/>
<path d="M42.0642 7.50482C40.6616 7.24746 39.2779 8.40029 38.912 10.1315C38.5467 11.8609 39.358 13.4168 40.7607 13.6739C42.1618 13.9309 43.5473 12.7781 43.9125 11.0488C44.2784 9.3177 43.4651 7.76182 42.0642 7.50482Z" fill="black"/>
<path d="M23.5857 13.6741C24.9883 13.4168 25.7997 11.8609 25.4344 10.1317C25.0685 8.40047 23.685 7.24765 22.2822 7.505C20.8813 7.762 20.068 9.31771 20.4339 11.0491C20.7993 12.7783 22.1848 13.9311 23.5857 13.6741Z" fill="black"/>
<path d="M37.0545 14.5821C36.6739 12.3909 34.6304 10.7121 32.1732 10.7121C29.716 10.7121 27.6723 12.3909 27.2919 14.5821C25.5429 15.2931 24.317 16.9192 24.317 18.8077C24.317 21.3488 26.5355 23.416 29.2625 23.416C30.3499 23.416 31.356 23.0865 32.1734 22.53C32.9906 23.0865 33.9967 23.416 35.0843 23.416C37.8112 23.416 40.0298 21.3488 40.0298 18.8077C40.0296 16.9192 38.8033 15.2931 37.0545 14.5821Z" fill="black"/>
</g>
<defs>
<clipPath id="clip0">
<rect width="44" height="41" fill="white"/>
</clipPath>
</defs>
</svg>
