<svg width="40" height="40" viewBox="0 0 40 40" fill="none" xmlns="http://www.w3.org/2000/svg">
<g clip-path="url(#clip0)">
<path d="M14.7419 10.1014C17.1052 10.1014 19.0277 7.85812 19.0277 5.1014C19.0277 2.34469 17.1052 0.101379 14.7419 0.101379C12.3787 0.101379 10.4563 2.34469 10.4563 5.1014C10.4563 7.85812 12.3787 10.1014 14.7419 10.1014ZM14.7419 2.95848C15.5037 2.95848 16.1705 3.96013 16.1705 5.1013C16.1705 6.24248 15.5037 7.24413 14.7419 7.24413C13.9802 7.24413 13.3134 6.24248 13.3134 5.1013C13.3134 3.96013 13.9802 2.95848 14.7419 2.95848Z" fill="black"/>
<path d="M8.5714 12.1429C8.5714 9.38617 6.64892 7.14285 4.28565 7.14285C1.92238 7.14285 0 9.38617 0 12.1429C0 14.8996 1.92248 17.1429 4.28575 17.1429C6.64902 17.1429 8.5714 14.8996 8.5714 12.1429ZM2.8571 12.1429C2.8571 11.0017 3.52392 10.0001 4.28565 10.0001C5.04738 10.0001 5.7142 11.0017 5.7142 12.1429C5.7142 13.2841 5.04738 14.2857 4.28565 14.2857C3.52392 14.2857 2.8571 13.2841 2.8571 12.1429Z" fill="black"/>
<path d="M26.5763 10.1014C28.9395 10.1014 30.862 7.85812 30.862 5.1014C30.862 2.34469 28.9395 0.101379 26.5763 0.101379C24.213 0.101379 22.2905 2.34469 22.2905 5.1014C22.2905 7.85812 24.213 10.1014 26.5763 10.1014ZM26.5763 2.95848C27.338 2.95848 28.0048 3.96013 28.0048 5.1013C28.0048 6.24248 27.338 7.24413 26.5763 7.24413C25.8145 7.24413 25.1477 6.24258 25.1477 5.1014C25.1477 3.96023 25.8145 2.95848 26.5763 2.95848Z" fill="black"/>
<path d="M35.7143 7.14285C33.3511 7.14285 31.4286 9.38617 31.4286 12.1429C31.4286 14.8996 33.3511 17.1429 35.7143 17.1429C38.0776 17.1429 40.0001 14.8996 40.0001 12.1429C40.0001 9.38617 38.0776 7.14285 35.7143 7.14285ZM35.7143 14.2857C34.9526 14.2857 34.2858 13.2841 34.2858 12.1429C34.2858 11.0017 34.9526 10.0001 35.7143 10.0001C36.4761 10.0001 37.1429 11.0017 37.1429 12.1429C37.1429 13.2841 36.4761 14.2857 35.7143 14.2857Z" fill="black"/>
<path d="M30.9348 19.5912C29.5019 14.7489 25.1061 11.4286 20 11.4286C14.8939 11.4286 10.498 14.7489 9.06531 19.5912C5.26922 21.3434 2.85718 25.0712 2.85718 29.2857C2.85718 35.1939 7.66322 40.0001 13.5715 40.0001C15.9083 40.0001 18.1474 39.2412 20.0001 37.8405C21.8528 39.2412 24.0918 40.0001 26.4287 40.0001C32.3368 40.0001 37.143 35.194 37.143 29.2857C37.1429 25.0712 34.7307 21.3434 30.9348 19.5912ZM26.4286 37.1429C24.4001 37.1429 22.4693 36.3588 20.9905 34.9359C20.7143 34.6694 20.3571 34.5368 20 34.5368C19.6428 34.5368 19.2857 34.6694 19.0095 34.9359C17.5306 36.3588 15.5998 37.1429 13.5714 37.1429C9.2383 37.1429 5.71428 33.6188 5.71428 29.2857C5.71428 26.0156 7.70226 23.1431 10.7771 21.9685C11.2235 21.7983 11.5541 21.416 11.6602 20.9514C12.5559 17.0271 15.985 14.2857 20.0001 14.2857C24.0152 14.2857 27.4443 17.0271 28.34 20.9514C28.446 21.4159 28.7766 21.7982 29.2231 21.9685C32.2979 23.1431 34.2859 26.0156 34.2859 29.2857C34.2858 33.6188 30.7618 37.1429 26.4286 37.1429Z" fill="black"/>
</g>
<defs>
<clipPath id="clip0">
<rect width="40" height="40" fill="white"/>
</clipPath>
</defs>
</svg>
