<svg width="40" height="40" viewBox="0 0 40 40" fill="none" xmlns="http://www.w3.org/2000/svg">
<g clip-path="url(#clip0)">
<path d="M39.4347 25.2581C39.3171 25.2189 39.1882 25.2776 39.1437 25.3955C36.7483 31.6374 30.6478 35.83 23.9667 35.83C19.7277 35.83 16.5545 34.2231 14.5297 31.0545C14.5871 31.0488 14.6419 31.043 14.6952 31.043L14.8182 31.0378C16.0625 31.0035 17.1369 30.973 17.5449 30.2999C17.8288 29.8317 17.8636 29.3549 17.889 28.9705C17.911 28.6874 17.9254 28.4406 18.0343 28.2779C18.1437 28.1124 18.2672 28.0255 18.4094 28.0168C18.699 28.0027 19.1563 28.3112 19.6194 28.8498C19.5661 28.9761 19.5374 29.1135 19.5374 29.2467C19.5374 29.8199 20.006 30.2912 20.579 30.2912C21.1537 30.2912 21.6221 29.823 21.6221 29.2467C21.6221 28.7207 21.2298 28.282 20.7204 28.2146L20.3519 27.5263C20.2297 27.2822 20.2095 27.072 20.2992 26.8899C20.4434 26.5842 20.9105 26.3092 21.5552 26.1468C21.7384 26.2926 21.9634 26.3697 22.1969 26.3697C22.7719 26.3697 23.24 25.9015 23.24 25.3278C23.24 24.7531 22.7719 24.2847 22.1969 24.2847C21.7097 24.2847 21.2946 24.6242 21.1878 25.087L20.6002 25.2317C20.344 25.2394 20.1838 25.1961 20.1316 25.1077C20.0714 25.0045 20.1001 24.7392 20.3481 24.3021C20.8496 24.2257 21.238 23.7927 21.238 23.2723C21.238 22.6975 20.7717 22.2291 20.1949 22.2291C19.6194 22.2291 19.1543 22.6975 19.1543 23.2723C19.1543 23.4632 19.206 23.6479 19.3067 23.8106L19.2673 23.9203C19.1712 24.1479 19.0987 24.2398 19.06 24.2737C19.0134 24.2173 18.9273 24.0633 18.8412 23.7351C19.0221 23.5413 19.1258 23.2892 19.1258 23.0255C19.1258 22.4505 18.6577 21.9824 18.0835 21.9824C17.509 21.9824 17.0396 22.4505 17.0396 23.0255C17.0396 23.5134 17.3793 23.9285 17.8449 24.0351L17.9341 24.5425C17.973 24.7946 17.94 24.8786 17.9454 24.8874C17.9169 24.8904 17.8467 24.8761 17.7114 24.8005C17.7114 24.789 17.7114 24.7779 17.7114 24.7672C17.7114 24.1919 17.2466 23.7238 16.6706 23.7238C16.0943 23.7238 15.6285 24.1919 15.6285 24.7672C15.6285 25.3429 16.0943 25.8096 16.6706 25.8096C16.7613 25.8096 16.8528 25.7957 16.9419 25.7721L17.0365 25.8898C16.7136 27.7198 16.1937 28.8414 15.5308 29.1317C15.1444 29.3026 14.6963 29.2085 14.1215 28.8383C14.079 28.8075 14.0272 28.7752 13.9696 28.743C13.6913 28.5749 13.3103 28.3422 13.0799 27.9914C11.8033 26.0397 11.9553 23.1542 12.1031 20.3666L12.1403 19.5907C12.2635 17.0449 12.8485 14.1853 16.1865 12.1908C16.2942 12.4309 16.3575 12.6963 16.3644 12.9541L16.3697 13.0809C16.4041 14.3239 16.4338 15.3978 17.1069 15.806C17.5769 16.0912 18.055 16.1245 18.4386 16.1504C18.7197 16.1707 18.9649 16.1863 19.1289 16.2954C19.2947 16.4049 19.3811 16.5268 19.389 16.6706C19.4057 16.9693 19.0971 17.4173 18.559 17.8805C18.4309 17.8272 18.2951 17.8001 18.1593 17.8001C17.5853 17.8001 17.1164 18.2669 17.1164 18.8412C17.1164 19.4157 17.5838 19.8838 18.1593 19.8838C18.6851 19.8838 19.1205 19.493 19.1909 18.9818L19.8797 18.6118C20.1236 18.4899 20.3325 18.4709 20.5149 18.5585C20.8209 18.7038 21.0953 19.1699 21.2593 19.8151C21.1119 19.9971 21.0364 20.2207 21.0364 20.4578C21.0364 21.031 21.5053 21.4996 22.0795 21.4996C22.6542 21.4996 23.1226 21.031 23.1226 20.4578C23.1226 19.9714 22.7831 19.5561 22.3175 19.4474L22.1751 18.8601C22.1666 18.6105 22.2112 18.4437 22.2978 18.392C22.4034 18.3318 22.6653 18.3592 23.1055 18.6077C23.1782 19.11 23.6128 19.4989 24.1345 19.4989C24.7064 19.4989 25.1777 19.0313 25.1777 18.4563C25.1777 17.8821 24.71 17.4147 24.1371 17.4147C23.9452 17.4147 23.7614 17.4675 23.5975 17.5684L23.4924 17.5297C23.2656 17.4316 23.1726 17.3573 23.1367 17.3209C23.1929 17.2753 23.3463 17.1889 23.6751 17.1016C23.868 17.2838 24.1225 17.3862 24.3869 17.3862C24.9601 17.3862 25.4278 16.9191 25.4278 16.3454C25.4278 15.7712 24.9622 15.3028 24.3869 15.3028C23.8952 15.3028 23.4827 15.6428 23.3748 16.1056L22.8697 16.196C22.7716 16.2101 22.6988 16.2152 22.646 16.2152C22.5612 16.2152 22.5277 16.2017 22.522 16.2073C22.5207 16.1812 22.5364 16.1058 22.612 15.9731C23.2039 15.9962 23.6859 15.5185 23.6859 14.9328C23.6859 14.3578 23.2205 13.8901 22.646 13.8901C22.0705 13.8901 21.6029 14.3578 21.6029 14.9328C21.6029 15.0248 21.6165 15.115 21.639 15.2041L21.5217 15.3002C19.6947 14.9771 18.5726 14.4574 18.2795 13.7938C18.1109 13.4069 18.2042 12.9603 18.577 12.386C19.1886 11.441 19.7057 10.8353 20.1162 10.5893C20.5382 10.3354 21.0922 10.2646 21.6785 10.1903C21.9214 10.1585 22.1692 10.127 22.4157 10.0809C24.9509 9.61891 25.3519 10.3656 26.0781 11.7224C26.5719 12.6397 27.1858 13.7825 28.6466 14.8782C28.6581 14.8866 28.6738 14.8892 28.6835 14.8951C28.7855 16.433 30.0646 17.655 31.6279 17.655C32.2729 17.655 32.8674 17.4454 33.3542 17.0934C34.425 17.4467 35.708 17.7798 36.7376 17.7798C37.2321 17.7798 37.6688 17.7032 37.9906 17.5141C39.9326 16.3913 38.8879 12.8739 38.6138 12.0509C39.2385 11.5094 39.6341 10.7118 39.6341 9.82288C39.6341 8.41306 38.6412 7.23103 37.3177 6.93789C37.3121 6.9133 37.3064 6.88972 37.2939 6.8664C33.808 0.66955 24.2952 0 20.366 0C9.33859 0 0.365906 8.97217 0.365906 19.9994C0.365906 31.0263 9.33859 40.0003 20.366 40.0003C29.226 40.0003 37.1255 34.0553 39.5805 25.5469C39.6203 25.4221 39.5541 25.2958 39.4347 25.2581ZM29.1447 14.697C29.1447 13.3244 30.2596 12.2079 31.6341 12.2079C33.005 12.2079 34.1224 13.3244 34.1224 14.697C34.1224 16.0697 33.005 17.1866 31.6341 17.1866C30.2596 17.1866 29.1447 16.07 29.1447 14.697ZM39.1741 9.8198C39.1741 10.5993 38.8067 11.2873 38.2466 11.7436C38.2097 11.7611 38.182 11.7849 38.1569 11.8149C37.7441 12.1216 37.238 12.3079 36.6868 12.3079C35.3129 12.3079 34.1967 11.1925 34.1967 9.8198C34.1967 8.44714 35.3126 7.32968 36.6868 7.32968C38.0585 7.32968 39.1741 8.44714 39.1741 9.8198ZM20.3722 39.5316C9.60225 39.5316 0.839433 30.7683 0.839433 19.9991C0.839433 9.23071 9.60353 0.466609 20.3722 0.466609C24.1719 0.466609 33.2886 1.09952 36.7571 6.87153C36.7317 6.87153 36.7091 6.86717 36.6868 6.86717C35.0549 6.86717 33.7288 8.19372 33.7288 9.82365C33.7288 11.4528 35.0549 12.7786 36.6868 12.7786C37.2503 12.7786 37.7751 12.6171 38.2215 12.3417C38.5182 13.2895 39.2923 16.2283 37.7671 17.1118C37.1355 17.4762 35.6875 17.334 33.7719 16.7339C34.2782 16.2027 34.5893 15.4873 34.5893 14.6993C34.5893 13.0694 33.2633 11.7441 31.6341 11.7441C30.1338 11.7441 28.8911 12.8701 28.7032 14.3214C27.4889 13.3428 26.938 12.3276 26.4934 11.5017C25.7452 10.1058 25.2064 9.09849 22.3368 9.62352C22.0964 9.66708 21.8581 9.6986 21.6224 9.72884C20.9861 9.81006 20.3865 9.88694 19.8794 10.1908C19.1689 10.6172 18.4291 11.757 18.188 12.1336C18.0202 12.395 17.5062 13.187 17.8575 13.9842C18.2311 14.8328 19.4397 15.4201 21.5542 15.7791C21.6201 15.7889 21.6882 15.7722 21.7402 15.7286L22.0687 15.4588C22.151 15.3917 22.1753 15.2766 22.13 15.1793C22.0938 15.0986 22.071 15.015 22.071 14.9338C22.071 14.6166 22.3321 14.3575 22.6478 14.3575C22.9627 14.3575 23.2236 14.6166 23.2236 14.9338C23.2236 15.2508 22.9627 15.5093 22.6478 15.5093C22.6097 15.5093 22.5745 15.5055 22.5392 15.4983C22.4469 15.4793 22.3547 15.5193 22.3009 15.5957C22.0518 15.9631 21.996 16.2427 22.1272 16.4507C22.3175 16.7531 22.7865 16.6808 22.9471 16.6562L23.6251 16.5355C23.7317 16.5158 23.8096 16.4248 23.8165 16.3175C23.8309 16.0108 24.0823 15.7691 24.3874 15.7691C24.7044 15.7691 24.9627 16.0272 24.9627 16.3452C24.9627 16.6616 24.7018 16.9207 24.3874 16.9207C24.2109 16.9207 24.0482 16.8399 23.9388 16.6982C23.8826 16.6275 23.7901 16.596 23.7033 16.6163C23.016 16.7741 22.6865 16.9865 22.6573 17.2822C22.6278 17.6194 23.0132 17.8298 23.3189 17.9615L23.5547 18.0476C23.6302 18.0763 23.7163 18.0619 23.7809 18.0104C23.8552 17.9502 23.9782 17.8795 24.1396 17.8795C24.4579 17.8795 24.7154 18.1381 24.7154 18.455C24.7154 18.7725 24.4546 19.0313 24.1396 19.0313C23.8263 19.0313 23.569 18.7756 23.5657 18.4627C23.5629 18.3822 23.5237 18.3092 23.4534 18.2672C22.8477 17.8985 22.3821 17.8052 22.0687 17.9889C21.8186 18.1355 21.7013 18.434 21.7231 18.9206L21.9099 19.7057C21.9337 19.8051 22.0177 19.8782 22.1187 19.8853C22.4216 19.904 22.6599 20.1552 22.6599 20.4567C22.6599 20.7735 22.4003 21.0312 22.0854 21.0312C21.7659 21.0312 21.5086 20.7735 21.5086 20.4567C21.5086 20.2997 21.5709 20.1552 21.6846 20.0452C21.7423 19.9891 21.7659 19.9058 21.7484 19.8279C21.6367 19.3244 21.3533 18.4343 20.724 18.137C20.4083 17.9876 20.0555 18.0043 19.6727 18.1972L18.8658 18.6303C18.7894 18.671 18.7438 18.7535 18.7438 18.8401C18.7438 19.1574 18.4837 19.4157 18.1683 19.4157C17.8518 19.4157 17.5933 19.1574 17.5933 18.8401C17.5933 18.5232 17.8518 18.2641 18.1683 18.2641C18.2741 18.2641 18.3807 18.2959 18.474 18.3546C18.5601 18.4094 18.669 18.4022 18.7451 18.3371C19.2737 17.9051 19.8948 17.2604 19.8618 16.6434C19.8497 16.4394 19.7605 16.1448 19.3913 15.9037C19.1228 15.7299 18.8094 15.7089 18.475 15.6856C18.1078 15.6597 17.727 15.6336 17.357 15.4066C16.8999 15.1298 16.8738 14.1748 16.8425 13.0663L16.8397 12.94C16.8271 12.5264 16.7021 12.1029 16.4884 11.7457C16.4215 11.6376 16.2826 11.6004 16.1737 11.6619C12.4534 13.7728 11.8159 16.842 11.6839 19.5666L11.644 20.3399C11.4946 23.2031 11.3362 26.1629 12.6966 28.2436C12.9833 28.684 13.4356 28.9556 13.7338 29.1383C13.7871 29.1688 13.835 29.197 13.8763 29.228C14.1389 29.3961 14.9299 29.9078 15.7271 29.5588C16.5791 29.1829 17.1643 27.9771 17.5218 25.8629C17.5351 25.7983 17.5146 25.7281 17.4726 25.6776L17.2028 25.3496C17.1354 25.2656 17.0203 25.2404 16.923 25.2879C16.5312 25.4759 16.1035 25.1702 16.1035 24.7695C16.1035 24.4525 16.3618 24.1945 16.6777 24.1945C16.9968 24.1945 17.2533 24.4538 17.2533 24.7695C17.2533 24.8059 17.2492 24.8423 17.2425 24.8758C17.2217 24.9683 17.262 25.0636 17.3383 25.1172C17.7058 25.3637 17.9861 25.4201 18.1957 25.2879C18.4973 25.0972 18.4235 24.6291 18.4007 24.4664L18.2787 23.7932C18.2603 23.6866 18.1701 23.6054 18.0604 23.6003C17.7534 23.5857 17.5136 23.3363 17.5136 23.0307C17.5136 22.7137 17.7732 22.4557 18.0891 22.4557C18.4056 22.4557 18.6633 22.715 18.6633 23.0307C18.6633 23.2044 18.5834 23.3668 18.4437 23.4793C18.3738 23.5354 18.3402 23.6264 18.3592 23.7148C18.5168 24.4005 18.7315 24.7326 19.0251 24.7595C19.3565 24.7884 19.574 24.4031 19.7057 24.1004L19.7918 23.8647C19.8218 23.786 19.8077 23.7035 19.7559 23.639C19.6962 23.5647 19.6235 23.4414 19.6235 23.28C19.6235 22.9592 19.8838 22.7024 20.1995 22.7024C20.5144 22.7024 20.7752 22.9604 20.7752 23.28C20.7752 23.5913 20.52 23.8481 20.2064 23.8537C20.1259 23.8537 20.055 23.8942 20.0109 23.9644C19.6434 24.5717 19.5504 25.036 19.7326 25.3483C19.8805 25.5976 20.1777 25.7158 20.6643 25.6945L21.4494 25.5095C21.5504 25.4844 21.6219 25.3973 21.629 25.2978C21.647 24.995 21.8996 24.7564 22.201 24.7564C22.5177 24.7564 22.7742 25.016 22.7742 25.333C22.7742 25.6497 22.5166 25.9077 22.201 25.9077C22.0454 25.9077 21.8994 25.8462 21.7887 25.7311C21.731 25.675 21.6498 25.6499 21.5716 25.6694C21.0679 25.7816 20.179 26.065 19.8802 26.6931C19.7295 27.01 19.7482 27.3634 19.9404 27.7447L20.3737 28.5521C20.417 28.6361 20.5026 28.684 20.5997 28.6753C20.9098 28.6838 21.1588 28.9387 21.1588 29.2488C21.1588 29.567 20.9013 29.8251 20.5856 29.8251C20.2669 29.8251 20.0091 29.567 20.0091 29.2488C20.0091 29.1435 20.0393 29.0402 20.0983 28.9433C20.1521 28.8575 20.1449 28.7483 20.0816 28.6728C19.6491 28.1452 19.0008 27.5281 18.3871 27.5566C18.1806 27.5676 17.8862 27.6575 17.6448 28.0275C17.4723 28.294 17.4503 28.6084 17.4283 28.9418C17.4014 29.3092 17.375 29.6903 17.1502 30.0608C16.8738 30.5177 15.9162 30.543 14.8064 30.5766L14.6832 30.5794C14.5025 30.5851 14.3045 30.6148 14.0977 30.6706C14.0272 30.6873 13.9696 30.7406 13.9434 30.8085C13.9158 30.8769 13.9214 30.9525 13.9611 31.0143C16.0656 34.5181 19.4346 36.2974 23.9721 36.2974C29.3646 36.2974 34.3928 33.6389 37.4971 29.3933C34.1117 35.5187 27.565 39.5316 20.3722 39.5316ZM36.6856 8.8502C37.5086 8.8502 38.1774 9.51821 38.1774 10.342C38.1774 11.1666 37.5086 11.8338 36.6856 11.8338C35.861 11.8338 35.1938 11.1666 35.1938 10.342C35.1938 9.51821 35.861 8.8502 36.6856 8.8502ZM33.4073 15.2895C33.3786 16.1125 32.6908 16.7577 31.8696 16.7316C31.0445 16.7044 30.4011 16.0151 30.4277 15.1923C30.4557 14.3685 31.1434 13.7233 31.9657 13.7507C32.791 13.7782 33.4337 14.4672 33.4073 15.2895Z" fill="black"/>
</g>
<defs>
<clipPath id="clip0">
<rect width="40" height="40" fill="white"/>
</clipPath>
</defs>
</svg>
