<svg width="40" height="40" viewBox="0 0 40 40" fill="none" xmlns="http://www.w3.org/2000/svg">
<path d="M24.2838 1.17188C24.2838 0.524597 23.7592 0 23.1119 0H16.8359C16.1887 0 15.6641 0.524597 15.6641 1.17188V6.27594H24.2838V1.17188Z" fill="black"/>
<path d="M30.8871 13.5153C29.8611 11.557 28.5892 9.89807 27.157 8.61969H12.7908C11.3586 9.89807 10.0867 11.557 9.06067 13.5153C7.22198 17.0255 6.25 21.2329 6.25 25.6827C6.25 30.8469 7.58392 35.7422 10.0061 39.4672C10.2225 39.7995 10.592 40 10.9885 40H28.9587C29.3552 40 29.725 39.7995 29.9411 39.4672C32.3639 35.7422 33.6978 30.8469 33.6978 25.6827C33.6978 21.2329 32.7258 17.0255 30.8871 13.5153ZM24.375 19.1019C24.5938 18.8831 24.8953 18.7582 25.2039 18.7582C25.5124 18.7582 25.8139 18.8831 26.0327 19.1019C26.2506 19.3198 26.3757 19.6213 26.3757 19.9301C26.3757 20.2386 26.2506 20.5408 26.0327 20.759C25.8139 20.9769 25.5124 21.102 25.2039 21.102C24.8953 21.102 24.5938 20.9769 24.375 20.759C24.1571 20.5408 24.032 20.2386 24.032 19.9301C24.032 19.6222 24.1571 19.3198 24.375 19.1019ZM20.9586 17.2885C21.1765 17.0706 21.478 16.9455 21.7865 16.9455C22.0953 16.9455 22.3975 17.0706 22.6157 17.2885C22.8336 17.5064 22.9584 17.8088 22.9584 18.1168C22.9584 18.4253 22.8336 18.7277 22.6157 18.9456C22.3969 19.1644 22.0953 19.2892 21.7865 19.2892C21.478 19.2892 21.1765 19.1644 20.9586 18.9456C20.7397 18.7277 20.6146 18.4253 20.6146 18.1168C20.6146 17.8088 20.7397 17.5064 20.9586 17.2885ZM17.3318 17.2885C17.55 17.0706 17.8522 16.9455 18.161 16.9455C18.4695 16.9455 18.7711 17.0706 18.989 17.2885C19.2078 17.5064 19.3329 17.8088 19.3329 18.1168C19.3329 18.4253 19.2078 18.7277 18.989 18.9456C18.7711 19.1644 18.4695 19.2892 18.161 19.2892C17.8522 19.2892 17.55 19.1644 17.3318 18.9456C17.114 18.7277 16.9891 18.4253 16.9891 18.1168C16.9891 17.8088 17.114 17.5064 17.3318 17.2885ZM13.9148 19.1019C14.1336 18.8831 14.4357 18.7582 14.7437 18.7582C15.0522 18.7582 15.3546 18.8831 15.5725 19.1019C15.7904 19.3198 15.9155 19.6213 15.9155 19.9301C15.9155 20.2386 15.7904 20.5408 15.5725 20.759C15.3546 20.9769 15.0522 21.102 14.7437 21.102C14.4351 21.102 14.1333 20.9769 13.9148 20.759C13.6969 20.5408 13.5718 20.2386 13.5718 19.9301C13.5718 19.6222 13.6969 19.3198 13.9148 19.1019ZM25.8905 30.3815C25.2921 31.2958 24.2841 31.8411 23.1937 31.8411C22.4017 31.8411 21.7902 31.6599 21.2509 31.5002C20.8084 31.369 20.426 31.2558 19.9738 31.2558C19.5218 31.2558 19.1394 31.369 18.6966 31.5002C18.157 31.6599 17.5458 31.8411 16.7538 31.8411C15.6635 31.8411 14.6558 31.2958 14.0576 30.3821C13.714 29.8569 13.5327 29.2477 13.5327 28.62C13.5327 25.0684 16.4221 22.179 19.9738 22.179C23.5254 22.179 26.4148 25.0684 26.4148 28.62C26.4148 29.2477 26.2335 29.8569 25.8905 30.3815Z" fill="black"/>
</svg>
