<svg width="40" height="40" viewBox="0 0 40 40" fill="none" xmlns="http://www.w3.org/2000/svg">
<g clip-path="url(#clip0)">
<path d="M36.9612 13.0593L27.2042 12.3583C27.0005 12.342 26.8211 12.2198 26.7478 12.0241L23.0308 2.97633C22.5173 1.7292 21.3599 0.954842 20.0068 0.954842C18.6537 0.954842 17.5043 1.7292 16.9827 2.98448L13.2576 12.0404C13.1761 12.2279 13.0049 12.3583 12.8011 12.3746L3.06047 13.0756C1.73998 13.149 0.615121 14.013 0.183109 15.2846C-0.257054 16.5725 0.109749 17.9256 1.1531 18.8141L8.69293 25.0416C8.8478 25.172 8.92117 25.3839 8.87226 25.5795L6.57363 34.986C6.30464 35.9641 6.49212 36.9749 7.08715 37.7655C7.69849 38.5644 8.65218 39.0453 9.65477 39.0453C10.2743 39.0453 10.8774 38.8578 11.3747 38.5236L19.6155 33.3965C19.7867 33.2905 20.0068 33.2905 20.1779 33.3965L28.5003 38.5073C29.022 38.8578 29.6251 39.0453 30.2365 39.0453C31.1739 39.0453 32.1031 38.597 32.7063 37.8389C33.3339 37.0564 33.5622 36.0375 33.3339 35.0186L31.0271 25.5877C30.9782 25.3839 31.0516 25.172 31.2065 25.0416L38.8604 18.7978C39.8875 17.9174 40.2543 16.5643 39.8223 15.2765C39.3984 14.0049 38.2654 13.1327 36.9612 13.0593ZM37.5888 17.2572L29.9512 23.4928C29.2013 24.1042 28.8589 25.1149 29.0953 26.0605L31.4021 35.4751C31.5244 36.0293 31.3043 36.4124 31.1576 36.5918C30.9293 36.8771 30.587 37.0564 30.2446 37.0564C30.0327 37.0564 29.8208 36.9912 29.5925 36.8363L21.2376 31.7011C20.8382 31.4565 20.3817 31.3261 19.9089 31.3261C19.4362 31.3261 18.9716 31.4565 18.5722 31.7092L10.2987 36.8526C9.76889 37.2031 9.05973 37.0482 8.68478 36.5592C8.52991 36.3554 8.36689 36.0049 8.51361 35.4914L10.8204 26.0523C11.0486 25.1149 10.7144 24.1123 9.97267 23.501L2.44913 17.2816C1.8541 16.7681 2.01712 16.1079 2.08233 15.9204C2.14754 15.7329 2.41653 15.1053 3.19904 15.0645L12.956 14.3635C13.9178 14.2902 14.7493 13.6951 15.1161 12.7985L18.8411 3.74254C19.1427 3.00894 19.8193 2.95188 20.0149 2.95188C20.2105 2.95188 20.8871 3.00894 21.1887 3.74254L24.9138 12.7985C25.2806 13.6951 26.112 14.2902 27.0738 14.3635L36.8471 15.0727C37.6133 15.1134 37.8823 15.7411 37.9475 15.9285C37.9964 16.0997 38.1594 16.76 37.5888 17.2572Z" fill="black"/>
</g>
<defs>
<clipPath id="clip0">
<rect width="40" height="40" fill="white"/>
</clipPath>
</defs>
</svg>
