<svg width="40" height="40" viewBox="0 0 40 40" fill="none" xmlns="http://www.w3.org/2000/svg">
<g clip-path="url(#clip0)">
<path d="M38.6653 25.449V7.3355C38.6653 7.1126 38.5539 6.90453 38.3685 6.78087L29.6506 0.969233C28.7644 0.0105431 27.3621 -0.269356 26.1758 0.27586L24.8201 0.894654L24.7631 0.81016C24.5573 0.504929 24.143 0.424351 23.8377 0.630171L21.627 2.12149C21.3217 2.32731 21.2411 2.74162 21.447 3.04685L22.608 4.769C22.0428 5.19405 21.5507 5.70827 21.1509 6.29157L22.2497 7.04644C22.5552 6.60155 22.9284 6.20707 23.3555 5.87726L24.9304 8.21228L23.7227 7.77606C23.4645 8.48976 23.3326 9.24305 23.3329 10.002H24.6662C24.6661 9.40962 24.7671 8.82158 24.9649 8.26319L25.1743 8.57367C25.3801 8.87866 25.7941 8.95923 26.0993 8.75375L28.31 7.26284C28.6153 7.05702 28.6958 6.64271 28.49 6.33748C28.49 6.33748 28.49 6.33748 28.49 6.3374L28.4329 6.2529L29.1802 5.54461L34.6656 9.03473V25.3344H30.6658C30.6641 23.8624 29.4713 22.6695 27.9993 22.6679V18.6681C27.9993 18.2247 27.9627 17.7821 27.8901 17.3447C29.1195 16.3791 29.8818 14.9374 29.9878 13.3778C29.9953 13.26 29.9992 13.1396 29.9992 13.0201V11.3353C29.9992 10.9671 29.7007 10.6686 29.3326 10.6686H25.3328C25.1886 10.6687 25.0482 10.7155 24.9328 10.802L23.818 11.6377C21.4365 10.3457 18.563 10.3457 16.1815 11.6377L15.0668 10.802C14.9514 10.7155 14.811 10.6687 14.6668 10.6686H10.6671C10.2989 10.6686 10.0004 10.9671 10.0004 11.3353V13.0201C10.0004 13.1396 10.0043 13.26 10.0118 13.3785C10.1179 14.9379 10.8803 16.3794 12.1096 17.3449C12.0369 17.7822 12.0003 18.2248 12.0003 18.6681V22.6679C10.5283 22.6695 9.33547 23.8624 9.33381 25.3344H2.00093C0.89642 25.3348 0.00139233 26.2306 0.0018923 27.3351C0.00222561 28.1819 0.536025 28.9368 1.33431 29.2195V32.6673C1.33889 36.7152 4.61927 39.9955 8.66718 40.0001H31.3324C35.3803 39.9955 38.6607 36.7152 38.6653 32.6673V29.2206C39.7068 28.8522 40.2525 27.7093 39.8841 26.6678C39.6827 26.0983 39.2347 25.6504 38.6653 25.449ZM25.9069 7.27559L22.925 2.85412L24.0305 2.10858L27.0123 6.53014L25.9069 7.27559ZM28.5984 4.26011L27.6777 5.13231L25.5759 2.01583L26.7295 1.48937C27.5806 1.10081 28.5856 1.47578 28.9742 2.32698C29.2748 2.98561 29.1237 3.76248 28.5982 4.26036L28.5984 4.26011ZM30.0653 4.52734C30.3122 4.0957 30.4484 3.60965 30.4618 3.11252L37.3321 7.69223V25.3344H35.9988V8.66875C35.9989 8.44093 35.8826 8.22878 35.6905 8.10629L30.0653 4.52734ZM27.9993 24.0011C28.7353 24.002 29.3317 24.5984 29.3326 25.3344C29.3321 25.7024 29.0339 26.0006 28.6659 26.001H27.3327C26.9647 26.0006 26.6665 25.7024 26.6661 25.3344C26.6669 24.5984 27.2633 24.002 27.9993 24.0011ZM19.9998 22.7284C20.8568 23.0647 21.8093 23.0647 22.6663 22.7284V24.0011C24.0692 23.9994 25.3215 23.1208 25.8004 21.8023C26.1107 21.6895 26.4024 21.5314 26.6661 21.3328V23.0266C25.8416 23.5028 25.3336 24.3824 25.3328 25.3344H14.6668C14.6661 24.3824 14.158 23.5028 13.3336 23.0266V21.3328C13.5972 21.5314 13.8889 21.6895 14.1992 21.8023C14.6781 23.1208 15.9304 23.9994 17.3333 24.0011V22.7284C18.1903 23.0647 19.1428 23.0647 19.9998 22.7284ZM19.3332 19.3348V18.6681H20.6664V19.3348C20.6664 19.7029 20.368 20.0014 19.9998 20.0014C19.6317 20.0014 19.3332 19.7029 19.3332 19.3348ZM27.5055 15.8985C27.2559 15.2238 26.9168 14.5859 26.4972 14.0018H28.5476C28.3721 14.7143 28.0128 15.3682 27.5055 15.8985ZM11.3337 12.0019H14.4447L15.7352 12.9694C15.9552 13.1344 16.254 13.1473 16.4874 13.0019C18.6391 11.6686 21.3603 11.6686 23.512 13.0019C23.7455 13.1473 24.0442 13.1344 24.2643 12.9694L25.555 12.0019H28.6659V12.6685H25.9386C25.7582 12.6685 25.5855 12.7416 25.4599 12.8712L25.0067 13.3386C24.7639 13.5891 24.7553 13.9845 24.9869 14.2453C26.0711 15.4632 26.6689 17.0376 26.6661 18.6681C26.6662 19.2368 26.4237 19.7785 25.9994 20.1571V19.3348H24.6662V20.668C24.6648 21.7093 23.8656 22.5756 22.8278 22.6608C22.8736 22.6402 22.9195 22.62 22.9645 22.5975L22.3682 21.405C21.8399 21.6674 21.2316 21.7195 20.6664 21.5506V21.22C21.4648 20.9367 21.9986 20.1819 21.9997 19.3348V18.0015C21.9997 17.6334 21.7012 17.3349 21.3331 17.3349H18.6666C18.2984 17.3349 17.9999 17.6334 17.9999 18.0015V19.3348C18.001 20.1819 18.5348 20.9367 19.3332 21.22V21.5513C18.768 21.7199 18.1598 21.6678 17.6315 21.4055L17.0352 22.5979C17.0802 22.6204 17.126 22.6406 17.1718 22.6612C16.1339 22.576 15.3346 21.7094 15.3334 20.668V19.3348H14.0002V20.1571C13.576 19.7785 13.3334 19.2368 13.3336 18.6681C13.3308 17.0376 13.9285 15.4632 15.0127 14.2453C15.2444 13.9845 15.2357 13.5891 14.9929 13.3386L14.5397 12.8712C14.4142 12.7416 14.2414 12.6685 14.061 12.6685H11.3337V12.0019ZM11.4519 14.0018H13.5025C13.0828 14.586 12.7438 15.2238 12.4942 15.8985C11.9867 15.3683 11.6273 14.7143 11.4519 14.0018ZM12.0003 24.0011C12.7363 24.002 13.3327 24.5984 13.3336 25.3344C13.3331 25.7024 13.0349 26.0006 12.6669 26.001H11.3337C10.9657 26.0006 10.6675 25.7024 10.6671 25.3344C10.6679 24.5984 11.2643 24.002 12.0003 24.0011ZM37.3321 32.6673C37.3283 35.9792 34.6444 38.6631 31.3324 38.6669H8.66718C5.35522 38.6631 2.67131 35.9792 2.66756 32.6673V32.0006H6.00068C6.36883 32.0006 6.66731 31.7021 6.66731 31.334C6.66731 30.9659 6.36883 30.6674 6.00068 30.6674H2.66756V29.3341H37.3321V32.6673ZM38.4715 27.8053C38.3462 27.9309 38.176 28.0013 37.9987 28.0009H2.00093C1.63279 28.0009 1.33431 27.7024 1.33431 27.3342C1.33431 26.9661 1.63279 26.6676 2.00093 26.6676H9.84469C10.2233 27.0918 10.7651 27.3344 11.3337 27.3342H12.6669C13.2356 27.3344 13.7773 27.0918 14.1559 26.6676H25.8437C26.2223 27.0918 26.764 27.3344 27.3327 27.3342H28.6659C29.2346 27.3344 29.7763 27.0918 30.1549 26.6676H37.9987C38.3672 26.668 38.6657 26.9671 38.6654 27.3357C38.6651 27.5117 38.5955 27.6804 38.4715 27.8053Z" fill="black"/>
<path d="M16.457 16.0452L18.4576 15.3791L18.8789 16.6444L16.8784 17.3106L16.457 16.0452Z" fill="black"/>
<path d="M21.1219 16.6237L21.5433 15.3583L23.5438 16.0245L23.1225 17.2898L21.1219 16.6237Z" fill="black"/>
<path d="M16.6666 10.0018H17.9999C17.9995 9.39713 18.1045 8.79709 18.3103 8.22845L17.0563 7.77548C16.798 8.48935 16.6661 9.24272 16.6666 10.0018Z" fill="black"/>
<path d="M19.8484 4.38226C19.0417 4.86456 18.3491 5.51585 17.8181 6.29139L18.9172 7.04617C19.3401 6.42846 19.8918 5.90966 20.5344 5.52552L21.0093 5.24054L20.3234 4.09727L19.8484 4.38226Z" fill="black"/>
<path d="M19.9997 10.0018H21.333C21.3326 9.39713 21.4376 8.79709 21.6434 8.22845L20.3893 7.77548C20.1311 8.48935 19.9992 9.24272 19.9997 10.0018Z" fill="black"/>
<path d="M2.00085 20.6679C2.00085 22.5087 3.49318 24.001 5.33398 24.001C7.17478 24.001 8.6671 22.5087 8.6671 20.6679C8.6671 18.8271 7.17478 17.3348 5.33398 17.3348C3.49393 17.3369 2.00285 18.8279 2.00085 20.6679ZM5.33398 18.668C6.43849 18.668 7.33385 19.5634 7.33385 20.6679C7.33385 21.7724 6.43849 22.6678 5.33398 22.6678C4.22946 22.6678 3.3341 21.7724 3.3341 20.6679C3.33535 19.5639 4.22996 18.6693 5.33398 18.668Z" fill="black"/>
<path d="M2.66748 11.3351C1.19482 11.3351 0.000976562 12.529 0.000976562 14.0016C0.000976562 15.4743 1.19482 16.6681 2.66748 16.6681C4.14013 16.6681 5.33398 15.4743 5.33398 14.0016C5.33231 12.5296 4.13938 11.3368 2.66748 11.3351ZM2.66748 15.3349C1.93111 15.3349 1.33423 14.738 1.33423 14.0016C1.33423 13.2653 1.93111 12.6684 2.66748 12.6684C3.40385 12.6684 4.00073 13.2653 4.00073 14.0016C3.99981 14.7376 3.40343 15.334 2.66748 15.3349Z" fill="black"/>
<path d="M29.3325 20.0012C29.3325 21.1058 30.2278 22.0011 31.3323 22.0011C32.4368 22.0011 33.3322 21.1058 33.3322 20.0012C33.3322 18.8967 32.4368 18.0014 31.3323 18.0014C30.2283 18.0026 29.3337 18.8972 29.3325 20.0012ZM31.3323 19.3346C31.7005 19.3346 31.999 19.6331 31.999 20.0012C31.999 20.3694 31.7005 20.6679 31.3323 20.6679C30.9642 20.6679 30.6657 20.3694 30.6657 20.0012C30.6661 19.6333 30.9643 19.335 31.3323 19.3346Z" fill="black"/>
<path d="M8.66717 32.0005H9.3338C9.70194 32.0005 10.0004 31.702 10.0004 31.3339C10.0004 30.9657 9.70194 30.6673 9.3338 30.6673H8.66717C8.29903 30.6673 8.00055 30.9657 8.00055 31.3339C8.00055 31.702 8.29895 32.0005 8.66717 32.0005Z" fill="black"/>
<path d="M19.9997 33.3338C20.3679 33.3338 20.6664 33.0353 20.6664 32.6671V32.0005C20.6664 31.6324 20.3679 31.3339 19.9997 31.3339C19.6316 31.3339 19.3331 31.6324 19.3331 32.0005V32.6671C19.3331 33.0353 19.6315 33.3338 19.9997 33.3338Z" fill="black"/>
<path d="M17.9999 34.667C18.368 34.667 18.6665 34.3685 18.6665 34.0004V33.3338C18.6665 32.9656 18.368 32.6671 17.9999 32.6671C17.6317 32.6671 17.3333 32.9656 17.3333 33.3338V34.0004C17.3333 34.3685 17.6317 34.667 17.9999 34.667Z" fill="black"/>
<path d="M21.9996 34.667C22.3678 34.667 22.6662 34.3685 22.6662 34.0004V33.3338C22.6662 32.9656 22.3678 32.6671 21.9996 32.6671C21.6315 32.6671 21.333 32.9656 21.333 33.3338V34.0004C21.333 34.3685 21.6314 34.667 21.9996 34.667Z" fill="black"/>
<path d="M17.9998 36.0002C17.9998 36.3684 18.2983 36.6669 18.6664 36.6669H21.3329C21.7011 36.6669 21.9996 36.3684 21.9996 36.0002C21.9996 35.6321 21.7011 35.3336 21.3329 35.3336H20.6663V34.667C20.6663 34.2989 20.3678 34.0004 19.9997 34.0004C19.6315 34.0004 19.3331 34.2989 19.3331 34.667V35.3336H18.6664C18.2982 35.3336 17.9998 35.6321 17.9998 36.0002Z" fill="black"/>
<path d="M30.6658 37.3335C33.6098 37.3302 35.9954 34.9445 35.9988 32.0005C35.9988 31.6324 35.7003 31.3339 35.3321 31.3339C34.964 31.3339 34.6655 31.6324 34.6655 32.0005C34.6631 34.2085 32.8738 35.9978 30.6658 36.0003C30.2976 36.0003 29.9991 36.2987 29.9991 36.6669C29.9991 37.035 30.2975 37.3335 30.6658 37.3335Z" fill="black"/>
<path d="M27.3326 37.3335H27.9992C28.3674 37.3335 28.6658 37.035 28.6658 36.6669C28.6658 36.2987 28.3674 36.0002 27.9992 36.0002H27.3326C26.9644 36.0002 26.666 36.2987 26.666 36.6669C26.666 37.035 26.9644 37.3335 27.3326 37.3335Z" fill="black"/>
</g>
<defs>
<clipPath id="clip0">
<rect width="40" height="40" fill="white"/>
</clipPath>
</defs>
</svg>
