<svg width="40" height="40" viewBox="0 0 40 40" fill="none" xmlns="http://www.w3.org/2000/svg">
<g clip-path="url(#clip0)">
<path d="M28.5239 39.9991C25.7024 39.9991 23.3941 37.7599 23.2831 34.9652C22.3589 35.1977 21.276 35.3116 20.0001 35.3116C18.7241 35.3116 17.6413 35.1977 16.717 34.9651C16.7016 35.3545 16.6434 35.733 16.5472 36.0962C17.5811 36.3533 18.7399 36.4834 20 36.4834C20.6288 36.4834 21.2407 36.4504 21.8188 36.3852C22.1397 36.349 22.4305 36.5803 22.4666 36.9018C22.5029 37.2234 22.2716 37.5134 21.9501 37.5497C21.3286 37.6198 20.6725 37.6553 20 37.6553C18.5856 37.6553 17.2818 37.5009 16.1173 37.1959C15.2376 38.8615 13.4873 39.9991 11.4763 39.9991C8.16797 39.9991 4.66875 36.4999 4.66875 33.1916C4.66875 32.2502 4.91813 31.3658 5.35415 30.6012C4.73985 30.2022 3.85071 29.3533 3.85071 27.7846C3.85071 25.2706 6.72618 21.6644 12.0805 19.5959C12.0731 19.591 12.0657 19.5861 12.0583 19.5812C9.82297 18.0956 8.64149 15.9186 8.64149 13.2856C8.64149 11.8713 9.04563 10.247 9.77297 8.67626C7.98969 8.07227 6.75524 6.3929 6.75524 4.45602C6.75524 1.99837 8.75469 -0.00100708 11.2123 -0.00100708C13.0474 -0.00100708 14.6671 1.11321 15.3412 2.77321C15.9851 2.49431 16.6584 2.27376 17.3494 2.11579C17.6648 2.04368 17.9791 2.24102 18.0511 2.55641C18.1232 2.87188 17.9259 3.1861 17.6105 3.25821C16.8275 3.4372 16.0703 3.70532 15.3601 4.05516C12.4571 5.48509 9.81336 9.88462 9.81336 13.2855C9.81336 15.5392 10.7869 17.329 12.707 18.6051C13.4519 19.1002 14.3335 19.5029 15.3181 19.8047C14.981 19.3408 14.8034 18.8119 14.8034 18.2459C14.8034 15.9123 17.0258 13.3024 20.0001 13.3024C21.355 13.3024 22.6591 13.853 23.672 14.8529C24.6409 15.8095 25.1967 17.0462 25.1967 18.2459C25.1967 18.8119 25.0191 19.3408 24.682 19.8047C25.6666 19.5029 26.5483 19.1002 27.2932 18.6051C29.2133 17.329 30.1868 15.5392 30.1868 13.2855C30.1868 9.87345 27.5286 5.4672 24.6098 4.04102C23.2038 3.35399 21.6095 2.99087 19.9995 2.99087C19.6759 2.99087 19.4135 2.72852 19.4135 2.40493C19.4135 2.08134 19.6759 1.81899 19.9995 1.81899C21.6113 1.81899 23.2109 2.14782 24.6575 2.77329C25.3313 1.11321 26.951 -0.000928955 28.7863 -0.000928955C31.244 -0.000928955 33.2434 1.99852 33.2434 4.4561C33.2434 6.39352 32.0082 8.07321 30.2241 8.67681C30.934 10.1979 31.3586 11.8109 31.3586 13.2856C31.3586 15.9186 30.177 18.0956 27.9418 19.5812C27.9341 19.5863 27.9266 19.5913 27.9189 19.5963C28.9562 19.9984 29.9364 20.4736 30.8438 21.0149C31.1216 21.1806 31.2126 21.5403 31.0468 21.8182C30.8811 22.0961 30.5214 22.1871 30.2434 22.0213C29.4398 21.542 28.5741 21.1174 27.6584 20.7531C28.7042 23.0957 29.4764 25.7245 29.7661 27.9574C29.873 27.9502 29.9799 27.9466 30.0866 27.9466C31.6168 27.9466 32.9961 28.6054 33.9558 29.6541C34.3799 29.4006 34.9777 28.8535 34.9777 27.7847C34.9777 26.4731 33.8473 24.74 32.0277 23.2619C31.7766 23.0578 31.7384 22.6888 31.9424 22.4377C32.1464 22.1865 32.5155 22.1483 32.7666 22.3524C34.8848 24.0731 36.1495 26.1039 36.1495 27.7847C36.1495 29.3524 35.267 30.1998 34.6463 30.6017C35.0823 31.3663 35.3316 32.2502 35.3316 33.1917C35.3314 36.4999 31.8323 39.9991 28.5239 39.9991ZM30.0864 29.1185C28.8343 29.1185 27.4072 29.7981 26.2688 30.9366C25.1305 32.0749 24.4508 33.502 24.4508 34.7542C24.4508 37.0001 26.278 38.8273 28.5239 38.8273C29.776 38.8273 31.2031 38.1477 32.3416 37.0093C33.4799 35.8709 34.1595 34.4438 34.1595 33.1917C34.1595 33.0011 34.1464 32.8136 34.1209 32.63L32.7328 33.5369C32.4619 33.7138 32.0988 33.6377 31.9218 33.3668C31.7448 33.0959 31.8209 32.7328 32.0919 32.5558L33.772 31.4582C33.3681 30.6031 32.675 29.91 31.8199 29.5061L30.7223 31.1862C30.5454 31.457 30.1822 31.5333 29.9113 31.3563C29.6404 31.1793 29.5643 30.8162 29.7413 30.5452L30.6481 29.1571C30.4645 29.1316 30.277 29.1185 30.0864 29.1185ZM5.87915 32.6299C5.85368 32.8136 5.84055 33.001 5.84055 33.1916C5.84055 34.4437 6.52016 35.8708 7.65852 37.0092C8.79696 38.1476 10.2241 38.8272 11.4763 38.8272C13.7222 38.8272 15.5494 37 15.5494 34.7541C15.5494 33.502 14.8698 32.0749 13.7313 30.9365C12.593 29.7981 11.1659 29.1184 9.91375 29.1184C9.72321 29.1184 9.53571 29.1316 9.35211 29.157L10.2589 30.5452C10.4359 30.8161 10.3598 31.1792 10.0888 31.3562C9.8179 31.5331 9.45477 31.457 9.27782 31.1861L8.18024 29.506C7.32516 29.9099 6.63204 30.6031 6.22813 31.4581L7.90821 32.5557C8.17915 32.7327 8.25524 33.0958 8.07829 33.3667C7.90126 33.6377 7.53805 33.7136 7.26727 33.5368L5.87915 32.6299ZM16.6114 33.7182C17.5098 33.9981 18.6477 34.1397 20.0001 34.1397C21.3524 34.1397 22.4903 33.9981 23.3888 33.7182C23.7166 32.1443 24.7495 30.6142 26.09 29.5253C25.9761 28.0252 25.3238 26.632 24.2382 25.5806C23.0944 24.4729 21.5892 23.8629 20.0001 23.8629C18.4095 23.8629 16.9034 24.4738 15.7593 25.5833C14.6752 26.6345 14.024 28.0267 13.9102 29.5254C15.2507 30.6142 16.2836 32.1443 16.6114 33.7182ZM12.3409 20.7526C9.80063 21.7603 8.14711 23.0287 7.17071 23.9705C5.82571 25.268 5.02266 26.6938 5.02266 27.7847C5.02266 28.8538 5.62469 29.4017 6.04477 29.6538C7.00446 28.6053 8.38368 27.9466 9.91368 27.9466C10.0203 27.9466 10.127 27.9502 10.2338 27.9574C10.3287 27.2245 10.4762 26.4431 10.6736 25.6269C10.7497 25.3124 11.066 25.1191 11.3809 25.1952C11.6955 25.2713 11.8888 25.588 11.8126 25.9026C11.6197 26.6997 11.4775 27.459 11.3885 28.1663C11.8781 28.3092 12.3597 28.5176 12.8212 28.7794C13.077 27.2471 13.8123 25.8387 14.9435 24.742C16.3075 23.4194 18.1033 22.6911 20.0001 22.6911C21.8952 22.6911 23.6898 23.4184 25.0534 24.7389C26.1863 25.8359 26.9228 27.2455 27.179 28.7795C27.6405 28.5176 28.1219 28.3092 28.6115 28.1663C28.3131 25.7925 27.4291 22.9263 26.2428 20.4896C24.4827 21.2377 22.3613 21.6273 20.0002 21.6273C17.6388 21.6273 15.5175 21.2377 13.7572 20.4895C13.2709 21.4873 12.8359 22.5529 12.4618 23.6632C12.3585 23.9699 12.026 24.1349 11.7195 24.0314C11.4128 23.9281 11.248 23.5958 11.3513 23.2891C11.6459 22.4142 11.9773 21.5652 12.3409 20.7526ZM20.586 17.0606V20.4344C21.5132 20.3672 22.3433 20.14 22.9658 19.7781C23.4489 19.4971 24.0248 19.0034 24.0248 18.2461C24.0248 17.1426 23.4409 16.1677 22.6187 15.4856C22.2307 16.1965 21.4677 16.8505 20.586 17.0606ZM17.3815 15.4856C16.5594 16.1676 15.9753 17.1425 15.9753 18.2461C15.9753 19.0034 16.5513 19.4972 17.0344 19.7781C17.6569 20.14 18.487 20.3672 19.4141 20.4344V17.0606C18.5324 16.8505 17.7695 16.1965 17.3815 15.4856ZM18.3763 14.8561C18.6138 15.3379 19.2641 15.9588 20.0001 15.9588C20.736 15.9588 21.3863 15.3379 21.6239 14.8561C21.0968 14.6109 20.5359 14.4744 20.0001 14.4744C19.4642 14.4744 18.9034 14.6109 18.3763 14.8561ZM25.707 3.30774C27.2389 4.23899 28.6484 5.81884 29.6766 7.6197C31.0821 7.22759 32.0716 5.94509 32.0716 4.4561C32.0716 2.64462 30.5978 1.17095 28.7864 1.17095C27.3997 1.17095 26.1801 2.0336 25.707 3.30774ZM11.2123 1.17095C9.40086 1.17095 7.92719 2.6447 7.92719 4.4561C7.92719 5.94345 8.9143 7.2247 10.3172 7.61829C10.3637 7.53634 10.411 7.45477 10.4592 7.37352C11.5192 5.58751 12.8631 4.16516 14.2909 3.30563C13.8173 2.03266 12.5982 1.17095 11.2123 1.17095ZM28.3765 37.4991C26.9442 37.4991 25.779 36.3338 25.779 34.9016C25.779 33.4693 26.9442 32.3041 28.3765 32.3041C29.8088 32.3041 30.974 33.4693 30.974 34.9016C30.974 36.3338 29.8088 37.4991 28.3765 37.4991ZM28.3765 33.4759C27.5904 33.4759 26.9509 34.1155 26.9509 34.9016C26.9509 35.6877 27.5904 36.3272 28.3765 36.3272C29.1626 36.3272 29.8021 35.6877 29.8021 34.9016C29.8021 34.1155 29.1626 33.4759 28.3765 33.4759ZM11.6237 37.4991C10.1914 37.4991 9.02618 36.3338 9.02618 34.9016C9.02618 33.4693 10.1914 32.3041 11.6237 32.3041C13.0559 32.3041 14.2212 33.4693 14.2212 34.9016C14.2212 36.3338 13.0559 37.4991 11.6237 37.4991ZM11.6237 33.4759C10.8376 33.4759 10.1981 34.1155 10.1981 34.9016C10.1981 35.6877 10.8376 36.3272 11.6237 36.3272C12.4098 36.3272 13.0493 35.6877 13.0493 34.9016C13.0493 34.1155 12.4098 33.4759 11.6237 33.4759ZM21.0246 30.9577C20.8747 30.9577 20.7247 30.9005 20.6103 30.786L20.0001 30.1758L19.3898 30.786C19.161 31.0149 18.79 31.0149 18.5613 30.786C18.3324 30.5572 18.3324 30.1862 18.5613 29.9574L19.1715 29.3472L18.5613 28.737C18.3324 28.5081 18.3324 28.1372 18.5613 27.9084C18.7901 27.6795 19.1611 27.6795 19.3898 27.9084L20.0001 28.5186L20.6103 27.9084C20.8391 27.6795 21.2102 27.6795 21.4389 27.9084C21.6677 28.1372 21.6677 28.5082 21.4389 28.737L20.8287 29.3472L21.4389 29.9574C21.6677 30.1863 21.6677 30.5573 21.4389 30.786C21.3245 30.9004 21.1746 30.9577 21.0246 30.9577ZM23.454 13.28C23.1304 13.28 22.8681 13.0177 22.8681 12.6941V11.5222C22.8681 11.1986 23.1304 10.9363 23.454 10.9363C23.7776 10.9363 24.0399 11.1986 24.0399 11.5222V12.6941C24.0399 13.0177 23.7776 13.28 23.454 13.28ZM16.5462 13.28C16.2226 13.28 15.9602 13.0177 15.9602 12.6941V11.5222C15.9602 11.1986 16.2226 10.9363 16.5462 10.9363C16.8698 10.9363 17.1321 11.1986 17.1321 11.5222V12.6941C17.1321 13.0177 16.8698 13.28 16.5462 13.28Z" fill="black"/>
</g>
<defs>
<clipPath id="clip0">
<rect width="40" height="40" fill="white"/>
</clipPath>
</defs>
</svg>
